<svg width="735" height="361" viewBox="0 0 735 361" fill="none" xmlns="http://www.w3.org/2000/svg">
<mask id="mask0_700_4937" style="mask-type:alpha" maskUnits="userSpaceOnUse" x="0" y="0" width="735" height="361">
<path d="M0 360.138L358.962 0L734.496 360.138L0 360.138Z" fill="black"/>
</mask>
<g mask="url(#mask0_700_4937)">
<path d="M-24.2217 400.85L15.3611 359.585L58.7661 401.119L-24.2217 400.85Z" fill="#953e3c" fill-opacity="0.5"/>
<path d="M78.0742 401.177L117.657 359.923L161.073 401.446L78.0742 401.177Z" fill="#953e3c" fill-opacity="0.5"/>
<path d="M24.5732 349.994L64.156 308.729L107.561 350.263L24.5732 349.994Z" fill="#953e3c" fill-opacity="0.5"/>
<path d="M-28.9391 298.801L10.6554 257.547L54.0602 299.07L-28.9391 298.801Z" fill="#953e3c" fill-opacity="0.5"/>
<path d="M180.369 401.502L219.964 360.248L263.369 401.771L180.369 401.502Z" fill="#953e3c" fill-opacity="0.5"/>
<path d="M126.869 350.319L166.452 309.066L209.868 350.588L126.869 350.319Z" fill="#953e3c" fill-opacity="0.5"/>
<path d="M73.3681 299.145L112.951 257.88L156.356 299.402L73.3681 299.145Z" fill="#953e3c" fill-opacity="0.5"/>
<path d="M19.8552 247.948L59.4498 206.694L102.855 248.217L19.8552 247.948Z" fill="#953e3c" fill-opacity="0.5"/>
<path d="M-33.6454 196.774L5.94912 155.52L49.3539 197.043L-33.6454 196.774Z" fill="#953e3c" fill-opacity="0.5"/>
<path d="M282.677 401.831L322.26 360.577L365.665 402.1L282.677 401.831Z" fill="#953e3c" fill-opacity="0.5"/>
<path d="M229.164 350.648L268.759 309.394L312.163 350.917L229.164 350.648Z" fill="#953e3c" fill-opacity="0.5"/>
<path d="M175.663 299.471L215.246 258.206L258.663 299.74L175.663 299.471Z" fill="#953e3c" fill-opacity="0.5"/>
<path d="M122.163 248.288L161.746 207.023L205.15 248.546L122.163 248.288Z" fill="#953e3c" fill-opacity="0.5"/>
<path d="M68.6615 197.094L108.245 155.84L151.649 197.363L68.6615 197.094Z" fill="#953e3c" fill-opacity="0.5"/>
<path d="M15.1495 145.916L54.7441 104.662L98.1488 146.185L15.1495 145.916Z" fill="#953e3c" fill-opacity="0.5"/>
<path d="M-38.3512 94.7352L1.2315 53.4703L44.648 95.0041L-38.3512 94.7352Z" fill="#953e3c" fill-opacity="0.5"/>
<path d="M384.972 402.167L424.555 360.902L467.971 402.425L384.972 402.167Z" fill="#953e3c" fill-opacity="0.5"/>
<path d="M331.471 350.976L371.054 309.723L414.459 351.245L331.471 350.976Z" fill="#953e3c" fill-opacity="0.5"/>
<path d="M277.959 299.791L317.554 258.538L360.958 300.06L277.959 299.791Z" fill="#953e3c" fill-opacity="0.5"/>
<path d="M224.459 248.611L264.053 207.346L307.458 248.88L224.459 248.611Z" fill="#953e3c" fill-opacity="0.5"/>
<path d="M170.957 197.432L210.54 156.167L253.956 197.689L170.957 197.432Z" fill="#953e3c" fill-opacity="0.5"/>
<path d="M117.456 146.238L157.039 104.984L200.444 146.507L117.456 146.238Z" fill="#953e3c" fill-opacity="0.5"/>
<path d="M63.9437 95.0591L103.538 53.8054L146.943 95.328L63.9437 95.0591Z" fill="#953e3c" fill-opacity="0.5"/>
<path d="M10.4432 43.8813L50.0375 2.61616L93.4425 44.1502L10.4432 43.8813Z" fill="#953e3c" fill-opacity="0.5"/>
<path d="M487.268 402.493L526.862 361.228L570.267 402.762L487.268 402.493Z" fill="#953e3c" fill-opacity="0.5"/>
<path d="M433.767 351.303L473.35 310.049L516.766 351.572L433.767 351.303Z" fill="#953e3c" fill-opacity="0.5"/>
<path d="M380.266 300.122L419.849 258.868L463.254 300.391L380.266 300.122Z" fill="#953e3c" fill-opacity="0.5"/>
<path d="M326.754 248.941L366.348 207.687L409.753 249.21L326.754 248.941Z" fill="#953e3c" fill-opacity="0.5"/>
<path d="M273.253 197.764L312.847 156.499L356.252 198.033L273.253 197.764Z" fill="#953e3c" fill-opacity="0.5"/>
<path d="M219.752 146.569L259.335 105.316L302.751 146.838L219.752 146.569Z" fill="#953e3c" fill-opacity="0.5"/>
<path d="M166.251 95.3881L205.834 54.1346L249.239 95.6572L166.251 95.3881Z" fill="#953e3c" fill-opacity="0.5"/>
<path d="M112.739 44.2095L152.333 2.95586L195.738 44.4784L112.739 44.2095Z" fill="#953e3c" fill-opacity="0.5"/>
<path d="M59.2377 -6.97154L98.832 -48.2367L142.237 -6.70266L59.2377 -6.97154Z" fill="#953e3c" fill-opacity="0.5"/>
<path d="M589.575 402.826L629.158 361.572L672.563 403.095L589.575 402.826Z" fill="#953e3c" fill-opacity="0.5"/>
<path d="M536.063 351.644L575.657 310.379L619.062 351.913L536.063 351.644Z" fill="#953e3c" fill-opacity="0.5"/>
<path d="M482.561 300.45L522.144 259.197L565.561 300.719L482.561 300.45Z" fill="#953e3c" fill-opacity="0.5"/>
<path d="M429.061 249.266L468.644 208.012L512.049 249.535L429.061 249.266Z" fill="#953e3c" fill-opacity="0.5"/>
<path d="M375.56 198.088L415.143 156.835L458.547 198.357L375.56 198.088Z" fill="#953e3c" fill-opacity="0.5"/>
<path d="M322.048 146.908L361.642 105.643L405.047 147.165L322.048 146.908Z" fill="#953e3c" fill-opacity="0.5"/>
<path d="M268.546 95.7126L308.129 54.4592L351.546 95.9815L268.546 95.7126Z" fill="#953e3c" fill-opacity="0.5"/>
<path d="M215.046 44.5344L254.629 3.28092L298.033 44.8035L215.046 44.5344Z" fill="#953e3c" fill-opacity="0.5"/>
<path d="M161.533 -6.64705L201.127 -47.9122L244.532 -6.37816L161.533 -6.64705Z" fill="#953e3c" fill-opacity="0.5"/>
<path d="M691.87 403.151L731.453 361.897L774.87 403.419L691.87 403.151Z" fill="#953e3c" fill-opacity="0.5"/>
<path d="M638.369 351.969L677.952 310.704L721.357 352.238L638.369 351.969Z" fill="#953e3c" fill-opacity="0.5"/>
<path d="M584.857 300.786L624.451 259.521L667.856 301.044L584.857 300.786Z" fill="#953e3c" fill-opacity="0.5"/>
<path d="M531.356 249.593L570.951 208.34L614.356 249.862L531.356 249.593Z" fill="#953e3c" fill-opacity="0.5"/>
<path d="M477.855 198.416L517.438 157.163L560.843 198.686L477.855 198.416Z" fill="#953e3c" fill-opacity="0.5"/>
<path d="M424.354 147.232L463.937 105.967L507.342 147.501L424.354 147.232Z" fill="#953e3c" fill-opacity="0.5"/>
<path d="M370.842 96.0528L410.437 54.7877L453.841 96.3102L370.842 96.0528Z" fill="#953e3c" fill-opacity="0.5"/>
<path d="M317.341 44.8641L356.924 3.61069L400.341 45.133L317.341 44.8641Z" fill="#953e3c" fill-opacity="0.5"/>
<path d="M263.84 -6.31599L303.424 -47.5694L346.828 -6.04686L263.84 -6.31599Z" fill="#953e3c" fill-opacity="0.5"/>
<path d="M740.665 352.297L780.248 311.044L823.664 352.566L740.665 352.297Z" fill="#953e3c" fill-opacity="0.5"/>
<path d="M687.164 301.12L726.747 259.855L770.152 301.389L687.164 301.12Z" fill="#953e3c" fill-opacity="0.5"/>
<path d="M633.651 249.931L673.246 208.665L716.65 250.188L633.651 249.931Z" fill="#953e3c" fill-opacity="0.5"/>
<path d="M580.15 198.742L619.745 157.488L663.15 199.01L580.15 198.742Z" fill="#953e3c" fill-opacity="0.5"/>
<path d="M526.65 147.557L566.233 106.304L609.649 147.826L526.65 147.557Z" fill="#953e3c" fill-opacity="0.5"/>
<path d="M473.149 96.3794L512.732 55.1144L556.137 96.6485L473.149 96.3794Z" fill="#953e3c" fill-opacity="0.5"/>
<path d="M419.637 45.1975L459.231 3.9323L502.636 45.4549L419.637 45.1975Z" fill="#953e3c" fill-opacity="0.5"/>
<path d="M366.136 -5.99285L405.73 -47.2465L449.135 -5.72397L366.136 -5.99285Z" fill="#953e3c" fill-opacity="0.5"/>
<path d="M735.959 250.259L775.542 208.994L818.947 250.528L735.959 250.259Z" fill="#953e3c" fill-opacity="0.5"/>
<path d="M682.446 199.069L722.041 157.815L765.445 199.338L682.446 199.069Z" fill="#953e3c" fill-opacity="0.5"/>
<path d="M628.946 147.886L668.54 106.632L711.945 148.155L628.946 147.886Z" fill="#953e3c" fill-opacity="0.5"/>
<path d="M575.445 96.7062L615.028 55.4528L658.444 96.9751L575.445 96.7062Z" fill="#953e3c" fill-opacity="0.5"/>
<path d="M521.944 45.5268L561.526 4.26187L604.931 45.7959L521.944 45.5268Z" fill="#953e3c" fill-opacity="0.5"/>
<path d="M468.431 -5.66823L508.026 -46.9219L551.43 -5.39935L468.431 -5.66823Z" fill="#953e3c" fill-opacity="0.5"/>
<path d="M731.252 148.216L770.835 106.962L814.24 148.485L731.252 148.216Z" fill="#953e3c" fill-opacity="0.5"/>
<path d="M677.74 97.0322L717.335 55.7785L760.74 97.3011L677.74 97.0322Z" fill="#953e3c" fill-opacity="0.5"/>
<path d="M624.239 45.85L663.822 4.5966L707.238 46.1189L624.239 45.85Z" fill="#953e3c" fill-opacity="0.5"/>
<path d="M570.739 -5.32307L610.321 -46.588L653.726 -5.06543L570.739 -5.32307Z" fill="#953e3c" fill-opacity="0.5"/>
<path d="M726.535 46.1799L766.129 4.92622L809.534 46.4488L726.535 46.1799Z" fill="#953e3c" fill-opacity="0.5"/>
<path d="M673.034 -4.9982L712.628 -46.2634L756.033 -4.7293L673.034 -4.9982Z" fill="#953e3c" fill-opacity="0.5"/>
</g>
</svg>
