<svg width="22" height="20" viewBox="0 0 22 20" fill="none" xmlns="http://www.w3.org/2000/svg">
<path d="M13.9835 7.83333C15.03 7.83333 15.8793 8.68267 15.8793 9.72917V14.8739C15.8793 16.1671 15.3656 17.4074 14.4511 18.3218C13.5367 19.2363 12.2964 19.75 11.0032 19.75C9.70999 19.75 8.46974 19.2363 7.5553 18.3218C6.64085 17.4074 6.12713 16.1671 6.12713 14.8739V9.72917C6.12713 8.68267 6.97538 7.83333 8.02296 7.83333H13.9835ZM13.9835 9.45833H8.02296C7.95113 9.45833 7.88224 9.48687 7.83145 9.53766C7.78066 9.58845 7.75213 9.65734 7.75213 9.72917V14.8739C7.75213 15.7362 8.09465 16.5631 8.70435 17.1728C9.31404 17.7825 10.141 18.125 11.0032 18.125C11.8654 18.125 12.6924 17.7825 13.3021 17.1728C13.9118 16.5631 14.2543 15.7362 14.2543 14.8739V9.72917C14.2543 9.65734 14.2258 9.58845 14.175 9.53766C14.1242 9.48687 14.0553 9.45833 13.9835 9.45833ZM2.06246 7.83333H5.72521C5.34313 8.295 5.10973 8.8615 5.05571 9.45833H2.06246C1.99063 9.45833 1.92174 9.48687 1.87095 9.53766C1.82016 9.58845 1.79163 9.65734 1.79163 9.72917V13.2489C1.79135 13.6584 1.88391 14.0625 2.06235 14.431C2.24078 14.7996 2.50045 15.1228 2.82182 15.3765C3.14319 15.6302 3.5179 15.8078 3.91778 15.8958C4.31765 15.9838 4.73227 15.98 5.13046 15.8847C5.22254 16.4307 5.39046 16.9518 5.62121 17.436C5.26299 17.5335 4.88924 17.5826 4.49996 17.5833C3.93081 17.5833 3.36723 17.4712 2.84141 17.2534C2.3156 17.0355 1.83785 16.7162 1.43545 16.3137C1.03305 15.9112 0.713877 15.4334 0.496171 14.9075C0.278464 14.3817 0.166484 13.8181 0.166626 13.2489V9.72917C0.166626 8.68267 1.01596 7.83333 2.06246 7.83333ZM16.2812 7.83333H19.9375C20.984 7.83333 21.8333 8.68267 21.8333 9.72917V13.25C21.8334 13.9143 21.6809 14.5697 21.3874 15.1656C21.0939 15.7615 20.6673 16.2819 20.1407 16.6867C19.614 17.0915 19.0013 17.3698 18.3499 17.5001C17.6986 17.6304 17.026 17.6092 16.3841 17.4382C16.616 16.9528 16.7839 16.4318 16.877 15.8858C17.0771 15.9334 17.2847 15.9576 17.5 15.9583C18.2183 15.9583 18.9071 15.673 19.415 15.1651C19.923 14.6572 20.2083 13.9683 20.2083 13.25V9.72917C20.2083 9.65734 20.1798 9.58845 20.129 9.53766C20.0782 9.48687 20.0093 9.45833 19.9375 9.45833H16.9507C16.8967 8.8615 16.6633 8.295 16.2812 7.83333ZM11 0.25C11.8619 0.25 12.6886 0.59241 13.2981 1.2019C13.9075 1.8114 14.25 2.63805 14.25 3.5C14.25 4.36195 13.9075 5.1886 13.2981 5.7981C12.6886 6.40759 11.8619 6.75 11 6.75C10.138 6.75 9.31135 6.40759 8.70186 5.7981C8.09237 5.1886 7.74996 4.36195 7.74996 3.5C7.74996 2.63805 8.09237 1.8114 8.70186 1.2019C9.31135 0.59241 10.138 0.25 11 0.25ZM18.0416 1.33333C18.7599 1.33333 19.4488 1.61867 19.9567 2.12659C20.4646 2.6345 20.75 3.32337 20.75 4.04167C20.75 4.75996 20.4646 5.44884 19.9567 5.95675C19.4488 6.46466 18.7599 6.75 18.0416 6.75C17.3233 6.75 16.6345 6.46466 16.1265 5.95675C15.6186 5.44884 15.3333 4.75996 15.3333 4.04167C15.3333 3.32337 15.6186 2.6345 16.1265 2.12659C16.6345 1.61867 17.3233 1.33333 18.0416 1.33333ZM3.95829 1.33333C4.67659 1.33333 5.36546 1.61867 5.87337 2.12659C6.38128 2.6345 6.66663 3.32337 6.66663 4.04167C6.66663 4.75996 6.38128 5.44884 5.87337 5.95675C5.36546 6.46466 4.67659 6.75 3.95829 6.75C3.24 6.75 2.55112 6.46466 2.04321 5.95675C1.5353 5.44884 1.24996 4.75996 1.24996 4.04167C1.24996 3.32337 1.5353 2.6345 2.04321 2.12659C2.55112 1.61867 3.24 1.33333 3.95829 1.33333ZM11 1.875C10.569 1.875 10.1557 2.0462 9.85091 2.35095C9.54616 2.6557 9.37496 3.06902 9.37496 3.5C9.37496 3.93098 9.54616 4.3443 9.85091 4.64905C10.1557 4.9538 10.569 5.125 11 5.125C11.4309 5.125 11.8443 4.9538 12.149 4.64905C12.4538 4.3443 12.625 3.93098 12.625 3.5C12.625 3.06902 12.4538 2.6557 12.149 2.35095C11.8443 2.0462 11.4309 1.875 11 1.875ZM18.0416 2.95833C17.7543 2.95833 17.4788 3.07247 17.2756 3.27563C17.0724 3.4788 16.9583 3.75435 16.9583 4.04167C16.9583 4.32898 17.0724 4.60453 17.2756 4.8077C17.4788 5.01086 17.7543 5.125 18.0416 5.125C18.3289 5.125 18.6045 5.01086 18.8077 4.8077C19.0108 4.60453 19.125 4.32898 19.125 4.04167C19.125 3.75435 19.0108 3.4788 18.8077 3.27563C18.6045 3.07247 18.3289 2.95833 18.0416 2.95833ZM3.95829 2.95833C3.67097 2.95833 3.39542 3.07247 3.19226 3.27563C2.9891 3.4788 2.87496 3.75435 2.87496 4.04167C2.87496 4.32898 2.9891 4.60453 3.19226 4.8077C3.39542 5.01086 3.67097 5.125 3.95829 5.125C4.24561 5.125 4.52116 5.01086 4.72432 4.8077C4.92749 4.60453 5.04163 4.32898 5.04163 4.04167C5.04163 3.75435 4.92749 3.4788 4.72432 3.27563C4.52116 3.07247 4.24561 2.95833 3.95829 2.95833Z" fill="url(#paint0_linear_245_4399)"/>
<defs>
<linearGradient id="paint0_linear_245_4399" x1="0.166626" y1="2.6875" x2="23.6592" y2="22.1258" gradientUnits="userSpaceOnUse">
<stop stop-color="#E95A56"/>
<stop offset="1" stop-color="#833330"/>
</linearGradient>
</defs>
</svg>
