<svg width="24" height="23" viewBox="0 0 24 23" fill="none" xmlns="http://www.w3.org/2000/svg">
<path d="M6 23C5.16667 23 4.45833 22.7083 3.875 22.125C3.29167 21.5417 3 20.8333 3 20C3 19.1667 3.29167 18.4583 3.875 17.875C4.45833 17.2917 5.16667 17 6 17C6.23333 17 6.45 17.025 6.65 17.075C6.85 17.125 7.04167 17.1917 7.225 17.275L8.65 15.5C8.18333 14.9833 7.85833 14.4 7.675 13.75C7.49167 13.1 7.45 12.45 7.55 11.8L5.525 11.125C5.24167 11.5417 4.88333 11.875 4.45 12.125C4.01667 12.375 3.53333 12.5 3 12.5C2.16667 12.5 1.45833 12.2083 0.875 11.625C0.291667 11.0417 0 10.3333 0 9.5C0 8.66667 0.291667 7.95833 0.875 7.375C1.45833 6.79167 2.16667 6.5 3 6.5C3.83333 6.5 4.54167 6.79167 5.125 7.375C5.70833 7.95833 6 8.66667 6 9.5V9.7L8.025 10.4C8.35833 9.8 8.80433 9.29167 9.363 8.875C9.92167 8.45833 10.5507 8.19167 11.25 8.075V5.9C10.6 5.71667 10.0627 5.36233 9.638 4.837C9.21333 4.31167 9.00067 3.69933 9 3C9 2.16667 9.29167 1.45833 9.875 0.875C10.4583 0.291667 11.1667 0 12 0C12.8333 0 13.5417 0.291667 14.125 0.875C14.7083 1.45833 15 2.16667 15 3C15 3.7 14.7833 4.31267 14.35 4.838C13.9167 5.36333 13.3833 5.71733 12.75 5.9V8.075C13.45 8.19167 14.0793 8.45833 14.638 8.875C15.1967 9.29167 15.6423 9.8 15.975 10.4L18 9.7V9.5C18 8.66667 18.2917 7.95833 18.875 7.375C19.4583 6.79167 20.1667 6.5 21 6.5C21.8333 6.5 22.5417 6.79167 23.125 7.375C23.7083 7.95833 24 8.66667 24 9.5C24 10.3333 23.7083 11.0417 23.125 11.625C22.5417 12.2083 21.8333 12.5 21 12.5C20.4667 12.5 19.979 12.375 19.537 12.125C19.095 11.875 18.741 11.5417 18.475 11.125L16.45 11.8C16.55 12.45 16.5083 13.096 16.325 13.738C16.1417 14.38 15.8167 14.9673 15.35 15.5L16.775 17.25C16.9583 17.1667 17.15 17.1043 17.35 17.063C17.55 17.0217 17.7667 17.0007 18 17C18.8333 17 19.5417 17.2917 20.125 17.875C20.7083 18.4583 21 19.1667 21 20C21 20.8333 20.7083 21.5417 20.125 22.125C19.5417 22.7083 18.8333 23 18 23C17.1667 23 16.4583 22.7083 15.875 22.125C15.2917 21.5417 15 20.8333 15 20C15 19.6667 15.0543 19.346 15.163 19.038C15.2717 18.73 15.4173 18.4507 15.6 18.2L14.175 16.425C13.4917 16.8083 12.7627 17 11.988 17C11.2133 17 10.484 16.8083 9.8 16.425L8.4 18.2C8.58333 18.45 8.72933 18.7293 8.838 19.038C8.94667 19.3467 9.00067 19.6673 9 20C9 20.8333 8.70833 21.5417 8.125 22.125C7.54167 22.7083 6.83333 23 6 23ZM3 10.5C3.28333 10.5 3.521 10.404 3.713 10.212C3.905 10.02 4.00067 9.78267 4 9.5C3.99933 9.21733 3.90333 8.98 3.712 8.788C3.52067 8.596 3.28333 8.5 3 8.5C2.71667 8.5 2.47933 8.596 2.288 8.788C2.09667 8.98 2.00067 9.21733 2 9.5C1.99933 9.78267 2.09533 10.0203 2.288 10.213C2.48067 10.4057 2.718 10.5013 3 10.5ZM6 21C6.28333 21 6.521 20.904 6.713 20.712C6.905 20.52 7.00067 20.2827 7 20C6.99933 19.7173 6.90333 19.48 6.712 19.288C6.52067 19.096 6.28333 19 6 19C5.71667 19 5.47933 19.096 5.288 19.288C5.09667 19.48 5.00067 19.7173 5 20C4.99933 20.2827 5.09533 20.5203 5.288 20.713C5.48067 20.9057 5.718 21.0013 6 21ZM12 4C12.2833 4 12.521 3.904 12.713 3.712C12.905 3.52 13.0007 3.28267 13 3C12.9993 2.71733 12.9033 2.48 12.712 2.288C12.5207 2.096 12.2833 2 12 2C11.7167 2 11.4793 2.096 11.288 2.288C11.0967 2.48 11.0007 2.71733 11 3C10.9993 3.28267 11.0953 3.52033 11.288 3.713C11.4807 3.90567 11.718 4.00133 12 4ZM12 15C12.7 15 13.2917 14.7583 13.775 14.275C14.2583 13.7917 14.5 13.2 14.5 12.5C14.5 11.8 14.2583 11.2083 13.775 10.725C13.2917 10.2417 12.7 10 12 10C11.3 10 10.7083 10.2417 10.225 10.725C9.74167 11.2083 9.5 11.8 9.5 12.5C9.5 13.2 9.74167 13.7917 10.225 14.275C10.7083 14.7583 11.3 15 12 15ZM18 21C18.2833 21 18.521 20.904 18.713 20.712C18.905 20.52 19.0007 20.2827 19 20C18.9993 19.7173 18.9033 19.48 18.712 19.288C18.5207 19.096 18.2833 19 18 19C17.7167 19 17.4793 19.096 17.288 19.288C17.0967 19.48 17.0007 19.7173 17 20C16.9993 20.2827 17.0953 20.5203 17.288 20.713C17.4807 20.9057 17.718 21.0013 18 21ZM21 10.5C21.2833 10.5 21.521 10.404 21.713 10.212C21.905 10.02 22.0007 9.78267 22 9.5C21.9993 9.21733 21.9033 8.98 21.712 8.788C21.5207 8.596 21.2833 8.5 21 8.5C20.7167 8.5 20.4793 8.596 20.288 8.788C20.0967 8.98 20.0007 9.21733 20 9.5C19.9993 9.78267 20.0953 10.0203 20.288 10.213C20.4807 10.4057 20.718 10.5013 21 10.5Z" fill="url(#paint0_linear_245_4401)"/>
<defs>
<linearGradient id="paint0_linear_245_4401" x1="1.05053e-07" y1="2.875" x2="27.3337" y2="24.1149" gradientUnits="userSpaceOnUse">
<stop stop-color="#E95A56"/>
<stop offset="1" stop-color="#833330"/>
</linearGradient>
</defs>
</svg>
