<svg width="20" height="23" viewBox="0 0 20 23" fill="none" xmlns="http://www.w3.org/2000/svg">
<path fill-rule="evenodd" clip-rule="evenodd" d="M10 0.166626C12.5859 0.166626 15.0658 1.19386 16.8943 3.02233C18.7228 4.85081 19.75 7.33077 19.75 9.91663C19.75 13.2468 17.9343 15.9725 16.0212 17.9279C15.0653 18.8943 14.0223 19.7704 12.9055 20.5452L12.444 20.8594L12.2273 21.0035L11.8189 21.2635L11.4549 21.4855L11.0043 21.7477C10.6984 21.9223 10.3522 22.0141 10 22.0141C9.64778 22.0141 9.30165 21.9223 8.99575 21.7477L8.54508 21.4855L7.98175 21.1389L7.77375 21.0035L7.32958 20.7077C6.12473 19.8925 5.00248 18.9615 3.97883 17.9279C2.06567 15.9714 0.25 13.2468 0.25 9.91663C0.25 7.33077 1.27723 4.85081 3.10571 3.02233C4.93419 1.19386 7.41414 0.166626 10 0.166626ZM10 2.33329C7.98878 2.33329 6.05992 3.13225 4.63777 4.5544C3.21562 5.97655 2.41667 7.9054 2.41667 9.91663C2.41667 12.4321 3.79467 14.64 5.52692 16.4123C6.27174 17.1663 7.0768 17.8583 7.93408 18.4815L8.43025 18.8346C8.59058 18.9466 8.74478 19.0506 8.89283 19.1466L9.31533 19.4175L9.68692 19.6439L10 19.827L10.4929 19.5355L10.8905 19.2864C11.1021 19.152 11.3285 19.0015 11.5698 18.8346L12.0659 18.4815C12.9232 17.8583 13.7283 17.1663 14.4731 16.4123C16.2053 14.641 17.5833 12.4321 17.5833 9.91663C17.5833 7.9054 16.7844 5.97655 15.3622 4.5544C13.9401 3.13225 12.0112 2.33329 10 2.33329ZM10 5.58329C11.1493 5.58329 12.2515 6.03984 13.0641 6.8525C13.8768 7.66515 14.3333 8.76735 14.3333 9.91663C14.3333 11.0659 13.8768 12.1681 13.0641 12.9808C12.2515 13.7934 11.1493 14.25 10 14.25C8.85073 14.25 7.74853 13.7934 6.93587 12.9808C6.12321 12.1681 5.66667 11.0659 5.66667 9.91663C5.66667 8.76735 6.12321 7.66515 6.93587 6.8525C7.74853 6.03984 8.85073 5.58329 10 5.58329ZM10 7.74996C9.42536 7.74996 8.87426 7.97823 8.46794 8.38456C8.06161 8.79089 7.83333 9.34199 7.83333 9.91663C7.83333 10.4913 8.06161 11.0424 8.46794 11.4487C8.87426 11.855 9.42536 12.0833 10 12.0833C10.5746 12.0833 11.1257 11.855 11.5321 11.4487C11.9384 11.0424 12.1667 10.4913 12.1667 9.91663C12.1667 9.34199 11.9384 8.79089 11.5321 8.38456C11.1257 7.97823 10.5746 7.74996 10 7.74996Z" fill="url(#paint0_linear_245_4393)"/>
<defs>
<linearGradient id="paint0_linear_245_4393" x1="0.25" y1="2.89757" x2="24.9546" y2="19.3179" gradientUnits="userSpaceOnUse">
<stop stop-color="#E95A56"/>
<stop offset="1" stop-color="#833330"/>
</linearGradient>
</defs>
</svg>
