<svg width="265" height="231" viewBox="0 0 265 231" fill="none" xmlns="http://www.w3.org/2000/svg">
<g opacity="0.2">
<mask id="mask0_394_19365" style="mask-type:luminance" maskUnits="userSpaceOnUse" x="0" y="43" width="74" height="144">
<path d="M3.5302 43.6542L73.426 113.55L-6.10352e-05 186.984L3.5302 43.6542Z" fill="white"/>
</mask>
<g mask="url(#mask0_394_19365)">
<path d="M0.478454 31.0632L8.57495 39.1517L0.0720758 47.6546L0.478454 31.0632Z" fill="#E07373"/>
<path d="M-0.0237746 51.5116L8.0647 59.6001L-0.430202 68.103L-0.0237746 51.5116Z" fill="#E07373"/>
<path d="M10.4552 41.0324L18.5437 49.1288L10.0408 57.6237L10.4552 41.0324Z" fill="#E07373"/>
<path d="M20.9265 30.5612L29.0229 38.6496L20.5201 47.1526L20.9265 30.5612Z" fill="#E07373"/>
<path d="M-0.525728 71.96L7.56274 80.0564L-0.940131 88.5514L-0.525728 71.96Z" fill="#E07373"/>
<path d="M9.94525 61.4887L18.0417 69.5772L9.53887 78.0801L9.94525 61.4887Z" fill="#E07373"/>
<path d="M20.4247 51.0095L28.5132 59.098L20.0182 67.6009L20.4247 51.0095Z" fill="#E07373"/>
<path d="M30.9037 40.5304L38.9922 48.6188L30.4973 57.1218L30.9037 40.5304Z" fill="#E07373"/>
<path d="M41.3829 30.0512L49.4714 38.1477L40.9685 46.6426L41.3829 30.0512Z" fill="#E07373"/>
<path d="M-1.0359 92.4163L7.06055 100.505L-1.44233 109L-1.0359 92.4163Z" fill="#E07373"/>
<path d="M9.44322 81.937L17.5317 90.0256L9.03684 98.5284L9.44322 81.937Z" fill="#E07373"/>
<path d="M19.9222 71.4579L28.0107 79.5464L19.5078 88.0493L19.9222 71.4579Z" fill="#E07373"/>
<path d="M30.4015 60.9787L38.49 69.0752L29.9871 77.5701L30.4015 60.9787Z" fill="#E07373"/>
<path d="M40.8728 50.5075L48.9692 58.596L40.4663 67.0909L40.8728 50.5075Z" fill="#E07373"/>
<path d="M51.3519 40.0283L59.4404 48.1168L50.9455 56.6197L51.3519 40.0283Z" fill="#E07373"/>
<path d="M61.8312 29.5491L69.9197 37.6376L61.4168 46.1405L61.8312 29.5491Z" fill="#E07373"/>
<path d="M-1.53798 112.865L6.55054 120.953L-1.94441 129.456L-1.53798 112.865Z" fill="#E07373"/>
<path d="M8.94131 102.385L17.0298 110.474L8.52691 118.977L8.94131 102.385Z" fill="#E07373"/>
<path d="M19.4203 91.9063L27.5088 99.9948L19.0059 108.498L19.4203 91.9063Z" fill="#E07373"/>
<path d="M29.8916 81.4271L37.988 89.5236L29.4852 98.0185L29.8916 81.4271Z" fill="#E07373"/>
<path d="M40.371 70.9558L48.4595 79.0443L39.9646 87.5472L40.371 70.9558Z" fill="#E07373"/>
<path d="M50.85 60.4767L58.9385 68.5652L50.4356 77.0681L50.85 60.4767Z" fill="#E07373"/>
<path d="M61.3292 49.9975L69.4177 58.094L60.9148 66.5889L61.3292 49.9975Z" fill="#E07373"/>
<path d="M71.8005 39.5183L79.897 47.6147L71.3941 56.1097L71.8005 39.5183Z" fill="#E07373"/>
<path d="M-2.03994 133.313L6.04858 141.402L-2.45434 149.904L-2.03994 133.313Z" fill="#E07373"/>
<path d="M8.43138 122.834L16.5278 130.922L8.02496 139.425L8.43138 122.834Z" fill="#E07373"/>
<path d="M18.9103 112.355L27.0068 120.451L18.504 128.946L18.9103 112.355Z" fill="#E07373"/>
<path d="M29.3898 101.883L37.4783 109.972L28.9833 118.475L29.3898 101.883Z" fill="#E07373"/>
<path d="M39.8688 91.4043L47.9573 99.4928L39.4544 107.996L39.8688 91.4043Z" fill="#E07373"/>
<path d="M50.34 80.9251L58.4365 89.0136L49.9336 97.5165L50.34 80.9251Z" fill="#E07373"/>
<path d="M60.8191 70.4459L68.9155 78.5423L60.4126 87.0373L60.8191 70.4459Z" fill="#E07373"/>
<path d="M71.2985 59.9746L79.387 68.0631L70.892 76.566L71.2985 59.9746Z" fill="#E07373"/>
<path d="M-2.55011 153.761L5.54639 161.85L-2.95654 170.353L-2.55011 153.761Z" fill="#E07373"/>
<path d="M7.92911 143.282L16.0176 151.379L7.52268 159.874L7.92911 143.282Z" fill="#E07373"/>
<path d="M18.4083 132.811L26.4968 140.9L18.0019 149.402L18.4083 132.811Z" fill="#E07373"/>
<path d="M28.8876 122.332L36.9761 130.42L28.4732 138.923L28.8876 122.332Z" fill="#E07373"/>
<path d="M39.3586 111.853L47.4551 119.941L38.9522 128.444L39.3586 111.853Z" fill="#E07373"/>
<path d="M49.838 101.373L57.9265 109.47L49.4316 117.965L49.838 101.373Z" fill="#E07373"/>
<path d="M60.317 90.9022L68.4055 98.9907L59.9106 107.494L60.317 90.9022Z" fill="#E07373"/>
<path d="M70.7965 80.4231L78.885 88.5115L70.3821 97.0145L70.7965 80.4231Z" fill="#E07373"/>
<path d="M-3.0519 174.21L5.03662 182.306L-3.45828 190.801L-3.0519 174.21Z" fill="#E07373"/>
<path d="M7.4271 163.739L15.5156 171.827L7.02068 180.322L7.4271 163.739Z" fill="#E07373"/>
<path d="M17.9064 153.259L25.9949 161.348L17.492 169.851L17.9064 153.259Z" fill="#E07373"/>
<path d="M28.3776 142.78L36.4741 150.869L27.9712 159.372L28.3776 142.78Z" fill="#E07373"/>
<path d="M38.8568 132.301L46.9453 140.397L38.4504 148.892L38.8568 132.301Z" fill="#E07373"/>
<path d="M49.3361 121.83L57.4246 129.918L48.9217 138.413L49.3361 121.83Z" fill="#E07373"/>
<path d="M59.8151 111.351L67.9036 119.439L59.4007 127.942L59.8151 111.351Z" fill="#E07373"/>
<path d="M70.2863 100.871L78.3828 108.96L69.8799 117.463L70.2863 100.871Z" fill="#E07373"/>
<path d="M6.92515 184.187L15.0137 192.275L6.51075 200.778L6.92515 184.187Z" fill="#E07373"/>
<path d="M17.3962 173.708L25.4927 181.796L16.9898 190.299L17.3962 173.708Z" fill="#E07373"/>
<path d="M27.8753 163.229L35.9639 171.325L27.469 179.82L27.8753 163.229Z" fill="#E07373"/>
<path d="M38.3546 152.749L46.4431 160.846L37.9402 169.341L38.3546 152.749Z" fill="#E07373"/>
<path d="M48.8336 142.278L56.9221 150.367L48.4192 158.87L48.8336 142.278Z" fill="#E07373"/>
<path d="M59.3051 131.799L67.4016 139.887L58.8987 148.39L59.3051 131.799Z" fill="#E07373"/>
<path d="M69.7841 121.32L77.8726 129.416L69.3776 137.911L69.7841 121.32Z" fill="#E07373"/>
<path d="M27.3734 183.677L35.4619 191.773L26.959 200.268L27.3734 183.677Z" fill="#E07373"/>
<path d="M37.8447 173.206L45.9412 181.294L37.4383 189.797L37.8447 173.206Z" fill="#E07373"/>
<path d="M48.3237 162.726L56.4202 170.815L47.9173 179.318L48.3237 162.726Z" fill="#E07373"/>
<path d="M58.8031 152.247L66.8916 160.336L58.3967 168.839L58.8031 152.247Z" fill="#E07373"/>
<path d="M69.2821 141.768L77.3706 149.865L68.8677 158.359L69.2821 141.768Z" fill="#E07373"/>
<path d="M47.8219 183.175L55.9104 191.263L47.4155 199.766L47.8219 183.175Z" fill="#E07373"/>
<path d="M58.3009 172.696L66.3894 180.792L57.8865 189.287L58.3009 172.696Z" fill="#E07373"/>
<path d="M68.7722 162.224L76.8687 170.313L68.3658 178.816L68.7722 162.224Z" fill="#E07373"/>
<path d="M68.2701 182.673L76.3586 190.761L67.8637 199.264L68.2701 182.673Z" fill="#E07373"/>
</g>
<mask id="mask1_394_19365" style="mask-type:luminance" maskUnits="userSpaceOnUse" x="73" y="0" width="119" height="231">
<path d="M79.108 3.59436e-05L191.582 112.474L73.4182 230.638L79.108 3.59436e-05Z" fill="white"/>
</mask>
<g mask="url(#mask1_394_19365)">
<path d="M74.1911 -20.265L87.2124 -7.24373L73.5377 6.431L74.1911 -20.265Z" fill="#E07373"/>
<path d="M73.3784 12.6388L86.3997 25.6601L72.7249 39.3428L73.3784 12.6388Z" fill="#E07373"/>
<path d="M90.2409 -4.21558L103.262 8.79776L89.5795 22.4805L90.2409 -4.21558Z" fill="#E07373"/>
<path d="M107.103 -21.0779L120.124 -8.05661L106.441 5.61816L107.103 -21.0779Z" fill="#E07373"/>
<path d="M72.5734 45.5507L85.5867 58.5719L71.9119 72.2467L72.5734 45.5507Z" fill="#E07373"/>
<path d="M89.4277 28.6883L102.449 41.7096L88.7742 55.3843L89.4277 28.6883Z" fill="#E07373"/>
<path d="M106.29 11.826L119.312 24.8473L105.629 38.53L106.29 11.826Z" fill="#E07373"/>
<path d="M123.152 -5.02844L136.166 7.99287L122.491 21.6676L123.152 -5.02844Z" fill="#E07373"/>
<path d="M140.007 -21.8907L153.029 -8.86937L139.354 4.80536L140.007 -21.8907Z" fill="#E07373"/>
<path d="M71.7607 78.4545L84.782 91.4758L71.0993 105.159L71.7607 78.4545Z" fill="#E07373"/>
<path d="M88.6149 61.6002L101.636 74.6135L87.9615 88.2962L88.6149 61.6002Z" fill="#E07373"/>
<path d="M105.477 44.7378L118.499 57.7591L104.816 71.4338L105.477 44.7378Z" fill="#E07373"/>
<path d="M122.34 27.8755L135.361 40.8968L121.678 54.5795L122.34 27.8755Z" fill="#E07373"/>
<path d="M139.194 11.0211L152.215 24.0345L138.541 37.7172L139.194 11.0211Z" fill="#E07373"/>
<path d="M156.056 -5.84122L169.078 7.18005L155.395 20.8548L156.056 -5.84122Z" fill="#E07373"/>
<path d="M172.919 -22.7036L185.94 -9.68227L172.257 3.99246L172.919 -22.7036Z" fill="#E07373"/>
<path d="M70.9477 111.366L83.969 124.388L70.2863 138.062L70.9477 111.366Z" fill="#E07373"/>
<path d="M87.8099 94.504L100.823 107.525L87.1485 121.2L87.8099 94.504Z" fill="#E07373"/>
<path d="M104.665 77.6417L117.686 90.663L104.011 104.346L104.665 77.6417Z" fill="#E07373"/>
<path d="M121.527 60.7873L134.548 73.8086L120.865 87.4833L121.527 60.7873Z" fill="#E07373"/>
<path d="M138.389 43.925L151.402 56.9463L137.728 70.6211L138.389 43.925Z" fill="#E07373"/>
<path d="M155.244 27.0626L168.265 40.084L154.59 53.7667L155.244 27.0626Z" fill="#E07373"/>
<path d="M172.106 10.2083L185.127 23.2296L171.444 36.9043L172.106 10.2083Z" fill="#E07373"/>
<path d="M188.968 -6.65405L201.981 6.36726L188.307 20.042L188.968 -6.65405Z" fill="#E07373"/>
<path d="M70.135 144.27L83.1563 157.292L69.4735 170.974L70.135 144.27Z" fill="#E07373"/>
<path d="M86.9972 127.416L100.01 140.429L86.3357 154.112L86.9972 127.416Z" fill="#E07373"/>
<path d="M103.852 110.554L116.873 123.575L103.198 137.25L103.852 110.554Z" fill="#E07373"/>
<path d="M120.714 93.6912L133.735 106.712L120.052 120.395L120.714 93.6912Z" fill="#E07373"/>
<path d="M137.576 76.8369L150.598 89.8501L136.915 103.533L137.576 76.8369Z" fill="#E07373"/>
<path d="M154.431 59.9745L167.452 72.9958L153.777 86.6705L154.431 59.9745Z" fill="#E07373"/>
<path d="M171.293 43.1121L184.314 56.1334L170.631 69.8082L171.293 43.1121Z" fill="#E07373"/>
<path d="M188.155 26.2578L201.177 39.2711L187.494 52.9538L188.155 26.2578Z" fill="#E07373"/>
<path d="M69.3219 177.182L82.3433 190.203L68.6605 203.878L69.3219 177.182Z" fill="#E07373"/>
<path d="M86.1845 160.32L99.2058 173.341L85.5231 187.016L86.1845 160.32Z" fill="#E07373"/>
<path d="M103.039 143.457L116.06 156.479L102.385 170.161L103.039 143.457Z" fill="#E07373"/>
<path d="M119.901 126.603L132.923 139.624L119.24 153.299L119.901 126.603Z" fill="#E07373"/>
<path d="M136.764 109.741L149.785 122.762L136.102 136.437L136.764 109.741Z" fill="#E07373"/>
<path d="M153.626 92.8784L166.639 105.9L152.964 119.582L153.626 92.8784Z" fill="#E07373"/>
<path d="M170.48 76.024L183.501 89.0453L169.827 102.72L170.48 76.024Z" fill="#E07373"/>
<path d="M187.343 59.1617L200.364 72.183L186.681 85.8577L187.343 59.1617Z" fill="#E07373"/>
<path d="M68.5095 210.086L81.5308 223.107L67.856 236.79L68.5095 210.086Z" fill="#E07373"/>
<path d="M85.3715 193.232L98.3928 206.245L84.7101 219.928L85.3715 193.232Z" fill="#E07373"/>
<path d="M102.234 176.369L115.247 189.391L101.573 203.065L102.234 176.369Z" fill="#E07373"/>
<path d="M119.088 159.507L132.11 172.528L118.435 186.211L119.088 159.507Z" fill="#E07373"/>
<path d="M135.951 142.653L148.972 155.666L135.289 169.349L135.951 142.653Z" fill="#E07373"/>
<path d="M152.813 125.79L165.826 138.812L152.152 152.486L152.813 125.79Z" fill="#E07373"/>
<path d="M169.667 108.928L182.689 121.949L169.014 135.624L169.667 108.928Z" fill="#E07373"/>
<path d="M186.53 92.0735L199.551 105.087L185.868 118.77L186.53 92.0735Z" fill="#E07373"/>
<path d="M84.5588 226.135L97.5801 239.157L83.8973 252.831L84.5588 226.135Z" fill="#E07373"/>
<path d="M101.421 209.273L114.443 222.294L100.76 235.977L101.421 209.273Z" fill="#E07373"/>
<path d="M118.276 192.419L131.297 205.44L117.622 219.115L118.276 192.419Z" fill="#E07373"/>
<path d="M135.138 175.556L148.159 188.578L134.476 202.252L135.138 175.556Z" fill="#E07373"/>
<path d="M152 158.694L165.021 171.715L151.339 185.398L152 158.694Z" fill="#E07373"/>
<path d="M168.854 141.84L181.876 154.861L168.201 168.536L168.854 141.84Z" fill="#E07373"/>
<path d="M185.717 124.977L198.738 137.999L185.063 151.673L185.717 124.977Z" fill="#E07373"/>
<path d="M117.471 225.323L130.484 238.344L116.809 252.027L117.471 225.323Z" fill="#E07373"/>
<path d="M134.325 208.468L147.346 221.482L133.671 235.164L134.325 208.468Z" fill="#E07373"/>
<path d="M151.187 191.606L164.208 204.627L150.526 218.302L151.187 191.606Z" fill="#E07373"/>
<path d="M168.05 174.744L181.063 187.765L167.388 201.448L168.05 174.744Z" fill="#E07373"/>
<path d="M184.904 157.889L197.925 170.903L184.251 184.585L184.904 157.889Z" fill="#E07373"/>
<path d="M150.374 224.51L163.396 237.531L149.713 251.214L150.374 224.51Z" fill="#E07373"/>
<path d="M167.237 207.655L180.258 220.677L166.575 234.351L167.237 207.655Z" fill="#E07373"/>
<path d="M184.091 190.793L197.112 203.814L183.438 217.489L184.091 190.793Z" fill="#E07373"/>
<path d="M183.286 223.705L196.3 236.718L182.625 250.401L183.286 223.705Z" fill="#E07373"/>
</g>
<mask id="mask2_394_19365" style="mask-type:luminance" maskUnits="userSpaceOnUse" x="191" y="43" width="74" height="144">
<path d="M195.104 43.6542L265 113.55L191.574 186.984L195.104 43.6542Z" fill="white"/>
</mask>
<g mask="url(#mask2_394_19365)">
<path d="M192.052 31.0632L200.141 39.1517L191.646 47.6546L192.052 31.0632Z" fill="#E07373"/>
<path d="M191.55 51.5116L199.639 59.6001L191.136 68.103L191.55 51.5116Z" fill="#E07373"/>
<path d="M202.029 41.0324L210.118 49.1288L201.615 57.6237L202.029 41.0324Z" fill="#E07373"/>
<path d="M212.5 30.5612L220.597 38.6497L212.094 47.1526L212.5 30.5612Z" fill="#E07373"/>
<path d="M191.04 71.96L199.136 80.0564L190.634 88.5514L191.04 71.96Z" fill="#E07373"/>
<path d="M201.519 61.4887L209.616 69.5772L201.113 78.0801L201.519 61.4887Z" fill="#E07373"/>
<path d="M211.998 51.0096L220.087 59.0981L211.592 67.601L211.998 51.0096Z" fill="#E07373"/>
<path d="M222.478 40.5304L230.566 48.6188L222.063 57.1218L222.478 40.5304Z" fill="#E07373"/>
<path d="M232.949 30.0511L241.046 38.1476L232.543 46.6425L232.949 30.0511Z" fill="#E07373"/>
<path d="M190.538 92.4163L198.626 100.505L190.132 109L190.538 92.4163Z" fill="#E07373"/>
<path d="M201.017 81.9371L209.106 90.0256L200.611 98.5285L201.017 81.9371Z" fill="#E07373"/>
<path d="M211.496 71.4579L219.585 79.5464L211.082 88.0493L211.496 71.4579Z" fill="#E07373"/>
<path d="M221.968 60.9787L230.064 69.0752L221.561 77.5701L221.968 60.9787Z" fill="#E07373"/>
<path d="M232.447 50.5075L240.535 58.596L232.04 67.0909L232.447 50.5075Z" fill="#E07373"/>
<path d="M242.926 40.0283L251.015 48.1168L242.52 56.6197L242.926 40.0283Z" fill="#E07373"/>
<path d="M253.405 29.5491L261.494 37.6376L252.991 46.1405L253.405 29.5491Z" fill="#E07373"/>
<path d="M190.036 112.865L198.125 120.953L189.63 129.456L190.036 112.865Z" fill="#E07373"/>
<path d="M200.515 102.385L208.604 110.474L200.101 118.977L200.515 102.385Z" fill="#E07373"/>
<path d="M210.987 91.9063L219.083 99.9948L210.58 108.498L210.987 91.9063Z" fill="#E07373"/>
<path d="M221.465 81.4271L229.554 89.5235L221.059 98.0184L221.465 81.4271Z" fill="#E07373"/>
<path d="M231.945 70.9559L240.033 79.0444L231.538 87.5473L231.945 70.9559Z" fill="#E07373"/>
<path d="M242.424 60.4767L250.512 68.5652L242.01 77.0681L242.424 60.4767Z" fill="#E07373"/>
<path d="M252.895 49.9975L260.992 58.0939L252.489 66.5888L252.895 49.9975Z" fill="#E07373"/>
<path d="M263.374 39.5183L271.463 47.6147L262.968 56.1097L263.374 39.5183Z" fill="#E07373"/>
<path d="M189.534 133.313L197.623 141.402L189.12 149.904L189.534 133.313Z" fill="#E07373"/>
<path d="M200.005 122.834L208.102 130.922L199.599 139.425L200.005 122.834Z" fill="#E07373"/>
<path d="M210.485 112.355L218.573 120.451L210.078 128.946L210.485 112.355Z" fill="#E07373"/>
<path d="M220.964 101.883L229.052 109.972L220.549 118.475L220.964 101.883Z" fill="#E07373"/>
<path d="M231.443 91.4042L239.531 99.4927L231.028 107.996L231.443 91.4042Z" fill="#E07373"/>
<path d="M241.914 80.925L250.01 89.0135L241.508 97.5164L241.914 80.925Z" fill="#E07373"/>
<path d="M252.393 70.4458L260.482 78.5423L251.987 87.0372L252.393 70.4458Z" fill="#E07373"/>
<path d="M262.872 59.9746L270.961 68.0631L262.458 76.566L262.872 59.9746Z" fill="#E07373"/>
<path d="M189.024 153.761L197.12 161.85L188.617 170.353L189.024 153.761Z" fill="#E07373"/>
<path d="M199.503 143.282L207.592 151.379L199.097 159.874L199.503 143.282Z" fill="#E07373"/>
<path d="M209.982 132.811L218.071 140.899L209.568 149.402L209.982 132.811Z" fill="#E07373"/>
<path d="M220.462 122.332L228.55 130.42L220.047 138.923L220.462 122.332Z" fill="#E07373"/>
<path d="M230.933 111.853L239.029 119.941L230.526 128.444L230.933 111.853Z" fill="#E07373"/>
<path d="M241.412 101.373L249.5 109.47L241.006 117.965L241.412 101.373Z" fill="#E07373"/>
<path d="M251.891 90.9021L259.979 98.9907L251.477 107.494L251.891 90.9021Z" fill="#E07373"/>
<path d="M262.37 80.423L270.459 88.5115L261.956 97.0144L262.37 80.423Z" fill="#E07373"/>
<path d="M188.522 174.21L196.61 182.306L188.115 190.801L188.522 174.21Z" fill="#E07373"/>
<path d="M199.001 163.739L207.09 171.827L198.587 180.322L199.001 163.739Z" fill="#E07373"/>
<path d="M209.472 153.259L217.569 161.348L209.066 169.851L209.472 153.259Z" fill="#E07373"/>
<path d="M219.952 142.78L228.048 150.869L219.545 159.372L219.952 142.78Z" fill="#E07373"/>
<path d="M230.431 132.301L238.519 140.397L230.024 148.892L230.431 132.301Z" fill="#E07373"/>
<path d="M240.91 121.83L248.999 129.918L240.496 138.413L240.91 121.83Z" fill="#E07373"/>
<path d="M251.381 111.351L259.478 119.439L250.975 127.942L251.381 111.351Z" fill="#E07373"/>
<path d="M261.86 100.871L269.949 108.96L261.454 117.463L261.86 100.871Z" fill="#E07373"/>
<path d="M198.491 184.187L206.588 192.275L198.085 200.778L198.491 184.187Z" fill="#E07373"/>
<path d="M208.97 173.708L217.059 181.796L208.564 190.299L208.97 173.708Z" fill="#E07373"/>
<path d="M219.45 163.229L227.538 171.325L219.043 179.82L219.45 163.229Z" fill="#E07373"/>
<path d="M229.929 152.749L238.017 160.846L229.514 169.341L229.929 152.749Z" fill="#E07373"/>
<path d="M240.4 142.278L248.496 150.367L239.993 158.869L240.4 142.278Z" fill="#E07373"/>
<path d="M250.879 131.799L258.968 139.887L250.473 148.39L250.879 131.799Z" fill="#E07373"/>
<path d="M261.358 121.32L269.447 129.416L260.952 137.911L261.358 121.32Z" fill="#E07373"/>
<path d="M218.947 183.677L227.036 191.773L218.533 200.268L218.947 183.677Z" fill="#E07373"/>
<path d="M229.419 173.206L237.515 181.294L229.012 189.797L229.419 173.206Z" fill="#E07373"/>
<path d="M239.898 162.726L247.986 170.815L239.491 179.318L239.898 162.726Z" fill="#E07373"/>
<path d="M250.377 152.247L258.466 160.336L249.963 168.839L250.377 152.247Z" fill="#E07373"/>
<path d="M260.856 141.768L268.945 149.865L260.442 158.359L260.856 141.768Z" fill="#E07373"/>
<path d="M239.396 183.175L247.484 191.263L238.981 199.766L239.396 183.175Z" fill="#E07373"/>
<path d="M249.875 172.696L257.964 180.792L249.461 189.287L249.875 172.696Z" fill="#E07373"/>
<path d="M260.346 162.224L268.443 170.313L259.94 178.816L260.346 162.224Z" fill="#E07373"/>
<path d="M259.844 182.673L267.933 190.761L259.438 199.264L259.844 182.673Z" fill="#E07373"/>
</g>
</g>
</svg>
