<?xml version="1.0" encoding="UTF-8" standalone="no"?>
<svg
   width="427.99954"
   height="763.99969"
   viewBox="0 0 427.99954 763.99969"
   fill="none"
   version="1.1"
   id="svg134"
   sodipodi:docname="Group 4063.svg"
   inkscape:version="1.4 (86a8ad7, 2024-10-11)"
   xmlns:inkscape="http://www.inkscape.org/namespaces/inkscape"
   xmlns:sodipodi="http://sodipodi.sourceforge.net/DTD/sodipodi-0.dtd"
   xmlns="http://www.w3.org/2000/svg"
   xmlns:svg="http://www.w3.org/2000/svg">
  <defs
     id="defs134" />
  <sodipodi:namedview
     id="namedview134"
     pagecolor="#ffffff"
     bordercolor="#000000"
     borderopacity="0.25"
     inkscape:showpageshadow="2"
     inkscape:pageopacity="0.0"
     inkscape:pagecheckerboard="0"
     inkscape:deskcolor="#d1d1d1"
     inkscape:zoom="1.4159682"
     inkscape:cx="132.41823"
     inkscape:cy="525.78866"
     inkscape:window-width="1920"
     inkscape:window-height="1009"
     inkscape:window-x="-8"
     inkscape:window-y="-8"
     inkscape:window-maximized="1"
     inkscape:current-layer="g68" />
  <path
     d="m 278.29956,699.2997 -0.1,0.2 -43.1,64.5 h 192.9 v -64.7 h -149.5 z"
     fill="#340201"
     id="path1" />
  <path
     d="m 134.29956,533.2997 0.1,-0.2 123,-184.2 h 170.6 V 0 H 0 v 533.2997 h 134.09956 z"
     fill="#340201"
     id="path2" />
  <path
     opacity="0.8"
     d="m 0,514.2727 h 123.73356 l 126.977,-190.273 h 177.279"
     stroke="#ffe6e4"
     id="path3" />
  <g
     opacity="0.2"
     id="g69"
     transform="translate(-0.692444,-41.6343)">
    <mask
       id="mask0_1349_2433"
       maskUnits="userSpaceOnUse"
       x="193"
       y="0"
       width="180"
       height="352">
      <path
         d="M 364.064,351.283 193.5,180.284 372.692,0.634277 Z"
         fill="#ffffff"
         id="path4" />
    </mask>
    <g
       mask="url(#mask0_1349_2433)"
       id="g68">
      <path
         d="m 371.52,382.093 -19.747,-19.796 20.738,-20.791 z"
         fill="#e95a56"
         id="path5" />
      <path
         d="M 372.753,332.067 353.006,312.27 373.744,291.468 Z"
         fill="#e95a56"
         id="path6" />
      <path
         d="m 347.182,357.692 -19.747,-19.785 20.75,-20.802 z"
         fill="#e95a56"
         id="path7" />
      <path
         d="m 321.61,383.328 -19.747,-19.796 20.75,-20.791 z"
         fill="#e95a56"
         id="path8" />
      <path
         d="m 373.973,282.03 -19.734,-19.797 20.737,-20.79 z"
         fill="#e95a56"
         id="path9" />
      <path
         d="M 348.414,307.667 328.667,287.87 349.405,267.08 Z"
         fill="#e95a56"
         id="path10" />
      <path
         d="m 322.843,333.304 -19.747,-19.797 20.75,-20.802 z"
         fill="#e95a56"
         id="path11" />
      <path
         d="m 297.271,358.928 -19.734,-19.796 20.738,-20.791 z"
         fill="#e95a56"
         id="path12" />
      <path
         d="m 271.712,384.564 -19.747,-19.797 20.738,-20.79 z"
         fill="#e95a56"
         id="path13" />
      <path
         d="M 375.206,232.005 355.46,212.208 376.209,191.406 Z"
         fill="#e95a56"
         id="path14" />
      <path
         d="M 349.647,257.63 329.9,237.845 350.637,217.043 Z"
         fill="#e95a56"
         id="path15" />
      <path
         d="m 324.075,283.266 -19.746,-19.797 20.749,-20.79 z"
         fill="#e95a56"
         id="path16" />
      <path
         d="m 298.504,308.902 -19.747,-19.796 20.75,-20.803 z"
         fill="#e95a56"
         id="path17" />
      <path
         d="M 272.945,334.527 253.198,314.742 273.936,293.94 Z"
         fill="#e95a56"
         id="path18" />
      <path
         d="m 247.373,360.163 -19.746,-19.797 20.75,-20.79 z"
         fill="#e95a56"
         id="path19" />
      <path
         d="m 221.802,385.801 -19.747,-19.797 20.75,-20.79 z"
         fill="#e95a56"
         id="path20" />
      <path
         d="m 376.439,181.967 -19.746,-19.797 20.75,-20.791 z"
         fill="#e95a56"
         id="path21" />
      <path
         d="m 350.867,207.604 -19.734,-19.797 20.737,-20.79 z"
         fill="#e95a56"
         id="path22" />
      <path
         d="m 325.308,233.24 -19.746,-19.797 20.737,-20.802 z"
         fill="#e95a56"
         id="path23" />
      <path
         d="M 299.737,258.865 279.99,239.069 300.74,218.278 Z"
         fill="#e95a56"
         id="path24" />
      <path
         d="m 274.165,284.502 -19.734,-19.797 20.737,-20.79 z"
         fill="#e95a56"
         id="path25" />
      <path
         d="m 248.606,310.138 -19.747,-19.797 20.738,-20.802 z"
         fill="#e95a56"
         id="path26" />
      <path
         d="m 223.035,335.762 -19.747,-19.797 20.75,-20.79 z"
         fill="#e95a56"
         id="path27" />
      <path
         d="m 197.463,361.399 -19.734,-19.797 20.737,-20.79 z"
         fill="#e95a56"
         id="path28" />
      <path
         d="M 377.671,131.943 357.925,112.146 378.674,91.3438 Z"
         fill="#e95a56"
         id="path29" />
      <path
         d="m 352.1,157.567 -19.734,-19.785 20.737,-20.803 z"
         fill="#e95a56"
         id="path30" />
      <path
         d="m 326.541,183.204 -19.747,-19.797 20.738,-20.79 z"
         fill="#e95a56"
         id="path31" />
      <path
         d="m 300.969,208.84 -19.746,-19.796 20.749,-20.803 z"
         fill="#e95a56"
         id="path32" />
      <path
         d="m 275.398,234.465 -19.747,-19.785 20.75,-20.803 z"
         fill="#e95a56"
         id="path33" />
      <path
         d="m 249.839,260.101 -19.747,-19.797 20.738,-20.79 z"
         fill="#e95a56"
         id="path34" />
      <path
         d="M 224.267,285.737 204.521,265.94 225.27,245.149 Z"
         fill="#e95a56"
         id="path35" />
      <path
         d="M 198.696,311.361 178.95,291.576 199.699,270.774 Z"
         fill="#e95a56"
         id="path36" />
      <path
         d="M 378.904,81.9065 359.157,62.1096 379.907,41.3193 Z"
         fill="#e95a56"
         id="path37" />
      <path
         d="M 353.332,107.542 333.586,87.7449 354.335,66.9546 Z"
         fill="#e95a56"
         id="path38" />
      <path
         d="M 327.773,133.178 308.027,113.381 328.764,92.5786 Z"
         fill="#e95a56"
         id="path39" />
      <path
         d="m 302.202,158.802 -19.746,-19.796 20.749,-20.791 z"
         fill="#e95a56"
         id="path40" />
      <path
         d="m 276.631,184.439 -19.747,-19.797 20.75,-20.79 z"
         fill="#e95a56"
         id="path41" />
      <path
         d="m 251.059,210.075 -19.734,-19.797 20.737,-20.802 z"
         fill="#e95a56"
         id="path42" />
      <path
         d="m 225.5,235.7 -19.747,-19.796 20.738,-20.791 z"
         fill="#e95a56"
         id="path43" />
      <path
         d="m 199.929,261.337 -19.747,-19.797 20.75,-20.79 z"
         fill="#e95a56"
         id="path44" />
      <path
         d="M 380.137,31.8795 266.10822,11.376469 381.128,-8.71973 Z"
         fill="#e95a56"
         id="path45"
         sodipodi:nodetypes="cccc" />
      <path
         d="M 328.994,83.1408 309.259,63.344 329.997,42.5537 Z"
         fill="#e95a56"
         id="path47" />
      <path
         d="M 303.434,108.777 283.688,88.9806 304.425,68.1782 Z"
         fill="#e95a56"
         id="path48" />
      <path
         d="M 277.863,134.402 258.117,114.617 278.866,93.8149 Z"
         fill="#e95a56"
         id="path49" />
      <path
         d="m 252.292,160.038 -19.735,-19.797 20.738,-20.79 z"
         fill="#e95a56"
         id="path50" />
      <path
         d="m 226.732,185.675 -19.746,-19.797 20.737,-20.791 z"
         fill="#e95a56"
         id="path51" />
      <path
         d="m 201.161,211.3 -19.746,-19.785 20.749,-20.802 z"
         fill="#e95a56"
         id="path52" />
      <path
         d="m 355.798,7.47923 -19.747,-19.79683 20.75,-20.7903 z"
         fill="#e95a56"
         id="path53" />
      <path
         d="M 330.227,33.1154 310.48,13.3185 331.23,-7.48389 Z"
         fill="#e95a56"
         id="path54" />
      <path
         d="M 304.667,58.74 284.921,38.9431 305.658,18.1528 Z"
         fill="#e95a56"
         id="path55" />
      <path
         d="M 279.096,84.3772 259.349,64.5803 280.099,43.79 Z"
         fill="#e95a56"
         id="path56" />
      <path
         d="M 253.524,110.014 233.778,90.2169 254.527,69.4146 Z"
         fill="#e95a56"
         id="path57" />
      <path
         d="M 227.965,135.637 208.219,115.841 228.956,95.0503 Z"
         fill="#e95a56"
         id="path58" />
      <path
         d="m 202.394,161.274 -19.747,-19.797 20.738,-20.79 z"
         fill="#e95a56"
         id="path59" />
      <path
         d="M 305.888,8.71547 286.153,-11.0814 306.891,-31.8838 Z"
         fill="#e95a56"
         id="path60" />
      <path
         d="M 280.328,34.3396 260.582,14.5549 281.319,-6.24756 Z"
         fill="#e95a56"
         id="path61" />
      <path
         d="M 254.757,59.9758 235.011,40.179 255.76,19.3887 Z"
         fill="#e95a56"
         id="path62" />
      <path
         d="M 229.186,85.6124 209.451,65.8156 230.189,45.0132 Z"
         fill="#e95a56"
         id="path63" />
      <path
         d="M 203.626,111.238 183.88,91.4528 204.617,70.6504 Z"
         fill="#e95a56"
         id="path64" />
      <path
         d="M 255.99,9.9503 236.243,-9.84653 256.993,-30.6489 Z"
         fill="#e95a56"
         id="path65" />
      <path
         d="M 230.418,35.5754 210.672,15.7786 231.421,-5.01172 Z"
         fill="#e95a56"
         id="path66" />
      <path
         d="M 204.859,61.2116 185.113,41.4148 205.85,20.6245 Z"
         fill="#e95a56"
         id="path67" />
      <path
         d="M 206.079,11.1745 186.345,-8.61016 207.082,-29.4126 Z"
         fill="#e95a56"
         id="path68" />
    </g>
  </g>
  <g
     opacity="0.2"
     id="g134"
     transform="translate(-0.692444,-41.6343)">
    <mask
       id="mask1_1349_2433"
       maskUnits="userSpaceOnUse"
       x="72"
       y="67"
       width="113"
       height="219">
      <path
         d="M 178.688,285.617 72.6924,179.351 184.041,67.7061 Z"
         fill="#ffffff"
         id="path69" />
    </mask>
    <g
       mask="url(#mask1_1349_2433)"
       id="g133">
      <path
         d="m 183.317,304.759 -12.278,-12.297 12.894,-12.927 z"
         fill="#e95a56"
         id="path70" />
      <path
         d="m 184.078,273.67 -12.266,-12.297 12.882,-12.928 z"
         fill="#e95a56"
         id="path71" />
      <path
         d="M 168.186,289.603 155.92,277.294 168.815,264.378 Z"
         fill="#e95a56"
         id="path72" />
      <path
         d="m 152.307,305.521 -12.278,-12.297 12.894,-12.927 z"
         fill="#e95a56"
         id="path73" />
      <path
         d="m 184.839,242.582 -12.266,-12.31 12.895,-12.915 z"
         fill="#e95a56"
         id="path74" />
      <path
         d="m 168.96,258.501 -12.278,-12.297 12.894,-12.927 z"
         fill="#e95a56"
         id="path75" />
      <path
         d="m 153.068,274.434 -12.266,-12.297 12.883,-12.928 z"
         fill="#e95a56"
         id="path76" />
      <path
         d="m 137.177,290.366 -12.266,-12.298 12.883,-12.927 z"
         fill="#e95a56"
         id="path77" />
      <path
         d="M 121.286,306.297 109.02,293.988 121.914,281.073 Z"
         fill="#e95a56"
         id="path78" />
      <path
         d="M 185.613,211.482 173.335,199.185 186.229,186.27 Z"
         fill="#e95a56"
         id="path79" />
      <path
         d="m 169.721,227.413 -12.266,-12.297 12.883,-12.928 z"
         fill="#e95a56"
         id="path80" />
      <path
         d="m 153.83,243.345 -12.266,-12.297 12.894,-12.927 z"
         fill="#e95a56"
         id="path81" />
      <path
         d="m 137.938,259.277 -12.266,-12.31 12.895,-12.915 z"
         fill="#e95a56"
         id="path82" />
      <path
         d="M 122.059,275.197 109.781,262.9 122.675,249.984 Z"
         fill="#e95a56"
         id="path83" />
      <path
         d="M 106.167,291.129 93.9012,278.832 106.784,265.905 Z"
         fill="#e95a56"
         id="path84" />
      <path
         d="M 90.276,307.062 78.0099,294.764 90.9044,281.837 Z"
         fill="#e95a56"
         id="path85" />
      <path
         d="M 186.374,180.393 174.108,168.095 186.99,155.168 Z"
         fill="#e95a56"
         id="path86" />
      <path
         d="m 170.482,196.326 -12.266,-12.298 12.895,-12.927 z"
         fill="#e95a56"
         id="path87" />
      <path
         d="M 154.591,212.256 142.325,199.959 155.22,187.031 Z"
         fill="#e95a56"
         id="path88" />
      <path
         d="m 138.712,228.188 -12.278,-12.309 12.894,-12.915 z"
         fill="#e95a56"
         id="path89" />
      <path
         d="m 122.82,244.109 -12.266,-12.297 12.883,-12.928 z"
         fill="#e95a56"
         id="path90" />
      <path
         d="M 106.929,260.04 94.6625,247.743 107.557,234.815 Z"
         fill="#e95a56"
         id="path91" />
      <path
         d="M 91.0372,275.972 78.7712,263.663 91.6656,250.748 Z"
         fill="#e95a56"
         id="path92" />
      <path
         d="M 75.1579,291.905 62.8798,279.596 75.7743,266.681 Z"
         fill="#e95a56"
         id="path93" />
      <path
         d="m 187.135,149.304 -12.266,-12.298 12.895,-12.927 z"
         fill="#e95a56"
         id="path94" />
      <path
         d="m 171.256,165.236 -12.278,-12.297 12.894,-12.928 z"
         fill="#e95a56"
         id="path95" />
      <path
         d="M 155.364,181.169 143.086,168.86 155.981,155.945 Z"
         fill="#e95a56"
         id="path96" />
      <path
         d="m 139.473,197.088 -12.266,-12.297 12.882,-12.928 z"
         fill="#e95a56"
         id="path97" />
      <path
         d="M 123.582,213.02 111.316,200.723 124.21,187.795 Z"
         fill="#e95a56"
         id="path98" />
      <path
         d="M 107.702,228.951 95.4241,216.653 108.319,203.726 Z"
         fill="#e95a56"
         id="path99" />
      <path
         d="M 91.8107,244.884 79.5326,232.574 92.4271,219.659 Z"
         fill="#e95a56"
         id="path100" />
      <path
         d="M 75.9192,260.803 63.6531,248.505 76.5355,235.578 Z"
         fill="#e95a56"
         id="path101" />
      <path
         d="M 187.908,118.215 175.63,105.918 188.525,92.9907 Z"
         fill="#e95a56"
         id="path102" />
      <path
         d="m 172.017,134.147 -12.266,-12.309 12.882,-12.915 z"
         fill="#e95a56"
         id="path103" />
      <path
         d="M 156.126,150.067 143.86,137.77 156.742,124.843 Z"
         fill="#e95a56"
         id="path104" />
      <path
         d="m 140.234,165.999 -12.266,-12.297 12.895,-12.928 z"
         fill="#e95a56"
         id="path105" />
      <path
         d="m 124.355,181.931 -12.278,-12.297 12.894,-12.927 z"
         fill="#e95a56"
         id="path106" />
      <path
         d="M 108.464,197.863 96.1975,185.553 109.08,172.638 Z"
         fill="#e95a56"
         id="path107" />
      <path
         d="M 92.5719,213.783 80.3059,201.485 93.1883,188.558 Z"
         fill="#e95a56"
         id="path108" />
      <path
         d="M 76.6805,229.715 64.4145,217.418 77.3089,204.49 Z"
         fill="#e95a56"
         id="path109" />
      <path
         d="M 188.67,87.127 176.404,74.8175 189.286,61.9023 Z"
         fill="#e95a56"
         id="path110" />
      <path
         d="M 172.778,103.047 160.512,90.7497 173.395,77.8345 Z"
         fill="#e95a56"
         id="path111" />
      <path
         d="M 156.887,118.978 144.621,106.681 157.515,93.7539 Z"
         fill="#e95a56"
         id="path112" />
      <path
         d="m 141.008,134.912 -12.279,-12.297 12.895,-12.927 z"
         fill="#e95a56"
         id="path113" />
      <path
         d="m 125.116,150.843 -12.266,-12.31 12.882,-12.915 z"
         fill="#e95a56"
         id="path114" />
      <path
         d="M 109.225,166.763 96.959,154.466 109.853,141.551 Z"
         fill="#e95a56"
         id="path115" />
      <path
         d="M 93.3334,182.694 81.0673,170.397 93.9617,157.47 Z"
         fill="#e95a56"
         id="path116" />
      <path
         d="M 77.4537,198.627 65.1755,186.33 78.07,173.403 Z"
         fill="#e95a56"
         id="path117" />
      <path
         d="M 173.54,71.9585 161.274,59.6612 174.168,46.7339 Z"
         fill="#e95a56"
         id="path118" />
      <path
         d="M 157.66,87.8911 145.382,75.5938 158.277,62.6665 Z"
         fill="#e95a56"
         id="path119" />
      <path
         d="M 141.769,103.822 129.503,91.5128 142.385,78.5977 Z"
         fill="#e95a56"
         id="path120" />
      <path
         d="M 125.877,119.754 113.611,107.445 126.506,94.5298 Z"
         fill="#e95a56"
         id="path121" />
      <path
         d="M 109.986,135.673 97.7202,123.376 110.615,110.449 Z"
         fill="#e95a56"
         id="path122" />
      <path
         d="M 94.1066,151.606 81.8285,139.309 94.723,126.382 Z"
         fill="#e95a56"
         id="path123" />
      <path
         d="M 78.2152,167.538 65.9492,155.229 78.8316,142.313 Z"
         fill="#e95a56"
         id="path124" />
      <path
         d="M 142.53,72.7334 130.264,60.424 143.159,47.5088 Z"
         fill="#e95a56"
         id="path125" />
      <path
         d="M 126.651,88.6533 114.373,76.356 127.267,63.4287 Z"
         fill="#e95a56"
         id="path126" />
      <path
         d="M 110.76,104.585 98.4815,92.2881 111.376,79.3608 Z"
         fill="#e95a56"
         id="path127" />
      <path
         d="M 94.8682,120.517 82.6022,108.22 95.4845,95.2925 Z"
         fill="#e95a56"
         id="path128" />
      <path
         d="M 78.9767,136.45 66.7106,124.14 79.6051,111.225 Z"
         fill="#e95a56"
         id="path129" />
      <path
         d="M 111.521,73.4971 99.2548,61.1997 112.137,48.2725 Z"
         fill="#e95a56"
         id="path130" />
      <path
         d="M 95.6297,89.4292 83.3637,77.1198 96.2581,64.2046 Z"
         fill="#e95a56"
         id="path131" />
      <path
         d="M 79.7499,105.349 67.4718,93.0513 80.3662,80.124 Z"
         fill="#e95a56"
         id="path132" />
      <path
         d="M 80.5113,74.2602 68.2452,61.9629 81.1276,49.0356 Z"
         fill="#e95a56"
         id="path133" />
    </g>
  </g>
</svg>
