<svg width="1440" height="468" viewBox="0 0 1440 468" fill="none" xmlns="http://www.w3.org/2000/svg">
<g clip-path="url(#clip0_956_3604)">
<path d="M852.1 0V468H1440V0H852.1ZM1057 416.4L854.6 234L1057 51.6V416.4ZM1264 416.4L1061.6 234L1264 51.6V416.4Z" fill="#340201"/>
<path d="M852.1 0H0V468H852.1L592 234L852.1 0ZM379.4 416.4L177 234L379.4 51.6V416.4ZM588.4 416.4L386 234L588.4 51.6V416.4Z" fill="#340201"/>
<path opacity="0.4" d="M837.6 466.9L578.8 234L837.6 1.1001V466.9ZM1042.5 415.3L841.4 234L1042.5 52.7001V415.3ZM573.9 415.3L372.8 234L573.9 52.7001V415.3ZM1249.5 415.3L1048.4 234L1249.5 52.7001V415.3ZM364.9 415.3L163.8 234L364.9 52.7001V415.3Z" stroke="#E07373"/>
<g opacity="0.2">
<path d="M1439.5 318.6L1431.4 310.5L1439.9 302L1439.5 318.6Z" fill="#E07373"/>
<path d="M1440 298.1L1431.9 290L1440.4 281.5L1440 298.1Z" fill="#E07373"/>
<path d="M1429.5 308.6L1421.4 300.5L1429.9 292L1429.5 308.6Z" fill="#E07373"/>
<path d="M1419.1 319.1L1411 311L1419.5 302.5L1419.1 319.1Z" fill="#E07373"/>
<path d="M1440.5 277.7L1432.4 269.6L1440.9 261.1L1440.5 277.7Z" fill="#E07373"/>
<path d="M1430.1 288.1L1422 280L1430.5 271.5L1430.1 288.1Z" fill="#E07373"/>
<path d="M1419.6 298.6L1411.5 290.5L1420 282L1419.6 298.6Z" fill="#E07373"/>
<path d="M1409.1 309.1L1401 301L1409.5 292.5L1409.1 309.1Z" fill="#E07373"/>
<path d="M1398.6 319.6L1390.5 311.5L1399 303L1398.6 319.6Z" fill="#E07373"/>
<path d="M1441 257.2L1432.9 249.1L1441.4 240.6L1441 257.2Z" fill="#E07373"/>
<path d="M1430.6 267.7L1422.5 259.6L1431 251.1L1430.6 267.7Z" fill="#E07373"/>
<path d="M1420.1 278.2L1412 270.1L1420.5 261.6L1420.1 278.2Z" fill="#E07373"/>
<path d="M1409.6 288.7L1401.5 280.6L1410 272.1L1409.6 288.7Z" fill="#E07373"/>
<path d="M1399.1 299.1L1391 291L1399.5 282.5L1399.1 299.1Z" fill="#E07373"/>
<path d="M1388.7 309.6L1380.6 301.5L1389.1 293L1388.7 309.6Z" fill="#E07373"/>
<path d="M1378.2 320.1L1370.1 312L1378.6 303.5L1378.2 320.1Z" fill="#E07373"/>
<path d="M1441.5 236.8L1433.4 228.7L1441.9 220.2L1441.5 236.8Z" fill="#E07373"/>
<path d="M1431.1 247.3L1423 239.2L1431.5 230.7L1431.1 247.3Z" fill="#E07373"/>
<path d="M1420.6 257.7L1412.5 249.6L1421 241.1L1420.6 257.7Z" fill="#E07373"/>
<path d="M1410.1 268.2L1402 260.1L1410.5 251.6L1410.1 268.2Z" fill="#E07373"/>
<path d="M1399.6 278.7L1391.5 270.6L1400 262.1L1399.6 278.7Z" fill="#E07373"/>
<path d="M1389.2 289.2L1381.1 281.1L1389.6 272.6L1389.2 289.2Z" fill="#E07373"/>
<path d="M1378.7 299.6L1370.6 291.5L1379.1 283L1378.7 299.6Z" fill="#E07373"/>
<path d="M1368.2 310.1L1360.1 302L1368.6 293.5L1368.2 310.1Z" fill="#E07373"/>
<path d="M1442 216.3L1433.9 208.2L1442.4 199.7L1442 216.3Z" fill="#E07373"/>
<path d="M1431.6 226.8L1423.5 218.7L1432 210.2L1431.6 226.8Z" fill="#E07373"/>
<path d="M1421.1 237.3L1413 229.2L1421.5 220.7L1421.1 237.3Z" fill="#E07373"/>
<path d="M1410.6 247.8L1402.5 239.7L1411 231.2L1410.6 247.8Z" fill="#E07373"/>
<path d="M1400.1 258.2L1392 250.1L1400.5 241.6L1400.1 258.2Z" fill="#E07373"/>
<path d="M1389.7 268.7L1381.6 260.6L1390.1 252.1L1389.7 268.7Z" fill="#E07373"/>
<path d="M1379.2 279.2L1371.1 271.1L1379.6 262.6L1379.2 279.2Z" fill="#E07373"/>
<path d="M1368.7 289.7L1360.6 281.6L1369.1 273.1L1368.7 289.7Z" fill="#E07373"/>
<path d="M1442.6 195.9L1434.5 187.8L1443 179.3L1442.6 195.9Z" fill="#E07373"/>
<path d="M1432.1 206.4L1424 198.3L1432.5 189.8L1432.1 206.4Z" fill="#E07373"/>
<path d="M1421.6 216.8L1413.5 208.7L1422 200.2L1421.6 216.8Z" fill="#E07373"/>
<path d="M1411.1 227.3L1403 219.2L1411.5 210.7L1411.1 227.3Z" fill="#E07373"/>
<path d="M1400.6 237.8L1392.5 229.7L1401 221.2L1400.6 237.8Z" fill="#E07373"/>
<path d="M1390.2 248.3L1382.1 240.2L1390.6 231.7L1390.2 248.3Z" fill="#E07373"/>
<path d="M1379.7 258.7L1371.6 250.6L1380.1 242.1L1379.7 258.7Z" fill="#E07373"/>
<path d="M1369.2 269.2L1361.1 261.1L1369.6 252.6L1369.2 269.2Z" fill="#E07373"/>
<path d="M1443.1 175.4L1435 167.3L1443.5 158.8L1443.1 175.4Z" fill="#E07373"/>
<path d="M1432.6 185.9L1424.5 177.8L1433 169.3L1432.6 185.9Z" fill="#E07373"/>
<path d="M1422.1 196.4L1414 188.3L1422.5 179.8L1422.1 196.4Z" fill="#E07373"/>
<path d="M1411.6 206.9L1403.5 198.8L1412 190.3L1411.6 206.9Z" fill="#E07373"/>
<path d="M1401.1 217.3L1393 209.2L1401.5 200.7L1401.1 217.3Z" fill="#E07373"/>
<path d="M1390.7 227.8L1382.6 219.7L1391.1 211.2L1390.7 227.8Z" fill="#E07373"/>
<path d="M1380.2 238.3L1372.1 230.2L1380.6 221.7L1380.2 238.3Z" fill="#E07373"/>
<path d="M1369.7 248.8L1361.6 240.7L1370.1 232.2L1369.7 248.8Z" fill="#E07373"/>
<path d="M1433.1 165.5L1425 157.4L1433.5 148.9L1433.1 165.5Z" fill="#E07373"/>
<path d="M1422.6 175.9L1414.5 167.8L1423 159.3L1422.6 175.9Z" fill="#E07373"/>
<path d="M1412.1 186.4L1404 178.3L1412.5 169.8L1412.1 186.4Z" fill="#E07373"/>
<path d="M1401.7 196.9L1393.6 188.8L1402.1 180.3L1401.7 196.9Z" fill="#E07373"/>
<path d="M1391.2 207.4L1383.1 199.3L1391.6 190.8L1391.2 207.4Z" fill="#E07373"/>
<path d="M1380.7 217.8L1372.6 209.7L1381.1 201.2L1380.7 217.8Z" fill="#E07373"/>
<path d="M1370.2 228.3L1362.1 220.2L1370.6 211.7L1370.2 228.3Z" fill="#E07373"/>
<path d="M1412.6 166L1404.5 157.9L1413 149.4L1412.6 166Z" fill="#E07373"/>
<path d="M1402.2 176.4L1394.1 168.3L1402.6 159.8L1402.2 176.4Z" fill="#E07373"/>
<path d="M1391.7 186.9L1383.6 178.8L1392.1 170.3L1391.7 186.9Z" fill="#E07373"/>
<path d="M1381.2 197.4L1373.1 189.3L1381.6 180.8L1381.2 197.4Z" fill="#E07373"/>
<path d="M1370.7 207.9L1362.6 199.8L1371.1 191.3L1370.7 207.9Z" fill="#E07373"/>
<path d="M1392.2 166.5L1384.1 158.4L1392.6 149.9L1392.2 166.5Z" fill="#E07373"/>
<path d="M1381.7 176.9L1373.6 168.8L1382.1 160.3L1381.7 176.9Z" fill="#E07373"/>
<path d="M1371.2 187.4L1363.1 179.3L1371.6 170.8L1371.2 187.4Z" fill="#E07373"/>
<path d="M1371.7 167L1363.6 158.9L1372.1 150.4L1371.7 167Z" fill="#E07373"/>
<path d="M1365.8 369.9L1352.8 356.9L1366.5 343.2L1365.9 369.9H1365.8Z" fill="#E07373"/>
<path d="M1366.6 337L1353.6 324L1367.3 310.3L1366.6 337Z" fill="#E07373"/>
<path d="M1349.8 353.9L1336.8 340.9L1350.5 327.2L1349.8 353.9Z" fill="#E07373"/>
<path d="M1332.9 370.7L1319.9 357.7L1333.6 344L1332.9 370.7Z" fill="#E07373"/>
<path d="M1367.4 304.1L1354.4 291.1L1368.1 277.4L1367.4 304.1Z" fill="#E07373"/>
<path d="M1350.6 321L1337.6 308L1351.3 294.3L1350.6 321Z" fill="#E07373"/>
<path d="M1333.7 337.8L1320.7 324.8L1334.4 311.1L1333.7 337.8Z" fill="#E07373"/>
<path d="M1316.8 354.7L1303.8 341.7L1317.5 328L1316.8 354.7Z" fill="#E07373"/>
<path d="M1300 371.5L1287 358.5L1300.7 344.8L1300 371.5Z" fill="#E07373"/>
<path d="M1368.2 271.2L1355.2 258.2L1368.9 244.5L1368.2 271.2Z" fill="#E07373"/>
<path d="M1351.4 288L1338.4 275L1352.1 261.3L1351.4 288Z" fill="#E07373"/>
<path d="M1334.5 304.9L1321.5 291.9L1335.2 278.2L1334.5 304.9Z" fill="#E07373"/>
<path d="M1317.7 321.8L1304.7 308.8L1318.4 295.1L1317.7 321.8Z" fill="#E07373"/>
<path d="M1300.8 338.6L1287.8 325.6L1301.5 311.9L1300.9 338.6H1300.8Z" fill="#E07373"/>
<path d="M1283.9 355.5L1270.9 342.5L1284.6 328.8L1283.9 355.5Z" fill="#E07373"/>
<path d="M1267.1 372.3L1254.1 359.3L1267.8 345.6L1267.1 372.3Z" fill="#E07373"/>
<path d="M1369.1 238.3L1356.1 225.3L1369.8 211.6L1369.1 238.3Z" fill="#E07373"/>
<path d="M1352.2 255.1L1339.2 242.1L1352.9 228.4L1352.2 255.1Z" fill="#E07373"/>
<path d="M1335.3 272L1322.3 259L1336 245.3L1335.3 272Z" fill="#E07373"/>
<path d="M1318.5 288.9L1305.5 275.9L1319.2 262.2L1318.5 288.9Z" fill="#E07373"/>
<path d="M1301.6 305.7L1288.6 292.7L1302.3 279L1301.6 305.7Z" fill="#E07373"/>
<path d="M1284.8 322.6L1271.8 309.6L1285.5 295.9L1284.8 322.6Z" fill="#E07373"/>
<path d="M1267.9 339.4L1254.9 326.4L1268.6 312.7L1267.9 339.4Z" fill="#E07373"/>
<path d="M1251 356.3L1238 343.3L1251.7 329.6L1251 356.3Z" fill="#E07373"/>
<path d="M1369.9 205.4L1356.9 192.4L1370.6 178.7L1369.9 205.4Z" fill="#E07373"/>
<path d="M1353 222.2L1340 209.2L1353.7 195.5L1353 222.2Z" fill="#E07373"/>
<path d="M1336.2 239.1L1323.2 226.1L1336.9 212.4L1336.2 239.1Z" fill="#E07373"/>
<path d="M1319.3 255.9L1306.3 242.9L1320 229.2L1319.3 255.9Z" fill="#E07373"/>
<path d="M1302.4 272.8L1289.4 259.8L1303.1 246.1L1302.4 272.8Z" fill="#E07373"/>
<path d="M1285.6 289.7L1272.6 276.7L1286.3 263L1285.6 289.7Z" fill="#E07373"/>
<path d="M1268.7 306.5L1255.7 293.5L1269.4 279.8L1268.7 306.5Z" fill="#E07373"/>
<path d="M1251.8 323.4L1238.8 310.4L1252.5 296.7L1251.8 323.4Z" fill="#E07373"/>
<path d="M1370.7 172.5L1357.7 159.5L1371.4 145.8L1370.7 172.5Z" fill="#E07373"/>
<path d="M1353.8 189.3L1340.8 176.3L1354.5 162.6L1353.8 189.3Z" fill="#E07373"/>
<path d="M1337 206.2L1324 193.2L1337.7 179.5L1337 206.2Z" fill="#E07373"/>
<path d="M1320.1 223L1307.1 210L1320.8 196.3L1320.1 223Z" fill="#E07373"/>
<path d="M1303.2 239.9L1290.2 226.9L1303.9 213.2L1303.2 239.9Z" fill="#E07373"/>
<path d="M1286.4 256.8L1273.4 243.8L1287.1 230.1L1286.4 256.8Z" fill="#E07373"/>
<path d="M1269.5 273.6L1256.5 260.6L1270.2 246.9L1269.5 273.6Z" fill="#E07373"/>
<path d="M1252.7 290.5L1239.7 277.5L1253.4 263.8L1252.7 290.5Z" fill="#E07373"/>
<path d="M1371.5 139.6L1358.5 126.6L1372.2 112.9L1371.5 139.6Z" fill="#E07373"/>
<path d="M1354.6 156.4L1341.6 143.4L1355.3 129.7L1354.6 156.4Z" fill="#E07373"/>
<path d="M1337.8 173.3L1324.8 160.3L1338.5 146.6L1337.8 173.3Z" fill="#E07373"/>
<path d="M1320.9 190.1L1307.9 177.1L1321.6 163.4L1320.9 190.1Z" fill="#E07373"/>
<path d="M1304.1 207L1291.1 194L1304.8 180.3L1304.1 207Z" fill="#E07373"/>
<path d="M1287.2 223.8L1274.2 210.8L1287.9 197.1L1287.2 223.8Z" fill="#E07373"/>
<path d="M1270.3 240.7L1257.3 227.7L1271 214L1270.3 240.7Z" fill="#E07373"/>
<path d="M1253.5 257.6L1240.5 244.6L1254.2 230.9L1253.5 257.6Z" fill="#E07373"/>
<path d="M1355.4 123.5L1342.4 110.5L1356.1 96.8L1355.4 123.5Z" fill="#E07373"/>
<path d="M1338.6 140.4L1325.6 127.4L1339.3 113.7L1338.6 140.4Z" fill="#E07373"/>
<path d="M1321.7 157.2L1308.7 144.2L1322.4 130.5L1321.7 157.2Z" fill="#E07373"/>
<path d="M1304.9 174.1L1291.9 161.1L1305.6 147.4L1304.9 174.1Z" fill="#E07373"/>
<path d="M1288 190.9L1275 177.9L1288.7 164.2L1288 190.9Z" fill="#E07373"/>
<path d="M1271.2 207.8L1258.2 194.8L1271.9 181.1L1271.2 207.8Z" fill="#E07373"/>
<path d="M1254.3 224.7L1241.3 211.7L1255 198L1254.3 224.7Z" fill="#E07373"/>
<path d="M1322.5 124.3L1309.5 111.3L1323.2 97.6001L1322.5 124.3Z" fill="#E07373"/>
<path d="M1305.7 141.2L1292.7 128.2L1306.4 114.5L1305.7 141.2Z" fill="#E07373"/>
<path d="M1288.8 158L1275.8 145L1289.5 131.3L1288.8 158Z" fill="#E07373"/>
<path d="M1271.9 174.9L1258.9 161.9L1272.6 148.2L1271.9 174.9Z" fill="#E07373"/>
<path d="M1255.1 191.7L1242.1 178.7L1255.8 165L1255.1 191.7Z" fill="#E07373"/>
<path d="M1289.6 125.1L1276.6 112.1L1290.3 98.4001L1289.6 125.1Z" fill="#E07373"/>
<path d="M1272.8 142L1259.8 129L1273.5 115.3L1272.8 142Z" fill="#E07373"/>
<path d="M1255.9 158.8L1242.9 145.8L1256.6 132.1L1255.9 158.8Z" fill="#E07373"/>
<path d="M1256.7 125.9L1243.7 112.9L1257.4 99.2L1256.7 125.9Z" fill="#E07373"/>
<path d="M1247.9 318.6L1239.8 310.5L1248.3 302L1247.9 318.6Z" fill="#E07373"/>
<path d="M1248.4 298.1L1240.3 290L1248.8 281.5L1248.4 298.1Z" fill="#E07373"/>
<path d="M1238 308.6L1229.9 300.5L1238.4 292L1238 308.6Z" fill="#E07373"/>
<path d="M1227.5 319.1L1219.4 311L1227.9 302.5L1227.5 319.1Z" fill="#E07373"/>
<path d="M1249 277.7L1240.9 269.6L1249.4 261.1L1249 277.7Z" fill="#E07373"/>
<path d="M1238.5 288.1L1230.4 280L1238.9 271.5L1238.5 288.1Z" fill="#E07373"/>
<path d="M1228 298.6L1219.9 290.5L1228.4 282L1228 298.6Z" fill="#E07373"/>
<path d="M1217.5 309.1L1209.4 301L1217.9 292.5L1217.5 309.1Z" fill="#E07373"/>
<path d="M1207.1 319.6L1199 311.5L1207.5 303L1207.1 319.6Z" fill="#E07373"/>
<path d="M1249.5 257.2L1241.4 249.1L1249.9 240.6L1249.5 257.2Z" fill="#E07373"/>
<path d="M1239 267.7L1230.9 259.6L1239.4 251.1L1239 267.7Z" fill="#E07373"/>
<path d="M1228.5 278.2L1220.4 270.1L1228.9 261.6L1228.5 278.2Z" fill="#E07373"/>
<path d="M1218 288.7L1209.9 280.6L1218.4 272.1L1218 288.7Z" fill="#E07373"/>
<path d="M1207.6 299.1L1199.5 291L1208 282.5L1207.6 299.1Z" fill="#E07373"/>
<path d="M1197.1 309.6L1189 301.5L1197.5 293L1197.1 309.6Z" fill="#E07373"/>
<path d="M1186.6 320.1L1178.5 312L1187 303.5L1186.6 320.1Z" fill="#E07373"/>
<path d="M1250 236.8L1241.9 228.7L1250.4 220.2L1250 236.8Z" fill="#E07373"/>
<path d="M1239.5 247.3L1231.4 239.2L1239.9 230.7L1239.5 247.3Z" fill="#E07373"/>
<path d="M1229 257.7L1220.9 249.6L1229.4 241.1L1229 257.7Z" fill="#E07373"/>
<path d="M1218.5 268.2L1210.4 260.1L1218.9 251.6L1218.5 268.2Z" fill="#E07373"/>
<path d="M1208.1 278.7L1200 270.6L1208.5 262.1L1208.1 278.7Z" fill="#E07373"/>
<path d="M1197.6 289.2L1189.5 281.1L1198 272.6L1197.6 289.2Z" fill="#E07373"/>
<path d="M1187.1 299.6L1179 291.5L1187.5 283L1187.1 299.6Z" fill="#E07373"/>
<path d="M1176.6 310.1L1168.5 302L1177 293.5L1176.6 310.1Z" fill="#E07373"/>
<path d="M1250.5 216.3L1242.4 208.2L1250.9 199.7L1250.5 216.3Z" fill="#E07373"/>
<path d="M1240 226.8L1231.9 218.7L1240.4 210.2L1240 226.8Z" fill="#E07373"/>
<path d="M1229.5 237.3L1221.4 229.2L1229.9 220.7L1229.5 237.3Z" fill="#E07373"/>
<path d="M1219 247.8L1210.9 239.7L1219.4 231.2L1219 247.8Z" fill="#E07373"/>
<path d="M1208.6 258.2L1200.5 250.1L1209 241.6L1208.6 258.2Z" fill="#E07373"/>
<path d="M1198.1 268.7L1190 260.6L1198.5 252.1L1198.1 268.7Z" fill="#E07373"/>
<path d="M1187.6 279.2L1179.5 271.1L1188 262.6L1187.6 279.2Z" fill="#E07373"/>
<path d="M1177.1 289.7L1169 281.6L1177.5 273.1L1177.1 289.7Z" fill="#E07373"/>
<path d="M1251 195.9L1242.9 187.8L1251.4 179.3L1251 195.9Z" fill="#E07373"/>
<path d="M1240.5 206.4L1232.4 198.3L1240.9 189.8L1240.5 206.4Z" fill="#E07373"/>
<path d="M1230 216.8L1221.9 208.7L1230.4 200.2L1230 216.8Z" fill="#E07373"/>
<path d="M1219.5 227.3L1211.4 219.2L1219.9 210.7L1219.5 227.3Z" fill="#E07373"/>
<path d="M1209.1 237.8L1201 229.7L1209.5 221.2L1209.1 237.8Z" fill="#E07373"/>
<path d="M1198.6 248.3L1190.5 240.2L1199 231.7L1198.6 248.3Z" fill="#E07373"/>
<path d="M1188.1 258.7L1180 250.6L1188.5 242.1L1188.1 258.7Z" fill="#E07373"/>
<path d="M1177.6 269.2L1169.5 261.1L1178 252.6L1177.6 269.2Z" fill="#E07373"/>
<path d="M1251.5 175.4L1243.4 167.3L1251.9 158.8L1251.5 175.4Z" fill="#E07373"/>
<path d="M1241 185.9L1232.9 177.8L1241.4 169.3L1241 185.9Z" fill="#E07373"/>
<path d="M1230.5 196.4L1222.4 188.3L1230.9 179.8L1230.5 196.4Z" fill="#E07373"/>
<path d="M1220.1 206.9L1212 198.8L1220.5 190.3L1220.1 206.9Z" fill="#E07373"/>
<path d="M1209.6 217.3L1201.5 209.2L1210 200.7L1209.6 217.3Z" fill="#E07373"/>
<path d="M1199.1 227.8L1191 219.7L1199.5 211.2L1199.1 227.8Z" fill="#E07373"/>
<path d="M1188.6 238.3L1180.5 230.2L1189 221.7L1188.6 238.3Z" fill="#E07373"/>
<path d="M1178.1 248.8L1170 240.7L1178.5 232.2L1178.1 248.8Z" fill="#E07373"/>
<path d="M1241.5 165.5L1233.4 157.4L1241.9 148.9L1241.5 165.5Z" fill="#E07373"/>
<path d="M1231 175.9L1222.9 167.8L1231.4 159.3L1231 175.9Z" fill="#E07373"/>
<path d="M1220.6 186.4L1212.5 178.3L1221 169.8L1220.6 186.4Z" fill="#E07373"/>
<path d="M1210.1 196.9L1202 188.8L1210.5 180.3L1210.1 196.9Z" fill="#E07373"/>
<path d="M1199.6 207.4L1191.5 199.3L1200 190.8L1199.6 207.4Z" fill="#E07373"/>
<path d="M1189.1 217.8L1181 209.7L1189.5 201.2L1189.1 217.8Z" fill="#E07373"/>
<path d="M1178.6 228.3L1170.5 220.2L1179 211.7L1178.6 228.3Z" fill="#E07373"/>
<path d="M1221.1 166L1213 157.9L1221.5 149.4L1221.1 166Z" fill="#E07373"/>
<path d="M1210.6 176.4L1202.5 168.3L1211 159.8L1210.6 176.4Z" fill="#E07373"/>
<path d="M1200.1 186.9L1192 178.8L1200.5 170.3L1200.1 186.9Z" fill="#E07373"/>
<path d="M1189.6 197.4L1181.5 189.3L1190 180.8L1189.6 197.4Z" fill="#E07373"/>
<path d="M1179.1 207.9L1171 199.8L1179.5 191.3L1179.1 207.9Z" fill="#E07373"/>
<path d="M1200.6 166.5L1192.5 158.4L1201 149.9L1200.6 166.5Z" fill="#E07373"/>
<path d="M1190.1 176.9L1182 168.8L1190.5 160.3L1190.1 176.9Z" fill="#E07373"/>
<path d="M1179.7 187.4L1171.6 179.3L1180.1 170.8L1179.7 187.4Z" fill="#E07373"/>
<path d="M1180.2 167L1172.1 158.9L1180.6 150.4L1180.2 167Z" fill="#E07373"/>
</g>
<g opacity="0.2">
<path d="M0.5 150.4L8.6 158.5L0 167L0.4 150.4H0.5Z" fill="#E07373"/>
<path d="M-2.44081e-05 170.9L8.09998 179L-0.400024 187.5L-2.44081e-05 170.9Z" fill="#E07373"/>
<path d="M10.5 160.4L18.6 168.5L10.1 177L10.5 160.4Z" fill="#E07373"/>
<path d="M20.9 149.9L29 158L20.5 166.5L20.9 149.9Z" fill="#E07373"/>
<path d="M-0.500024 191.3L7.59998 199.4L-0.900024 207.9L-0.500024 191.3Z" fill="#E07373"/>
<path d="M9.9 180.9L18 189L9.5 197.5L9.9 180.9Z" fill="#E07373"/>
<path d="M20.4 170.4L28.5 178.5L20 187L20.4 170.4Z" fill="#E07373"/>
<path d="M30.9 159.9L39 168L30.5 176.5L30.9 159.9Z" fill="#E07373"/>
<path d="M41.4 149.4L49.5 157.5L41 166L41.4 149.4Z" fill="#E07373"/>
<path d="M-1.00002 211.8L7.09998 219.9L-1.40002 228.4L-1.00002 211.8Z" fill="#E07373"/>
<path d="M9.4 201.3L17.5 209.4L9 217.9L9.4 201.3Z" fill="#E07373"/>
<path d="M19.9 190.8L28 198.9L19.5 207.4L19.9 190.8Z" fill="#E07373"/>
<path d="M30.4 180.3L38.5 188.4L30 196.9L30.4 180.3Z" fill="#E07373"/>
<path d="M40.9 169.9L49 178L40.5 186.5L40.9 169.9Z" fill="#E07373"/>
<path d="M51.4 159.4L59.5 167.5L51 176L51.4 159.4Z" fill="#E07373"/>
<path d="M61.8 148.9L69.9 157L61.4 165.5L61.8 148.9Z" fill="#E07373"/>
<path d="M-1.50002 232.2L6.59998 240.3L-1.90002 248.8L-1.50002 232.2Z" fill="#E07373"/>
<path d="M8.9 221.7L17 229.8L8.5 238.3L8.9 221.7Z" fill="#E07373"/>
<path d="M19.4 211.3L27.5 219.4L19 227.9L19.4 211.3Z" fill="#E07373"/>
<path d="M29.9 200.8L38 208.9L29.5 217.4L29.9 200.8Z" fill="#E07373"/>
<path d="M40.4 190.3L48.5 198.4L40 206.9L40.4 190.3Z" fill="#E07373"/>
<path d="M50.8 179.8L58.9 187.9L50.4 196.4L50.8 179.8Z" fill="#E07373"/>
<path d="M61.3 169.4L69.4 177.5L60.9 186L61.3 169.4Z" fill="#E07373"/>
<path d="M71.8 158.9L79.9 167L71.4 175.5L71.8 158.9Z" fill="#E07373"/>
<path d="M-2.00002 252.7L6.09998 260.8L-2.40002 269.3L-2.00002 252.7Z" fill="#E07373"/>
<path d="M8.4 242.2L16.5 250.3L8 258.8L8.4 242.2Z" fill="#E07373"/>
<path d="M18.9 231.7L27 239.8L18.5 248.3L18.9 231.7Z" fill="#E07373"/>
<path d="M29.4 221.2L37.5 229.3L29 237.8L29.4 221.2Z" fill="#E07373"/>
<path d="M39.9 210.8L48 218.9L39.5 227.4L39.9 210.8Z" fill="#E07373"/>
<path d="M50.3 200.3L58.4 208.4L49.9 216.9L50.3 200.3Z" fill="#E07373"/>
<path d="M60.8 189.8L68.9 197.9L60.4 206.4L60.8 189.8Z" fill="#E07373"/>
<path d="M71.3 179.3L79.4 187.4L70.9 195.9L71.3 179.3Z" fill="#E07373"/>
<path d="M-2.6 273.1L5.5 281.2L-3 289.7L-2.6 273.1Z" fill="#E07373"/>
<path d="M7.9 262.6L16 270.7L7.5 279.2L7.9 262.6Z" fill="#E07373"/>
<path d="M18.4 252.2L26.5 260.3L18 268.8L18.4 252.2Z" fill="#E07373"/>
<path d="M28.9 241.7L37 249.8L28.5 258.3L28.9 241.7Z" fill="#E07373"/>
<path d="M39.4 231.2L47.5 239.3L39 247.8L39.4 231.2Z" fill="#E07373"/>
<path d="M49.8 220.7L57.9 228.8L49.4 237.3L49.8 220.7Z" fill="#E07373"/>
<path d="M60.3 210.3L68.4 218.4L59.9 226.9L60.3 210.3Z" fill="#E07373"/>
<path d="M70.8 199.8L78.9 207.9L70.4 216.4L70.8 199.8Z" fill="#E07373"/>
<path d="M-3.1 293.6L5 301.7L-3.5 310.2L-3.1 293.6Z" fill="#E07373"/>
<path d="M7.4 283.1L15.5 291.2L7 299.7L7.4 283.1Z" fill="#E07373"/>
<path d="M17.9 272.6L26 280.7L17.5 289.2L17.9 272.6Z" fill="#E07373"/>
<path d="M28.4 262.1L36.5 270.2L28 278.7L28.4 262.1Z" fill="#E07373"/>
<path d="M38.9 251.7L47 259.8L38.5 268.3L38.9 251.7Z" fill="#E07373"/>
<path d="M49.3 241.2L57.4 249.3L48.9 257.8L49.3 241.2Z" fill="#E07373"/>
<path d="M59.8 230.7L67.9 238.8L59.4 247.3L59.8 230.7Z" fill="#E07373"/>
<path d="M70.3 220.2L78.4 228.3L69.9 236.8L70.3 220.2Z" fill="#E07373"/>
<path d="M6.9 303.5L15 311.6L6.5 320.1L6.9 303.5Z" fill="#E07373"/>
<path d="M17.4 293.1L25.5 301.2L17 309.7L17.4 293.1Z" fill="#E07373"/>
<path d="M27.9 282.6L36 290.7L27.5 299.2L27.9 282.6Z" fill="#E07373"/>
<path d="M38.4 272.1L46.5 280.2L38 288.7L38.4 272.1Z" fill="#E07373"/>
<path d="M48.8 261.6L56.9 269.7L48.4 278.2L48.8 261.6Z" fill="#E07373"/>
<path d="M59.3 251.2L67.4 259.3L58.9 267.8L59.3 251.2Z" fill="#E07373"/>
<path d="M69.8 240.7L77.9 248.8L69.4 257.3L69.8 240.7Z" fill="#E07373"/>
<path d="M27.4 303L35.5 311.1L27 319.6L27.4 303Z" fill="#E07373"/>
<path d="M37.8 292.6L45.9 300.7L37.4 309.2L37.8 292.6Z" fill="#E07373"/>
<path d="M48.3 282.1L56.4 290.2L47.9 298.7L48.3 282.1Z" fill="#E07373"/>
<path d="M58.8 271.6L66.9 279.7L58.4 288.2L58.8 271.6Z" fill="#E07373"/>
<path d="M69.3 261.1L77.4 269.2L68.9 277.7L69.3 261.1Z" fill="#E07373"/>
<path d="M47.8 302.5L55.9 310.6L47.4 319.1L47.8 302.5Z" fill="#E07373"/>
<path d="M58.3 292.1L66.4 300.2L57.9 308.7L58.3 292.1Z" fill="#E07373"/>
<path d="M68.8 281.6L76.9 289.7L68.4 298.2L68.8 281.6Z" fill="#E07373"/>
<path d="M68.3 302L76.4 310.1L67.9 318.6L68.3 302Z" fill="#E07373"/>
<path d="M74.2 99.0999L87.2 112.1L73.5 125.8L74.2 99.0999Z" fill="#E07373"/>
<path d="M73.4001 132L86.4001 145L72.7001 158.7L73.4001 132Z" fill="#E07373"/>
<path d="M90.2 115.1L103.2 128.1L89.5 141.8L90.2 115.1Z" fill="#E07373"/>
<path d="M107.1 98.3L120.1 111.3L106.4 125L107.1 98.3Z" fill="#E07373"/>
<path d="M72.6 164.9L85.6 177.9L71.9 191.6L72.6 164.9Z" fill="#E07373"/>
<path d="M89.4001 148.1L102.4 161.1L88.7001 174.8L89.4001 148.1Z" fill="#E07373"/>
<path d="M106.3 131.2L119.3 144.2L105.6 157.9L106.3 131.2Z" fill="#E07373"/>
<path d="M123.2 114.3L136.2 127.3L122.5 141L123.2 114.3Z" fill="#E07373"/>
<path d="M140 97.5L153 110.5L139.3 124.2L140 97.5Z" fill="#E07373"/>
<path d="M71.8001 197.8L84.8001 210.8L71.1001 224.5L71.8001 197.8Z" fill="#E07373"/>
<path d="M88.6 181L101.6 194L87.9 207.7L88.6 181Z" fill="#E07373"/>
<path d="M105.5 164.1L118.5 177.1L104.8 190.8L105.5 164.1Z" fill="#E07373"/>
<path d="M122.3 147.2L135.3 160.2L121.6 173.9L122.3 147.2Z" fill="#E07373"/>
<path d="M139.2 130.4L152.2 143.4L138.5 157.1L139.2 130.4Z" fill="#E07373"/>
<path d="M156.1 113.5L169.1 126.5L155.4 140.2L156.1 113.5Z" fill="#E07373"/>
<path d="M172.9 96.7L185.9 109.7L172.2 123.4L172.9 96.7Z" fill="#E07373"/>
<path d="M70.9001 230.7L83.9001 243.7L70.2001 257.4L70.9001 230.7Z" fill="#E07373"/>
<path d="M87.8001 213.9L100.8 226.9L87.1001 240.6L87.8001 213.9Z" fill="#E07373"/>
<path d="M104.7 197L117.7 210L104 223.7L104.7 197Z" fill="#E07373"/>
<path d="M121.5 180.1L134.5 193.1L120.8 206.8L121.5 180.1Z" fill="#E07373"/>
<path d="M138.4 163.3L151.4 176.3L137.7 190L138.4 163.3Z" fill="#E07373"/>
<path d="M155.2 146.4L168.2 159.4L154.5 173.1L155.2 146.4Z" fill="#E07373"/>
<path d="M172.1 129.6L185.1 142.6L171.4 156.3L172.1 129.6Z" fill="#E07373"/>
<path d="M189 112.7L202 125.7L188.3 139.4L189 112.7Z" fill="#E07373"/>
<path d="M70.1 263.6L83.1 276.6L69.4 290.3L70.1 263.6Z" fill="#E07373"/>
<path d="M87 246.8L100 259.8L86.3 273.5L87 246.8Z" fill="#E07373"/>
<path d="M103.9 229.9L116.9 242.9L103.2 256.6L103.9 229.9Z" fill="#E07373"/>
<path d="M120.7 213.1L133.7 226.1L120 239.8L120.7 213.1Z" fill="#E07373"/>
<path d="M137.6 196.2L150.6 209.2L136.9 222.9L137.6 196.2Z" fill="#E07373"/>
<path d="M154.4 179.3L167.4 192.3L153.7 206L154.4 179.3Z" fill="#E07373"/>
<path d="M171.3 162.5L184.3 175.5L170.6 189.2L171.3 162.5Z" fill="#E07373"/>
<path d="M188.2 145.6L201.2 158.6L187.5 172.3L188.2 145.6Z" fill="#E07373"/>
<path d="M69.3001 296.5L82.3001 309.5L68.6001 323.2L69.3001 296.5Z" fill="#E07373"/>
<path d="M86.2 279.7L99.2 292.7L85.5 306.4L86.2 279.7Z" fill="#E07373"/>
<path d="M103 262.8L116 275.8L102.3 289.5L103 262.8Z" fill="#E07373"/>
<path d="M119.9 246L132.9 259L119.2 272.7L119.9 246Z" fill="#E07373"/>
<path d="M136.8 229.1L149.8 242.1L136.1 255.8L136.8 229.1Z" fill="#E07373"/>
<path d="M153.6 212.2L166.6 225.2L152.9 238.9L153.6 212.2Z" fill="#E07373"/>
<path d="M170.5 195.4L183.5 208.4L169.8 222.1L170.5 195.4Z" fill="#E07373"/>
<path d="M187.3 178.5L200.3 191.5L186.6 205.2L187.3 178.5Z" fill="#E07373"/>
<path d="M68.5 329.4L81.5 342.4L67.8 356.1L68.5 329.4Z" fill="#E07373"/>
<path d="M85.4001 312.6L98.4001 325.6L84.7001 339.3L85.4001 312.6Z" fill="#E07373"/>
<path d="M102.2 295.7L115.2 308.7L101.5 322.4L102.2 295.7Z" fill="#E07373"/>
<path d="M119.1 278.9L132.1 291.9L118.4 305.6L119.1 278.9Z" fill="#E07373"/>
<path d="M136 262L149 275L135.3 288.7L136 262Z" fill="#E07373"/>
<path d="M152.8 245.2L165.8 258.2L152.1 271.9L152.8 245.2Z" fill="#E07373"/>
<path d="M169.7 228.3L182.7 241.3L169 255L169.7 228.3Z" fill="#E07373"/>
<path d="M186.5 211.4L199.5 224.4L185.8 238.1L186.5 211.4Z" fill="#E07373"/>
<path d="M84.6 345.5L97.6 358.5L83.9 372.2L84.6 345.5Z" fill="#E07373"/>
<path d="M101.4 328.6L114.4 341.6L100.7 355.3L101.4 328.6Z" fill="#E07373"/>
<path d="M118.3 311.8L131.3 324.8L117.6 338.5L118.3 311.8Z" fill="#E07373"/>
<path d="M135.1 294.9L148.1 307.9L134.4 321.6L135.1 294.9Z" fill="#E07373"/>
<path d="M152 278.1L165 291.1L151.3 304.8L152 278.1Z" fill="#E07373"/>
<path d="M168.9 261.2L181.9 274.2L168.2 287.9L168.9 261.2Z" fill="#E07373"/>
<path d="M185.7 244.3L198.7 257.3L185 271L185.7 244.3Z" fill="#E07373"/>
<path d="M117.5 344.7L130.5 357.7L116.8 371.4L117.5 344.7Z" fill="#E07373"/>
<path d="M134.3 327.8L147.3 340.8L133.6 354.5L134.3 327.8Z" fill="#E07373"/>
<path d="M151.2 311L164.2 324L150.5 337.7L151.2 311Z" fill="#E07373"/>
<path d="M168.1 294.1L181.1 307.1L167.4 320.8L168.1 294.1Z" fill="#E07373"/>
<path d="M184.9 277.3L197.9 290.3L184.2 304L184.9 277.3Z" fill="#E07373"/>
<path d="M150.4 343.9L163.4 356.9L149.7 370.6L150.4 343.9Z" fill="#E07373"/>
<path d="M167.2 327L180.2 340L166.5 353.7L167.2 327Z" fill="#E07373"/>
<path d="M184.1 310.2L197.1 323.2L183.4 336.9L184.1 310.2Z" fill="#E07373"/>
<path d="M183.3 343.1L196.3 356.1L182.6 369.8L183.3 343.1Z" fill="#E07373"/>
<path d="M192.1 150.4L200.2 158.5L191.7 167L192.1 150.4Z" fill="#E07373"/>
<path d="M191.6 170.9L199.7 179L191.2 187.5L191.6 170.9Z" fill="#E07373"/>
<path d="M202 160.4L210.1 168.5L201.6 177L202 160.4Z" fill="#E07373"/>
<path d="M212.5 149.9L220.6 158L212.1 166.5L212.5 149.9Z" fill="#E07373"/>
<path d="M191 191.3L199.1 199.4L190.6 207.9L191 191.3Z" fill="#E07373"/>
<path d="M201.5 180.9L209.6 189L201.1 197.5L201.5 180.9Z" fill="#E07373"/>
<path d="M212 170.4L220.1 178.5L211.6 187L212 170.4Z" fill="#E07373"/>
<path d="M222.5 159.9L230.6 168L222.1 176.5L222.5 159.9Z" fill="#E07373"/>
<path d="M232.9 149.4L241 157.5L232.5 166L232.9 149.4Z" fill="#E07373"/>
<path d="M190.5 211.8L198.6 219.9L190.1 228.4L190.5 211.8Z" fill="#E07373"/>
<path d="M201 201.3L209.1 209.4L200.6 217.9L201 201.3Z" fill="#E07373"/>
<path d="M211.5 190.8L219.6 198.9L211.1 207.4L211.5 190.8Z" fill="#E07373"/>
<path d="M222 180.3L230.1 188.4L221.6 196.9L222 180.3Z" fill="#E07373"/>
<path d="M232.4 169.9L240.5 178L232 186.5L232.4 169.9Z" fill="#E07373"/>
<path d="M242.9 159.4L251 167.5L242.5 176L242.9 159.4Z" fill="#E07373"/>
<path d="M253.4 148.9L261.5 157L253 165.5L253.4 148.9Z" fill="#E07373"/>
<path d="M190 232.2L198.1 240.3L189.6 248.8L190 232.2Z" fill="#E07373"/>
<path d="M200.5 221.7L208.6 229.8L200.1 238.3L200.5 221.7Z" fill="#E07373"/>
<path d="M211 211.3L219.1 219.4L210.6 227.9L211 211.3Z" fill="#E07373"/>
<path d="M221.5 200.8L229.6 208.9L221.1 217.4L221.5 200.8Z" fill="#E07373"/>
<path d="M231.9 190.3L240 198.4L231.5 206.9L231.9 190.3Z" fill="#E07373"/>
<path d="M242.4 179.8L250.5 187.9L242 196.4L242.4 179.8Z" fill="#E07373"/>
<path d="M252.9 169.4L261 177.5L252.5 186L252.9 169.4Z" fill="#E07373"/>
<path d="M263.4 158.9L271.5 167L263 175.5L263.4 158.9Z" fill="#E07373"/>
<path d="M189.5 252.7L197.6 260.8L189.1 269.3L189.5 252.7Z" fill="#E07373"/>
<path d="M200 242.2L208.1 250.3L199.6 258.8L200 242.2Z" fill="#E07373"/>
<path d="M210.5 231.7L218.6 239.8L210.1 248.3L210.5 231.7Z" fill="#E07373"/>
<path d="M221 221.2L229.1 229.3L220.6 237.8L221 221.2Z" fill="#E07373"/>
<path d="M231.4 210.8L239.5 218.9L231 227.4L231.4 210.8Z" fill="#E07373"/>
<path d="M241.9 200.3L250 208.4L241.5 216.9L241.9 200.3Z" fill="#E07373"/>
<path d="M252.4 189.8L260.5 197.9L252 206.4L252.4 189.8Z" fill="#E07373"/>
<path d="M262.9 179.3L271 187.4L262.5 195.9L262.9 179.3Z" fill="#E07373"/>
<path d="M189 273.1L197.1 281.2L188.6 289.7L189 273.1Z" fill="#E07373"/>
<path d="M199.5 262.6L207.6 270.7L199.1 279.2L199.5 262.6Z" fill="#E07373"/>
<path d="M210 252.2L218.1 260.3L209.6 268.8L210 252.2Z" fill="#E07373"/>
<path d="M220.5 241.7L228.6 249.8L220.1 258.3L220.5 241.7Z" fill="#E07373"/>
<path d="M230.9 231.2L239 239.3L230.5 247.8L230.9 231.2Z" fill="#E07373"/>
<path d="M241.4 220.7L249.5 228.8L241 237.3L241.4 220.7Z" fill="#E07373"/>
<path d="M251.9 210.3L260 218.4L251.5 226.9L251.9 210.3Z" fill="#E07373"/>
<path d="M262.4 199.8L270.5 207.9L262 216.4L262.4 199.8Z" fill="#E07373"/>
<path d="M188.5 293.6L196.6 301.7L188.1 310.2L188.5 293.6Z" fill="#E07373"/>
<path d="M199 283.1L207.1 291.2L198.6 299.7L199 283.1Z" fill="#E07373"/>
<path d="M209.5 272.6L217.6 280.7L209.1 289.2L209.5 272.6Z" fill="#E07373"/>
<path d="M220 262.1L228.1 270.2L219.6 278.7L220 262.1Z" fill="#E07373"/>
<path d="M230.4 251.7L238.5 259.8L230 268.3L230.4 251.7Z" fill="#E07373"/>
<path d="M240.9 241.2L249 249.3L240.5 257.8L240.9 241.2Z" fill="#E07373"/>
<path d="M251.4 230.7L259.5 238.8L251 247.3L251.4 230.7Z" fill="#E07373"/>
<path d="M261.9 220.2L270 228.3L261.5 236.8L261.9 220.2Z" fill="#E07373"/>
<path d="M198.5 303.5L206.6 311.6L198.1 320.1L198.5 303.5Z" fill="#E07373"/>
<path d="M209 293.1L217.1 301.2L208.6 309.7L209 293.1Z" fill="#E07373"/>
<path d="M219.4 282.6L227.5 290.7L219 299.2L219.4 282.6Z" fill="#E07373"/>
<path d="M229.9 272.1L238 280.2L229.5 288.7L229.9 272.1Z" fill="#E07373"/>
<path d="M240.4 261.6L248.5 269.7L240 278.2L240.4 261.6Z" fill="#E07373"/>
<path d="M250.9 251.2L259 259.3L250.5 267.8L250.9 251.2Z" fill="#E07373"/>
<path d="M261.4 240.7L269.5 248.8L261 257.3L261.4 240.7Z" fill="#E07373"/>
<path d="M218.9 303L227 311.1L218.5 319.6L218.9 303Z" fill="#E07373"/>
<path d="M229.4 292.6L237.5 300.7L229 309.2L229.4 292.6Z" fill="#E07373"/>
<path d="M239.9 282.1L248 290.2L239.5 298.7L239.9 282.1Z" fill="#E07373"/>
<path d="M250.4 271.6L258.5 279.7L250 288.2L250.4 271.6Z" fill="#E07373"/>
<path d="M260.9 261.1L269 269.2L260.5 277.7L260.9 261.1Z" fill="#E07373"/>
<path d="M239.4 302.5L247.5 310.6L239 319.1L239.4 302.5Z" fill="#E07373"/>
<path d="M249.9 292.1L258 300.2L249.5 308.7L249.9 292.1Z" fill="#E07373"/>
<path d="M260.3 281.6L268.4 289.7L259.9 298.2L260.3 281.6Z" fill="#E07373"/>
<path d="M259.8 302L267.9 310.1L259.4 318.6L259.8 302Z" fill="#E07373"/>
</g>
</g>
<defs>
<clipPath id="clip0_956_3604">
<rect width="1440" height="468" fill="white"/>
</clipPath>
</defs>
</svg>
