<svg width="24" height="25" viewBox="0 0 24 25" fill="none" xmlns="http://www.w3.org/2000/svg">
<path d="M12 23.1379C6.21 23.1379 1.5 18.4279 1.5 12.6379C1.5 6.84794 6.21 2.13794 12 2.13794C17.79 2.13794 22.5 6.84794 22.5 12.6379C22.5 18.4279 17.79 23.1379 12 23.1379ZM12 3.63794C7.035 3.63794 3 7.67294 3 12.6379C3 17.6029 7.035 21.6379 12 21.6379C16.965 21.6379 21 17.6029 21 12.6379C21 7.67294 16.965 3.63794 12 3.63794Z" fill="#444444"/>
<path d="M15 16.3879C14.865 16.3879 14.73 16.3579 14.61 16.2829L10.86 14.0329C10.7494 13.9656 10.6582 13.8709 10.5951 13.7578C10.532 13.6448 10.4993 13.5174 10.5 13.3879V7.38794C10.5 6.96794 10.83 6.63794 11.25 6.63794C11.67 6.63794 12 6.96794 12 7.38794V12.9679L15.39 14.9929C15.5296 15.0785 15.6376 15.2073 15.6974 15.3597C15.7573 15.5122 15.7658 15.68 15.7217 15.8377C15.6776 15.9954 15.5833 16.1345 15.4531 16.2338C15.3228 16.333 15.1638 16.3872 15 16.3879Z" fill="#444444"/>
</svg>
