<?xml version="1.0" encoding="UTF-8"?>
<svg version="1.1" xmlns="http://www.w3.org/2000/svg" width="512" height="512">
<path d="M0 0 C1.24859802 -0.0127597 2.49719604 -0.02551941 3.78363037 -0.03866577 C5.13472334 -0.04172441 6.48581842 -0.04395164 7.83691406 -0.04541016 C9.2392795 -0.05184717 10.64164363 -0.05857618 12.04400635 -0.06558228 C14.97923898 -0.07752841 17.91435417 -0.081266 20.84960938 -0.08007812 C24.58619027 -0.0798754 28.32200661 -0.10713998 32.05840683 -0.14162254 C34.95488855 -0.16401171 37.85118999 -0.16791198 40.74774933 -0.16685867 C42.12388994 -0.16919805 43.5000368 -0.17792639 44.876091 -0.19352341 C55.71920279 -0.30489548 64.90209136 0.95767997 73.07128906 8.58740234 C80.49170934 16.84072694 81.90278044 25.01140903 81.79785156 35.81396484 C81.79360672 37.46593369 81.79360672 37.46593369 81.78927612 39.15127563 C81.77811384 42.65613842 81.75301617 46.16074226 81.72753906 49.66552734 C81.71750417 52.04703406 81.70837921 54.4285448 81.70019531 56.81005859 C81.67818743 62.63696932 81.64474905 68.46372982 81.60253906 74.29052734 C87.60983073 76.42761213 87.60983073 76.42761213 93.60253906 75.29052734 C96.19710689 73.16307872 98.46996816 70.76755765 100.77441406 68.33349609 C102.17536165 66.89655541 103.57640643 65.45970947 104.97753906 64.02294922 C107.164435 61.75546538 109.34692977 59.4838817 111.52636719 57.20922852 C113.63987846 55.01068817 115.76886201 52.82800796 117.89941406 50.64599609 C118.53723816 49.96981735 119.17506226 49.29363861 119.83221436 48.5969696 C126.46030251 41.8276978 134.20694595 38.20706833 143.72753906 38.04052734 C158.52502867 38.25697998 167.07969889 46.47990717 177.14550781 56.42724609 C177.91760086 57.187939 178.68969391 57.9486319 179.48518372 58.7323761 C181.10379627 60.33223174 182.71962569 61.93490769 184.33276367 63.5402832 C186.78041679 65.96848156 189.24860519 68.37447093 191.71777344 70.78076172 C211.56815972 90.36478451 211.56815972 90.36478451 211.85253906 104.91552734 C211.73553385 114.83171947 208.27841467 122.7680065 201.28686523 129.72216797 C199.99387102 130.96799974 198.69653174 132.20933338 197.39550781 133.44677734 C195.99049258 134.81192381 194.58621709 136.17783196 193.18261719 137.54443359 C190.97999683 139.67876902 188.772563 141.80717793 186.55200195 143.92285156 C184.40064052 145.97762126 182.27188446 148.0537049 180.14550781 150.13427734 C179.47480759 150.76257446 178.80410736 151.39087158 178.11308289 152.03820801 C176.40734587 153.72434503 174.908906 155.27907837 173.60253906 157.29052734 C173.4679343 160.43469459 173.4679343 160.43469459 174.60253906 163.29052734 C174.95072617 164.95415429 175.28645077 166.62050427 175.60253906 168.29052734 C176.20673676 168.2816449 176.81093445 168.27276245 177.43344116 168.26361084 C183.76070632 168.17464818 190.08779183 168.11459134 196.41552734 168.07080078 C198.77237168 168.05077003 201.12916684 168.02353743 203.48583984 167.98876953 C206.88684268 167.93987562 210.28718456 167.91747232 213.68847656 167.89990234 C214.73055267 167.8792572 215.77262878 167.85861206 216.84628296 167.83734131 C226.15017463 167.83453117 234.16235825 170.13472168 241.07128906 176.58740234 C246.84838014 183.01294242 249.83253995 190.00656024 249.89306641 198.68798828 C249.90582611 199.9365863 249.91858582 201.18518433 249.93173218 202.47161865 C249.93479081 203.82271162 249.93701805 205.1738067 249.93847656 206.52490234 C249.94491357 207.92726779 249.95164259 209.32963191 249.95864868 210.73199463 C249.97059482 213.66722726 249.97433241 216.60234245 249.97314453 219.53759766 C249.97294181 223.27417855 250.00020639 227.0099949 250.03468895 230.74639511 C250.05707812 233.64287683 250.06097839 236.53917827 250.05992508 239.43573761 C250.06226445 240.81187822 250.07099279 242.18802508 250.08658981 243.56407928 C250.19796189 254.40719107 248.93538644 263.59007965 241.30566406 271.75927734 C233.05233947 279.17969762 224.88165737 280.59076872 214.07910156 280.48583984 C212.977789 280.48300995 211.87647644 280.48018005 210.74179077 280.4772644 C207.23692798 280.46610212 203.73232415 280.44100445 200.22753906 280.41552734 C197.84603235 280.40549245 195.46452161 280.39636749 193.08300781 280.38818359 C187.25609709 280.36617571 181.42933658 280.33273734 175.60253906 280.29052734 C173.46545428 286.29781901 173.46545428 286.29781901 174.60253906 292.29052734 C176.72998768 294.88509517 179.12550876 297.15795644 181.55957031 299.46240234 C182.996511 300.86334993 184.43335694 302.26439471 185.87011719 303.66552734 C188.13760102 305.85242328 190.40918471 308.03491805 192.68383789 310.21435547 C194.88237824 312.32786674 197.06505845 314.45685029 199.24707031 316.58740234 C199.92324905 317.22522644 200.5994278 317.86305054 201.2960968 318.52020264 C208.06536861 325.1482908 211.68599808 332.89493423 211.85253906 342.41552734 C211.63742522 357.12149199 203.54942191 365.64790643 193.61425781 375.61474609 C192.87101761 376.3646431 192.1277774 377.1145401 191.36201477 377.88716125 C189.80068051 379.45854572 188.23669521 381.02730023 186.67016602 382.59350586 C184.29603752 384.97201781 181.93839544 387.36609373 179.58105469 389.76123047 C178.05143813 391.29671495 176.52087022 392.83125242 174.98925781 394.36474609 C174.29724777 395.07112717 173.60523773 395.77750824 172.89225769 396.5052948 C164.98218477 404.34351303 156.16970561 410.16058308 144.79003906 410.60302734 C132.27401615 410.3172734 124.45272364 404.46619386 116.01660156 395.89990234 C115.31481781 395.1952887 114.61303406 394.49067505 113.88998413 393.76470947 C111.66440254 391.52799299 109.44590268 389.28440045 107.22753906 387.04052734 C105.71367952 385.51662938 104.19936136 383.99318687 102.68457031 382.47021484 C98.98523042 378.74890338 95.29222294 375.02141196 91.60253906 371.29052734 C88.96253906 372.28052734 86.32253906 373.27052734 83.60253906 374.29052734 C83.58271973 375.60657959 83.56290039 376.92263184 83.54248047 378.27856445 C83.46601371 383.19329939 83.37736147 388.10775402 83.28515625 393.0222168 C83.24703541 395.14325397 83.21215405 397.26435207 83.18066406 399.38549805 C83.13464463 402.44650957 83.07671307 405.50710768 83.01660156 408.56787109 C82.99927475 409.97467384 82.99927475 409.97467384 82.9815979 411.40989685 C82.73578457 422.54718449 80.49977303 431.5570108 73.00488281 440.11474609 C64.38828139 448.20172189 54.24977006 448.8995526 42.94238281 448.82177734 C41.54333732 448.82447944 40.14429367 448.82836778 38.74525452 448.83337402 C35.82957882 448.83923361 32.91439705 448.830821 29.9987793 448.81201172 C26.28455083 448.78920193 22.57147763 448.80237914 18.85729122 448.82630157 C15.97367331 448.84083841 13.09032399 448.83611825 10.20669746 448.82579041 C8.83812888 448.8231459 7.4695349 448.8263116 6.10099602 448.83570862 C-5.36864884 448.89721832 -13.15255543 447.03303885 -21.60839844 439.14990234 C-29.26263367 431.19484564 -30.69120041 423.82781506 -30.81152344 412.98583984 C-30.84057266 411.36716507 -30.84057266 411.36716507 -30.87020874 409.71578979 C-30.92980036 406.28244839 -30.97630854 402.8490731 -31.02246094 399.41552734 C-31.06065947 397.08217971 -31.09971229 394.74884589 -31.13964844 392.41552734 C-31.23548528 386.70730675 -31.31959195 380.99902017 -31.39746094 375.29052734 C-36.34746094 373.80552734 -36.34746094 373.80552734 -41.39746094 372.29052734 C-42.34999756 373.26924805 -43.30253418 374.24796875 -44.28393555 375.25634766 C-47.84370536 378.90707055 -51.42036882 382.54084973 -55.00219727 386.16992188 C-56.54587243 387.73863834 -58.0850177 389.3118265 -59.61938477 390.88964844 C-61.83422673 393.16559444 -64.0652223 395.42460481 -66.29980469 397.68115234 C-67.31287941 398.73293671 -67.31287941 398.73293671 -68.34642029 399.80596924 C-75.13949042 406.60292636 -82.83963604 410.37114848 -92.52246094 410.54052734 C-107.31995054 410.3240747 -115.87462077 402.10114752 -125.94042969 392.15380859 C-127.09856926 391.01276924 -127.09856926 391.01276924 -128.28010559 389.84867859 C-129.89871814 388.24882294 -131.51454757 386.646147 -133.12768555 385.04077148 C-135.57533867 382.61257313 -138.04352706 380.20658376 -140.51269531 377.80029297 C-160.3630816 358.21627018 -160.3630816 358.21627018 -160.64746094 343.66552734 C-160.53045572 333.74933521 -157.07333654 325.81304818 -150.08178711 318.85888672 C-148.7887929 317.61305494 -147.49145362 316.37172131 -146.19042969 315.13427734 C-144.78541445 313.76913088 -143.38113896 312.40322272 -141.97753906 311.03662109 C-139.7749187 308.90228566 -137.56748488 306.77387676 -135.34692383 304.65820312 C-133.1955624 302.60343343 -131.06680634 300.52734978 -128.94042969 298.44677734 C-128.26972946 297.81848022 -127.59902924 297.19018311 -126.90800476 296.54284668 C-125.20226774 294.85670966 -123.70382787 293.30197631 -122.39746094 291.29052734 C-122.26285618 288.1463601 -122.26285618 288.1463601 -123.39746094 285.29052734 C-123.74564804 283.62690039 -124.08137264 281.96055042 -124.39746094 280.29052734 C-125.00165863 280.29940979 -125.60585632 280.30829224 -126.22836304 280.31744385 C-132.5556282 280.40640651 -138.88271371 280.46646335 -145.21044922 280.51025391 C-147.56729355 280.53028466 -149.92408872 280.55751726 -152.28076172 280.59228516 C-155.68176456 280.64117907 -159.08210644 280.66358236 -162.48339844 280.68115234 C-164.0465126 280.71212006 -164.0465126 280.71212006 -165.64120483 280.74371338 C-174.94509651 280.74652351 -182.95728013 278.44633301 -189.86621094 271.99365234 C-195.64330202 265.56811227 -198.62746183 258.57449445 -198.68798828 249.89306641 C-198.70074799 248.64446838 -198.71350769 247.39587036 -198.72665405 246.10943604 C-198.72971269 244.75834306 -198.73193992 243.40724799 -198.73339844 242.05615234 C-198.73983545 240.6537869 -198.74656447 239.25142277 -198.75357056 237.84906006 C-198.7655167 234.91382743 -198.76925428 231.97871224 -198.76806641 229.04345703 C-198.76786368 225.30687614 -198.79512826 221.57105979 -198.82961082 217.83465958 C-198.852 214.93817786 -198.85590026 212.04187642 -198.85484695 209.14531708 C-198.85718633 207.76917647 -198.86591467 206.39302961 -198.88151169 205.0169754 C-198.99288376 194.17386362 -197.73030832 184.99097504 -190.10058594 176.82177734 C-181.84726134 169.40135707 -173.67657925 167.99028597 -162.87402344 168.09521484 C-161.77271088 168.09804474 -160.67139832 168.10087463 -159.53671265 168.10379028 C-156.03184986 168.11495256 -152.52724602 168.14005023 -149.02246094 168.16552734 C-146.64095422 168.17556224 -144.25944348 168.1846872 -141.87792969 168.19287109 C-136.05101896 168.21487898 -130.22425846 168.24831735 -124.39746094 168.29052734 C-122.26037615 162.28323568 -122.26037615 162.28323568 -123.39746094 156.29052734 C-125.52490956 153.69595952 -127.92043063 151.42309825 -130.35449219 149.11865234 C-131.79143287 147.71770475 -133.22827881 146.31665998 -134.66503906 144.91552734 C-136.9325229 142.72863141 -139.20410659 140.54613664 -141.47875977 138.36669922 C-143.67730011 136.25318794 -145.85998033 134.12420439 -148.04199219 131.99365234 C-148.71817093 131.35582825 -149.39434967 130.71800415 -150.09101868 130.06085205 C-156.86029049 123.43276389 -160.48091995 115.68612046 -160.64746094 106.16552734 C-160.43033696 91.32214285 -152.1761967 82.76416952 -142.15527344 72.71240234 C-141.38746552 71.93793762 -140.61965759 71.1634729 -139.82858276 70.36553955 C-138.21597475 68.74287922 -136.60071388 67.12285132 -134.98291016 65.50537109 C-132.52537679 63.0434484 -130.08431586 60.56594012 -127.64355469 58.08740234 C-126.06510931 56.50309033 -124.48571372 54.91972433 -122.90527344 53.33740234 C-122.18622833 52.60398621 -121.46718323 51.87057007 -120.72634888 51.1149292 C-112.88409117 43.34185756 -104.37449146 38.40849894 -93.14746094 37.91552734 C-78.97992967 38.24590873 -71.19995433 46.32823089 -61.92089844 55.91552734 C-61.3426683 56.51086777 -60.76443817 57.10620819 -60.16868591 57.71958923 C-55.28396211 62.7515364 -55.28396211 62.7515364 -52.94628906 65.21484375 C-51.18296007 67.06880672 -49.39827227 68.89972769 -47.60839844 70.72802734 C-47.07387054 71.30182129 -46.53934265 71.87561523 -45.98861694 72.46679688 C-44.2823935 74.26363219 -44.2823935 74.26363219 -41.39746094 76.29052734 C-38.3012124 76.33818103 -38.3012124 76.33818103 -35.39746094 75.29052734 C-33.73326373 74.94507613 -32.06688485 74.60976501 -30.39746094 74.29052734 C-30.40634338 73.68632965 -30.41522583 73.08213196 -30.42437744 72.45962524 C-30.5133401 66.13236008 -30.57339694 59.80527457 -30.6171875 53.47753906 C-30.63721825 51.12069473 -30.66445085 48.76389956 -30.69921875 46.40722656 C-30.74811266 43.00622372 -30.77051596 39.60588184 -30.78808594 36.20458984 C-30.80873108 35.16251373 -30.82937622 34.12043762 -30.85064697 33.04678345 C-30.85345711 23.74289177 -28.5532666 15.73070815 -22.10058594 8.82177734 C-15.67504586 3.04468626 -8.68142804 0.06052645 0 0 Z M1.60253906 32.29052734 C1.57675781 36.55216797 1.55097656 40.81380859 1.52441406 45.20458984 C1.49271699 48.61231314 1.45706576 52.01994426 1.41874695 55.42759705 C1.37943817 59.01945909 1.34702506 62.61107452 1.33154297 66.203125 C1.31634832 69.66585475 1.28185499 73.12791327 1.23423004 76.59034348 C1.21227153 78.54772475 1.21006773 80.50529553 1.20819092 82.46279907 C1.02434563 93.65830102 1.02434563 93.65830102 -3.39746094 98.29052734 C-8.98557941 101.72936948 -15.17767441 103.76487009 -21.32666016 105.99609375 C-25.44570879 107.50203403 -29.34736117 109.19460243 -33.27246094 111.16552734 C-38.27031756 113.48435271 -42.94965354 114.5325589 -48.39746094 113.29052734 C-54.79102008 110.19297983 -59.23188162 105.8480607 -64.17480469 100.80615234 C-64.98615372 99.99055847 -65.79750275 99.1749646 -66.63343811 98.33465576 C-69.2077774 95.74360532 -71.7714527 93.14228972 -74.33496094 90.54052734 C-76.08491683 88.77551494 -77.8355607 87.01118436 -79.58691406 85.24755859 C-83.86509329 80.93641043 -88.13457927 76.61679955 -92.39746094 72.29052734 C-97.14831961 76.25425259 -101.63359206 80.38847516 -105.98730469 84.78271484 C-106.57669327 85.37351837 -107.16608185 85.9643219 -107.77333069 86.57302856 C-109.62959821 88.43483138 -111.48233178 90.30010479 -113.33496094 92.16552734 C-114.60360766 93.43919745 -115.87248584 94.71263706 -117.14160156 95.98583984 C-120.22956648 99.08474778 -123.31437023 102.18677035 -126.39746094 105.29052734 C-122.13811923 110.39163619 -117.66625361 115.11884978 -112.91699219 119.76318359 C-111.49157579 121.17109703 -110.06645424 122.57930904 -108.64160156 123.98779297 C-106.419661 126.17871941 -104.19547649 128.36721236 -101.96606445 130.55053711 C-99.79706437 132.6771339 -97.63768751 134.81312974 -95.47949219 136.95068359 C-94.81383743 137.59771744 -94.14818268 138.24475128 -93.46235657 138.91139221 C-89.31989922 143.03080997 -86.00311942 146.78183684 -84.97485352 152.73876953 C-84.9874222 159.10249352 -86.38420074 163.81808886 -89.08496094 169.54052734 C-89.82946436 171.19254744 -90.57032769 172.84621262 -91.30761719 174.50146484 C-91.66871582 175.3080957 -92.02981445 176.11472656 -92.40185547 176.94580078 C-93.8239218 180.29487509 -94.91026238 183.70130232 -96.02246094 187.16552734 C-98.19916706 193.48904309 -100.39226131 196.28792753 -106.39746094 199.29052734 C-108.3065428 199.41046815 -110.21968342 199.46784023 -112.13232422 199.49584961 C-113.33341827 199.51579483 -114.53451233 199.53574005 -115.77200317 199.55628967 C-117.72515945 199.58135841 -117.72515945 199.58135841 -119.71777344 199.60693359 C-121.06013632 199.62750359 -122.40249273 199.64850008 -123.74484253 199.66990662 C-127.27934532 199.72512265 -130.81390651 199.77453393 -134.34851074 199.82275391 C-137.95472406 199.87297239 -141.56085354 199.92860372 -145.16699219 199.98388672 C-152.24375105 200.09197554 -159.32055566 200.19100175 -166.39746094 200.29052734 C-166.39746094 216.13052734 -166.39746094 231.97052734 -166.39746094 248.29052734 C-160.005 248.32919922 -160.005 248.32919922 -153.48339844 248.36865234 C-150.07567514 248.40034941 -146.66804402 248.43600065 -143.26039124 248.47431946 C-139.6685292 248.51362824 -136.07691377 248.54604135 -132.48486328 248.56152344 C-129.02213353 248.57671809 -125.56007501 248.61121142 -122.09764481 248.65883636 C-120.14026353 248.68079487 -118.18269275 248.68299867 -116.22518921 248.68487549 C-105.02968726 248.86872078 -105.02968726 248.86872078 -100.39746094 253.29052734 C-96.95842768 258.87895639 -94.92122959 265.07176523 -92.69189453 271.22192383 C-91.19239779 275.32668877 -89.50225445 279.19952512 -87.52246094 283.10302734 C-85.05487006 288.41353846 -84.18644412 293.511054 -85.39746094 299.29052734 C-87.84744624 304.34187004 -90.3671856 307.5266417 -94.64746094 311.22802734 C-101.78339981 317.55038035 -108.48751724 324.28612254 -115.20996094 331.04052734 C-116.03699524 331.8706282 -116.03699524 331.8706282 -116.8807373 332.71749878 C-120.05632375 335.90519361 -123.22843081 339.09631235 -126.39746094 342.29052734 C-122.43373569 347.04138602 -118.29951312 351.52665846 -113.90527344 355.88037109 C-113.31446991 356.46975967 -112.72366638 357.05914825 -112.11495972 357.66639709 C-110.2531569 359.52266461 -108.38788349 361.37539819 -106.52246094 363.22802734 C-105.24879083 364.49667407 -103.97535122 365.76555225 -102.70214844 367.03466797 C-99.6032405 370.12263289 -96.50121793 373.20743663 -93.39746094 376.29052734 C-92.28472424 375.34333713 -91.17292818 374.3950418 -90.06152344 373.44628906 C-89.13267334 372.65434647 -89.13267334 372.65434647 -88.18505859 371.84640503 C-82.79709431 367.15686353 -77.77153901 361.98199295 -73.14746094 356.54052734 C-69.69347393 352.51638459 -66.00134844 348.74541653 -62.27246094 344.97802734 C-61.67401367 344.36668945 -61.07556641 343.75535156 -60.45898438 343.12548828 C-55.67774719 338.33362022 -51.58411584 334.84679645 -44.54589844 334.23193359 C-37.08860466 334.43531433 -29.78803067 338.81344682 -23.10839844 341.74755859 C-18.33245898 343.79095126 -13.40839951 345.35643922 -8.45605469 346.91943359 C-4.90709623 348.51034601 -2.90914782 350.34281525 -0.39746094 353.29052734 C0.66102083 356.46597264 0.7588802 358.80120221 0.80786133 362.13891602 C0.82780655 363.33993454 0.84775177 364.54095306 0.86830139 365.77836609 C0.89337013 367.72378044 0.89337013 367.72378044 0.91894531 369.70849609 C0.93952199 371.04942964 0.96051866 372.3903568 0.98191833 373.73127747 C1.03706533 377.25754624 1.08650701 380.78387283 1.13476562 384.3102417 C1.18503456 387.90984219 1.2406404 391.50935993 1.29589844 395.10888672 C1.40389429 402.16937012 1.50297426 409.22989983 1.60253906 416.29052734 C17.44253906 416.29052734 33.28253906 416.29052734 49.60253906 416.29052734 C49.62832031 412.02888672 49.65410156 407.76724609 49.68066406 403.37646484 C49.71236113 399.96874155 49.74801237 396.56111043 49.78633118 393.15345764 C49.82563996 389.5615956 49.85805306 385.96998017 49.87353516 382.37792969 C49.8887298 378.91519994 49.92322314 375.45314142 49.97084808 371.99071121 C49.99280659 370.03332993 49.99501039 368.07575916 49.99688721 366.11825562 C50.18073249 354.92275367 50.18073249 354.92275367 54.60253906 350.29052734 C60.19096811 346.85149408 66.38377695 344.81429599 72.53393555 342.58496094 C76.63870049 341.0854642 80.51153684 339.39532086 84.41503906 337.41552734 C89.69466318 334.95859383 94.85416186 334.04088013 100.60253906 335.29052734 C106.32990795 338.58030925 110.6667731 343.09823914 115.28222656 347.77490234 C116.09499054 348.59049622 116.90775452 349.40609009 117.74514771 350.24639893 C120.32736379 352.83976574 122.90251922 355.44001702 125.47753906 358.04052734 C127.23228525 359.8053099 128.98748863 361.56963798 130.74316406 363.33349609 C135.03493194 367.64725658 139.32093161 371.96668326 143.60253906 376.29052734 C148.27128444 372.39076013 152.69381715 368.3383809 156.97363281 364.01708984 C157.54082535 363.44848236 158.10801788 362.87987488 158.69239807 362.29403687 C160.47733819 360.50356499 162.25874162 358.7096225 164.04003906 356.91552734 C165.26050846 355.69003411 166.48120959 354.46477162 167.70214844 353.23974609 C170.67162663 350.2593296 173.63794163 347.2757984 176.60253906 344.29052734 C175.22213888 341.17795094 173.63895189 339.09363457 171.21020508 336.71875 C170.5193129 336.03769196 169.82842072 335.35663391 169.11659241 334.65493774 C167.9978196 333.56576553 167.9978196 333.56576553 166.85644531 332.45458984 C165.28145569 330.90002374 163.70658973 329.34533234 162.13183594 327.79052734 C159.64794622 325.35011123 157.1616498 322.91221146 154.67260742 320.47705078 C152.26906994 318.12188429 149.87488378 315.75751239 147.48144531 313.39208984 C146.36570885 312.30899033 146.36570885 312.30899033 145.22743225 311.20401001 C139.60408501 305.63480207 135.73734182 300.51349553 135.60253906 292.29052734 C136.60807901 288.48832942 138.09795142 284.91950292 139.60253906 281.29052734 C140.34580777 279.43532864 141.0889852 277.58009136 141.82910156 275.72363281 C142.34481877 274.43466536 142.86435597 273.14721975 143.38769531 271.86132812 C144.95363924 268.00084137 146.34959069 264.11719818 147.66503906 260.16552734 C149.25818276 255.704725 150.84378581 253.181876 154.60253906 250.29052734 C157.77798436 249.23204558 160.11321393 249.1341862 163.45092773 249.08520508 C164.65194626 249.06525986 165.85296478 249.04531464 167.09037781 249.02476501 C169.03579216 248.99969627 169.03579216 248.99969627 171.02050781 248.97412109 C172.36144136 248.95354441 173.70236852 248.93254775 175.04328918 248.91114807 C178.56955795 248.85600107 182.09588455 248.8065594 185.62225342 248.75830078 C189.2218539 248.70803184 192.82137165 248.652426 196.42089844 248.59716797 C203.48138183 248.48917212 210.54191154 248.39009215 217.60253906 248.29052734 C217.60253906 232.45052734 217.60253906 216.61052734 217.60253906 200.29052734 C211.21007812 200.25185547 211.21007812 200.25185547 204.68847656 200.21240234 C201.28075327 200.18070527 197.87312215 200.14505404 194.46546936 200.10673523 C190.87360732 200.06742645 187.28199189 200.03501334 183.68994141 200.01953125 C180.22721166 200.0043366 176.76515314 199.96984327 173.30272293 199.92221832 C171.34534165 199.90025982 169.38777088 199.89805602 167.43026733 199.8961792 C156.23476538 199.71233391 156.23476538 199.71233391 151.60253906 195.29052734 C148.16369692 189.70240887 146.12819632 183.51031387 143.89697266 177.36132812 C142.39103237 173.2422795 140.69846398 169.34062711 138.72753906 165.41552734 C136.40871369 160.41767072 135.3605075 155.73833474 136.60253906 150.29052734 C139.70008658 143.8969682 144.0450057 139.45610666 149.08691406 134.51318359 C149.90250793 133.70183456 150.71810181 132.89048553 151.55841064 132.05455017 C154.14946108 129.48021088 156.75077669 126.91653558 159.35253906 124.35302734 C161.11755147 122.60307145 162.88188205 120.85242758 164.64550781 119.10107422 C168.95665598 114.822895 173.27626686 110.55340901 177.60253906 106.29052734 C173.70277185 101.62178197 169.65039262 97.19924925 165.32910156 92.91943359 C164.76049408 92.35224106 164.1918866 91.78504852 163.60604858 91.20066833 C161.81557671 89.41572822 160.02163422 87.63432478 158.22753906 85.85302734 C157.00204583 84.63255795 155.77678334 83.41185681 154.55175781 82.19091797 C151.57134132 79.22143978 148.58781012 76.25512478 145.60253906 73.29052734 C142.48996266 74.67092752 140.40564629 76.25411452 138.03076172 78.68286133 C137.00917465 79.7191996 137.00917465 79.7191996 135.96694946 80.776474 C135.24083466 81.52232254 134.51471985 82.26817108 133.76660156 83.03662109 C132.21203546 84.61161072 130.65734406 86.18647668 129.10253906 87.76123047 C126.66212295 90.24512018 124.22422317 92.7314166 121.7890625 95.22045898 C119.433896 97.62399646 117.06952411 100.01818262 114.70410156 102.41162109 C113.98203522 103.1554454 113.25996887 103.89926971 112.51602173 104.66563416 C107.6124472 109.61687723 103.01785289 113.65931823 95.72753906 113.91552734 C89.11529788 113.73681812 83.73671419 111.00242234 77.88769531 108.22412109 C72.85103094 105.86263803 67.60459252 104.16852737 62.27392578 102.59667969 C57.06613455 100.9167875 54.76092993 98.76937541 51.60253906 94.29052734 C50.26923878 91.62392677 50.44094448 89.54163991 50.3972168 86.55566406 C50.37727158 85.35457001 50.35732635 84.15347595 50.33677673 82.91598511 C50.31170799 80.96282883 50.31170799 80.96282883 50.28613281 78.97021484 C50.26556282 77.62785196 50.24456633 76.28549555 50.22315979 74.94314575 C50.16794376 71.40864297 50.11853248 67.87408177 50.0703125 64.33947754 C50.02009402 60.73326422 49.96446269 57.12713474 49.90917969 53.52099609 C49.80109086 46.44423723 49.70206466 39.36743262 49.60253906 32.29052734 C33.76253906 32.29052734 17.92253906 32.29052734 1.60253906 32.29052734 Z " fill="#B64642" transform="translate(230.3974609375,31.70947265625)"/>
<path d="M0 0 C19.64310634 16.50723368 34.95998326 37.87100875 38 64 C39.99936484 92.27427967 35.23100056 118.17178286 16.328125 140.16015625 C-0.08462646 158.71519166 -22.00986243 172.44500696 -47.21777344 174.22753906 C-75.8329536 175.49950262 -100.20094475 169.80835389 -122.1875 150.625 C-140.72962913 133.23989973 -153.23970686 111.00534464 -154.3828125 85.2890625 C-155.09445376 56.78869783 -148.21659255 32.57486407 -128.3359375 11.37109375 C-94.61920639 -22.8530798 -39.12763276 -29.61944513 0 0 Z M-103.75 33.1875 C-117.10787301 47.67514337 -122.25695075 64.17653374 -121.48046875 83.64453125 C-120.29650392 100.40792249 -112.1409342 114.56128118 -100 126 C-86.47151648 137.14633268 -70.66836928 142.43325097 -53.1796875 141.87890625 C-34.79304276 140.01721049 -19.96644495 131.59460909 -7.96484375 117.53125 C3.88568705 102.26456221 6.50314596 85.86365586 5 67 C2.55790703 51.58643237 -6.46860422 37.81087226 -18.4453125 27.99609375 C-45.60468074 8.28639548 -78.96515603 10.68172214 -103.75 33.1875 Z " fill="#B64642" transform="translate(314,178)"/>
</svg>
