<svg width="22" height="22" viewBox="0 0 22 22" fill="none" xmlns="http://www.w3.org/2000/svg">
<path d="M11 0.166626C5.02646 0.166626 0.166626 5.02646 0.166626 11C0.166626 16.9735 5.02646 21.8333 11 21.8333C16.9735 21.8333 21.8333 16.9735 21.8333 11C21.8333 5.02646 16.9735 0.166626 11 0.166626ZM19.5919 9.91663H16.5975C16.4628 7.54566 15.7995 5.23484 14.6562 3.15338C15.9826 3.77285 17.1307 4.71782 17.9937 5.90034C18.8567 7.08286 19.4065 8.46449 19.5919 9.91663ZM11.5741 2.36254C12.6954 3.84021 14.2034 6.45754 14.42 9.91663H7.78246C7.93304 7.10429 8.85929 4.46963 10.4377 2.36146C10.624 2.35063 10.8104 2.33329 11 2.33329C11.1939 2.33329 11.3835 2.35063 11.5741 2.36254ZM7.41196 3.12088C6.34596 5.16946 5.73063 7.49213 5.61579 9.91663H2.40804C2.59491 8.45168 3.15257 7.05867 4.02821 5.86946C4.90386 4.68026 6.06853 3.73421 7.41196 3.12088ZM2.40804 12.0833H5.62988C5.77721 14.6605 6.35029 16.9345 7.31554 18.8325C5.99625 18.2106 4.855 17.2661 3.99725 16.0865C3.1395 14.9069 2.59293 13.53 2.40804 12.0833ZM10.4041 19.6374C8.88638 17.7979 7.99046 15.2206 7.79438 12.0833H14.4168C14.1915 15.0874 13.2067 17.7123 11.5969 19.6363C11.3997 19.6493 11.2025 19.6666 11 19.6666C10.7985 19.6666 10.6024 19.6493 10.4041 19.6374ZM14.7494 18.801C15.784 16.8575 16.4155 14.575 16.5813 12.0833H19.5908C19.4084 13.5181 18.8699 14.8844 18.0243 16.0578C17.1786 17.2311 16.0528 18.1742 14.7494 18.801Z" fill="url(#paint0_linear_245_4389)"/>
<defs>
<linearGradient id="paint0_linear_245_4389" x1="0.166626" y1="2.87496" x2="25.625" y2="21.8333" gradientUnits="userSpaceOnUse">
<stop stop-color="#E95A56"/>
<stop offset="1" stop-color="#833330"/>
</linearGradient>
</defs>
</svg>
