<svg width="24" height="25" viewBox="0 0 24 25" fill="none" xmlns="http://www.w3.org/2000/svg">
<path d="M8 20.6379H16V17.6379C16 16.5379 15.6083 15.5963 14.825 14.8129C14.0417 14.0296 13.1 13.6379 12 13.6379C10.9 13.6379 9.95834 14.0296 9.175 14.8129C8.39167 15.5963 8 16.5379 8 17.6379V20.6379ZM12 11.6379C13.1 11.6379 14.0417 11.2463 14.825 10.4629C15.6083 9.67961 16 8.73794 16 7.63794V4.63794H8V7.63794C8 8.73794 8.39167 9.67961 9.175 10.4629C9.95834 11.2463 10.9 11.6379 12 11.6379ZM5 22.6379C4.71667 22.6379 4.47934 22.5419 4.288 22.3499C4.09667 22.1579 4.00067 21.9206 4 21.6379C3.99934 21.3553 4.09534 21.1179 4.288 20.9259C4.48067 20.7339 4.718 20.6379 5 20.6379H6V17.6379C6 16.6213 6.23767 15.6669 6.713 14.7749C7.18834 13.8829 7.85067 13.1706 8.7 12.6379C7.85 12.1046 7.18767 11.3923 6.713 10.5009C6.23834 9.60961 6.00067 8.65527 6 7.63794V4.63794H5C4.71667 4.63794 4.47934 4.54194 4.288 4.34994C4.09667 4.15794 4.00067 3.92061 4 3.63794C3.99934 3.35527 4.09534 3.11794 4.288 2.92594C4.48067 2.73394 4.718 2.63794 5 2.63794H19C19.2833 2.63794 19.521 2.73394 19.713 2.92594C19.905 3.11794 20.0007 3.35527 20 3.63794C19.9993 3.92061 19.9033 4.15827 19.712 4.35094C19.5207 4.54361 19.2833 4.63927 19 4.63794H18V7.63794C18 8.65461 17.7627 9.60894 17.288 10.5009C16.8133 11.3929 16.1507 12.1053 15.3 12.6379C16.15 13.1713 16.8127 13.8839 17.288 14.7759C17.7633 15.6679 18.0007 16.6219 18 17.6379V20.6379H19C19.2833 20.6379 19.521 20.7339 19.713 20.9259C19.905 21.1179 20.0007 21.3553 20 21.6379C19.9993 21.9206 19.9033 22.1583 19.712 22.3509C19.5207 22.5436 19.2833 22.6393 19 22.6379H5Z" fill="#444444"/>
</svg>
