<svg width="20" height="21" viewBox="0 0 20 21" fill="none" xmlns="http://www.w3.org/2000/svg">
<path d="M4.9987 5.63792C4.9987 5.17768 5.37179 4.80459 5.83203 4.80459H5.83952C6.29975 4.80459 6.67285 5.17768 6.67285 5.63792C6.67285 6.09816 6.29975 6.47125 5.83952 6.47125H5.83203C5.37179 6.47125 4.9987 6.09816 4.9987 5.63792Z" fill="url(#paint0_linear_3757_31557)"/>
<path d="M9.16536 4.80459C8.70513 4.80459 8.33203 5.17768 8.33203 5.63792C8.33203 6.09816 8.70513 6.47125 9.16536 6.47125H9.17285C9.63309 6.47125 10.0062 6.09816 10.0062 5.63792C10.0062 5.17768 9.63309 4.80459 9.17285 4.80459H9.16536Z" fill="url(#paint1_linear_3757_31557)"/>
<path fill-rule="evenodd" clip-rule="evenodd" d="M10.0463 2.09625H9.95105C8.12547 2.09624 6.69157 2.09623 5.57205 2.24675C4.42484 2.40099 3.51462 2.72352 2.79946 3.43868C2.08429 4.15385 1.76177 5.06406 1.60753 6.21127C1.45701 7.33079 1.45702 8.76469 1.45703 10.5903V10.6856C1.45702 12.5112 1.45701 13.9451 1.60753 15.0646C1.76177 16.2118 2.08429 17.122 2.79946 17.8372C3.51462 18.5523 4.42484 18.8749 5.57205 19.0291C6.69156 19.1796 8.12545 19.1796 9.95103 19.1796H10.0463C11.8719 19.1796 13.3058 19.1796 14.4253 19.0291C15.5726 18.8749 16.4828 18.5523 17.1979 17.8372C17.9131 17.122 18.2356 16.2118 18.3899 15.0646C18.5404 13.9451 18.5404 12.5112 18.5404 10.6856V10.5903C18.5404 8.7647 18.5404 7.33078 18.3899 6.21127C18.2356 5.06406 17.9131 4.15385 17.1979 3.43868C16.4828 2.72352 15.5726 2.40099 14.4253 2.24675C13.3058 2.09623 11.8719 2.09624 10.0463 2.09625ZM3.68334 4.32256C4.12755 3.87836 4.73001 3.6212 5.73861 3.4856C6.76519 3.34758 8.11505 3.34625 9.9987 3.34625C11.8823 3.34625 13.2322 3.34758 14.2588 3.4856C15.2674 3.6212 15.8698 3.87836 16.3141 4.32256C16.7583 4.76677 17.0154 5.36923 17.151 6.37783C17.1968 6.71812 17.2275 7.09393 17.2481 7.51292H2.74926C2.7699 7.09393 2.80063 6.71812 2.84638 6.37783C2.98198 5.36923 3.23914 4.76677 3.68334 4.32256ZM2.71434 8.76292C2.70721 9.32249 2.70703 9.94398 2.70703 10.6379C2.70703 12.5216 2.70836 13.8714 2.84638 14.898C2.98198 15.9066 3.23914 16.5091 3.68334 16.9533C4.12755 17.3975 4.73001 17.6546 5.73861 17.7902C6.76519 17.9283 8.11505 17.9296 9.9987 17.9296C11.8823 17.9296 13.2322 17.9283 14.2588 17.7902C15.2674 17.6546 15.8698 17.3975 16.3141 16.9533C16.7583 16.5091 17.0154 15.9066 17.151 14.898C17.289 13.8714 17.2904 12.5216 17.2904 10.6379C17.2904 9.94398 17.2902 9.32249 17.2831 8.76292H2.71434Z" fill="url(#paint2_linear_3757_31557)"/>
<defs>
<linearGradient id="paint0_linear_3757_31557" x1="1.45703" y1="4.23167" x2="21.5299" y2="19.1796" gradientUnits="userSpaceOnUse">
<stop stop-color="#E95A56"/>
<stop offset="1" stop-color="#833330"/>
</linearGradient>
<linearGradient id="paint1_linear_3757_31557" x1="1.45703" y1="4.23167" x2="21.5299" y2="19.1796" gradientUnits="userSpaceOnUse">
<stop stop-color="#E95A56"/>
<stop offset="1" stop-color="#833330"/>
</linearGradient>
<linearGradient id="paint2_linear_3757_31557" x1="1.45703" y1="4.23167" x2="21.5299" y2="19.1796" gradientUnits="userSpaceOnUse">
<stop stop-color="#E95A56"/>
<stop offset="1" stop-color="#833330"/>
</linearGradient>
</defs>
</svg>
