<?xml version="1.0" encoding="UTF-8"?>
<svg version="1.1" xmlns="http://www.w3.org/2000/svg" width="512" height="512">
<path d="M0 0 C4.11636568 0.82327314 5.62530619 1.56409403 8.4375 4.6875 C9.15914439 7.94613216 8.98774501 11.1394857 8.8671875 14.4609375 C8.84792206 15.4965683 8.82865662 16.5321991 8.80880737 17.59921265 C8.72272799 21.29744665 8.58557668 24.99123036 8.4375 28.6875 C8.40979019 29.39578445 8.38208038 30.10406891 8.35353088 30.83381653 C7.89562578 42.45225327 7.31093258 54.06326426 6.6998291 65.67449951 C6.51675591 69.19121349 6.34152006 72.70830089 6.16612434 76.22540474 C3.65641351 126.40014016 3.65641351 126.40014016 0.3125 141.5625 C0.09859619 142.54677979 -0.11530762 143.53105957 -0.33569336 144.54516602 C-7.39453258 175.58681186 -20.46519963 207.44391739 -43.18115234 230.28710938 C-44.42374627 231.54683344 -45.63039067 232.8417777 -46.83203125 234.140625 C-68.40076999 257.02989876 -103.44552022 271.5895386 -134.70727539 272.81030273 C-160.24317273 273.38545918 -187.38472388 272.16939825 -209.5625 257.6875 C-211.77817375 255.21001797 -212.49866671 254.06252058 -213.0625 250.75 C-212.37553325 246.54232869 -210.9897611 245.16679527 -207.5625 242.6875 C-202.30450123 242.20608989 -198.90323195 243.10847992 -194.1875 245.375 C-165.95780694 258.27692699 -133.21721905 259.82576985 -103.99707031 249.2956543 C-69.73370116 236.18178571 -43.4278678 208.89957682 -28.46386719 175.72802734 C-28.16641602 175.05465332 -27.86896484 174.3812793 -27.5625 173.6875 C-27.25473633 172.99221191 -26.94697266 172.29692383 -26.62988281 171.58056641 C-22.89184177 162.96197962 -19.97818041 154.25205056 -17.75 145.125 C-17.45766479 143.94127808 -17.45766479 143.94127808 -17.15942383 142.73364258 C-13.88059079 128.37989707 -13.19524645 113.58073115 -12.52734375 98.921875 C-12.44353435 97.18692075 -12.35909456 95.45199684 -12.27406311 93.71710205 C-12.05424532 89.20837297 -11.84067577 84.69937439 -11.62921143 80.19024658 C-11.28860775 72.93395643 -10.94167357 65.67798548 -10.58822823 58.42230988 C-10.46692449 55.90259592 -10.3504479 53.38269081 -10.23435974 50.86273193 C-10.16025895 49.3209135 -10.08597395 47.77910391 -10.01147461 46.23730469 C-9.98080902 45.54328049 -9.95014343 44.84925629 -9.91854858 44.13420105 C-9.74120422 40.56411417 -9.37304875 37.17079716 -8.5625 33.6875 C-9.24054688 34.244375 -9.91859375 34.80125 -10.6171875 35.375 C-12.5785116 36.9831771 -14.54223271 38.58843342 -16.5078125 40.19140625 C-18.34280973 41.69084772 -20.17268303 43.19663986 -21.9921875 44.71484375 C-54.60101255 71.55948256 -94.74734228 84.91738365 -134.296875 97.89453125 C-171.88193045 110.2296267 -214.60375315 126.50195743 -234.3125 163.625 C-240.66124716 177.1396598 -241.81831325 191.52109597 -236.91796875 205.69140625 C-234.75006613 210.48328322 -231.8476818 214.59947883 -228.5625 218.6875 C-227.76392578 217.68783203 -227.76392578 217.68783203 -226.94921875 216.66796875 C-208.48355263 193.60855263 -208.48355263 193.60855263 -200.5625 185.6875 C-198.80977574 174.05884869 -202.34511579 163.67090958 -207.73046875 153.4765625 C-209.22013172 150.27343742 -209.23005074 147.12362962 -208.5625 143.6875 C-206.45414981 140.98617632 -205.04082834 139.91103755 -201.625 139.39453125 C-198.48010748 139.46004984 -196.38351437 139.87091159 -194.11328125 142.12890625 C-188.84210194 150.09387435 -185.82356695 159.76247466 -182.5625 168.6875 C-182.03785156 168.23761719 -181.51320313 167.78773438 -180.97265625 167.32421875 C-175.46571884 162.75190299 -169.75008534 158.70794795 -163.75 154.8125 C-162.65667358 154.09839966 -162.65667358 154.09839966 -161.54125977 153.36987305 C-157.97740364 151.08371077 -154.59568092 149.06622982 -150.5625 147.6875 C-152.0348037 143.02520496 -153.31212157 139.6951118 -156.6875 136.125 C-159.73136964 132.79268386 -160.64815631 130.31294052 -160.5625 125.6875 C-159.21687601 122.73994268 -158.47695456 121.14472728 -155.5625 119.6875 C-151.38430753 119.20540087 -149.19716573 119.30405612 -145.5625 121.5 C-140.73281462 126.01725291 -136.64580881 132.43757356 -134.5625 138.6875 C-127.55132847 136.64056027 -121.30203203 133.69157199 -114.875 130.25 C-113.96427734 129.77240234 -113.05355469 129.29480469 -112.11523438 128.80273438 C-107.41813561 126.31603503 -102.91411413 123.74012484 -98.5625 120.6875 C-98.8925 119.511875 -99.2225 118.33625 -99.5625 117.125 C-100.73550669 112.35702317 -101.56992019 107.93938043 -99.5 103.3125 C-96.59576481 100.87668984 -94.30292509 100.75199009 -90.5625 100.6875 C-87.61812992 101.75818003 -86.1168376 102.68345881 -84.58984375 105.44921875 C-83.8413982 107.16542181 -83.19433026 108.92502611 -82.5625 110.6875 C-70.45979881 101.89120687 -58.90682236 92.45442446 -49.5625 80.6875 C-46.50556678 79.15903339 -43.93265453 79.45507555 -40.5625 79.6875 C-37.73526206 81.10111897 -36.83704131 82.02860086 -35.625 84.9375 C-35.45269721 92.51882284 -40.65045184 97.5410595 -45.5625 102.6875 C-46.40167969 103.58662109 -46.40167969 103.58662109 -47.2578125 104.50390625 C-51.1143098 108.51286972 -55.27398859 111.89753477 -59.7421875 115.20703125 C-61.67674063 116.57287596 -61.67674063 116.57287596 -62.5625 118.6875 C-61.716875 118.66429687 -60.87125 118.64109375 -60 118.6171875 C-44.21556122 118.36607143 -44.21556122 118.36607143 -39.5625 122.4375 C-38.19897852 125.50542333 -38.01937491 127.36085882 -38.5625 130.6875 C-40.25 133.5625 -40.25 133.5625 -43.5625 135.6875 C-50.27329014 136.33969798 -57.06826888 135.69912925 -63.75390625 135.00390625 C-64.96626953 134.88208984 -66.17863281 134.76027344 -67.42773438 134.63476562 C-69.8994013 134.37754514 -72.36841947 134.09350856 -74.83398438 133.78320312 C-83.3380593 132.99117912 -88.17164892 134.31024967 -95.24975586 139.13647461 C-97.5625 140.6875 -97.5625 140.6875 -99.5625 140.6875 C-99.5625 141.3475 -99.5625 142.0075 -99.5625 142.6875 C-98.97984375 142.69007813 -98.3971875 142.69265625 -97.796875 142.6953125 C-89.0981215 143.10563106 -81.03665085 146.46221572 -74.3125 152.0625 C-71.70759631 155.96985554 -71.82482359 158.04013859 -72.5625 162.6875 C-75.03471053 165.59598298 -76.64868892 166.50473778 -80.375 167.25 C-84.1781822 166.5788502 -86.39544134 165.05305637 -89.5625 162.9296875 C-102.29268854 155.02304696 -124.55780109 157.8125974 -138.5625 160.6875 C-142.68330849 162.15518522 -145.98006209 164.20152052 -149.5625 166.6875 C-150.8689903 167.53969185 -152.17776066 168.38839413 -153.48828125 169.234375 C-160.3717198 173.52399146 -160.3717198 173.52399146 -166.5625 178.6875 C-165.61375 178.66429687 -164.665 178.64109375 -163.6875 178.6171875 C-144.20892024 178.2952275 -122.07363781 178.05510344 -104.5625 187.6875 C-102.37380855 190.35199395 -102.56462154 191.74796401 -102.6875 195.25 C-103.5625 198.6875 -103.5625 198.6875 -105.125 200.625 C-110.14009933 202.81106894 -114.72128351 202.12512278 -119.6875 200.3125 C-131.05320312 196.19485942 -143.26917854 196.39129029 -155.19482422 196.48168945 C-157.69118464 196.50002707 -160.18717264 196.50219763 -162.68359375 196.50195312 C-169.6112896 196.51491468 -176.54576651 196.59007341 -183.46484375 196.94921875 C-184.80276978 197.01629028 -184.80276978 197.01629028 -186.16772461 197.0847168 C-190.91354567 198.2792761 -193.51052537 202.18678132 -196.30078125 205.98291016 C-197.7127723 207.89051881 -199.18045702 209.74681341 -200.65625 211.60546875 C-230.94394582 250.05270021 -252.74193532 296.02598208 -263.43359375 343.80859375 C-263.66434097 344.83385162 -263.66434097 344.83385162 -263.89974976 345.87982178 C-264.6456575 349.21602056 -265.36222521 352.55316924 -266.04199219 355.90380859 C-268.47379736 367.24160687 -268.47379736 367.24160687 -273.5625 370.6875 C-277.2810985 371.38473722 -279.03502854 370.93976896 -282.4375 369.3125 C-285.67729667 365.31039824 -285.01303552 361.68246377 -284.5625 356.6875 C-283.80259547 352.35932123 -282.83793627 348.09733266 -281.79150391 343.82983398 C-281.31651719 341.89139433 -280.85934786 339.94861719 -280.40234375 338.00585938 C-278.65798033 330.7129357 -276.65530579 323.63987101 -274.11035156 316.58325195 C-271.94212437 305.12276056 -285.92882081 286.76024479 -292.13574219 277.6105957 C-297.69409835 269.73322045 -303.7436921 262.5063079 -310.5625 255.6875 C-311.37203125 254.87796875 -312.1815625 254.0684375 -313.015625 253.234375 C-322.43117203 244.30479169 -333.57621556 238.54673765 -345.109375 232.88671875 C-362.08581562 224.54112521 -378.02379659 215.91809501 -392.5625 203.6875 C-393.38105469 203.00429688 -394.19960938 202.32109375 -395.04296875 201.6171875 C-400.10960468 197.26963367 -404.16535822 193.50635421 -406.5 187.125 C-406.58468306 183.82236078 -405.5331487 182.2915715 -403.5625 179.6875 C-400.04425489 177.34200326 -398.70474306 177.10758597 -394.5625 177.6875 C-392.1875 179.6875 -392.1875 179.6875 -389.5625 182.6875 C-375.06332144 198.67559176 -354.9640403 208.78745709 -335.6875 217.8125 C-323.26030296 223.64934724 -312.84107146 230.18761005 -302.78125 239.64453125 C-300.56110271 241.74401474 -300.56110271 241.74401474 -298.0078125 243.68359375 C-294.96348739 246.17838414 -292.67258111 249.02613248 -290.2109375 252.078125 C-288.58869756 254.03678903 -288.58869756 254.03678903 -285.5625 253.6875 C-281.05291125 245.97755795 -279.34082734 238.52047906 -281.5 229.6875 C-287.77351397 211.90785502 -304.45073 201.522181 -320.54052734 193.72949219 C-331.1733032 188.74101622 -342.28112872 184.99907219 -353.36383057 181.16067505 C-376.21590494 173.24512752 -398.29053878 165.2116848 -417.77954102 150.53613281 C-418.49070572 150.00111145 -419.20187042 149.46609009 -419.93458557 148.91485596 C-420.47179733 148.50982849 -421.00900909 148.10480103 -421.5625 147.6875 C-421.34714329 153.60652309 -421.11643458 159.52470013 -420.87280273 165.44262695 C-420.79230686 167.44670212 -420.71567043 169.45093685 -420.64331055 171.45532227 C-420.05436099 187.65752754 -419.4155494 204.52166766 -413.875 219.9375 C-413.62153809 220.66582031 -413.36807617 221.39414062 -413.10693359 222.14453125 C-408.05376793 236.0884797 -400.503424 248.54713141 -389.5625 258.6875 C-388.70011719 259.57501953 -388.70011719 259.57501953 -387.8203125 260.48046875 C-374.54046114 273.4345879 -356.25111036 278.87834612 -338.06176758 278.94506836 C-329.47850123 278.83597154 -320.71188283 277.40396094 -312.5625 274.6875 C-306.38348765 274.1257716 -306.38348765 274.1257716 -303.1875 276.3125 C-301.17743957 279.25028062 -300.63516021 281.1271496 -300.5625 284.6875 C-301.96464865 287.71391986 -302.93777247 289.33820133 -305.875 290.98046875 C-306.761875 291.27566406 -307.64875 291.57085937 -308.5625 291.875 C-309.861875 292.32939453 -309.861875 292.32939453 -311.1875 292.79296875 C-329.64846559 297.6859793 -349.36669848 297.50403382 -367.5625 291.6875 C-368.69558594 291.336875 -369.82867187 290.98625 -370.99609375 290.625 C-394.91569138 282.35507909 -412.40298369 264.04324744 -423.50830078 241.79248047 C-432.14431069 224.00980177 -436.37052674 205.24729463 -437.4140625 185.546875 C-437.47782074 184.42218811 -437.54157898 183.29750122 -437.60726929 182.13873291 C-437.73981703 179.76910128 -437.86905413 177.39928233 -437.99511719 175.02929688 C-438.18481363 171.48765467 -438.38848797 167.94702002 -438.59375 164.40625 C-439.23405671 153.0126448 -439.72911596 141.61411326 -439.8984375 130.203125 C-439.92676666 129.1990863 -439.95509583 128.19504761 -439.98428345 127.1605835 C-440.02585653 120.36607921 -440.02585653 120.36607921 -437.77856445 117.07495117 C-435.09947877 115.39760801 -432.81981711 114.9160482 -429.65869141 115.08642578 C-425.40263514 116.30683232 -422.99216109 119.83163609 -420.25 123.125 C-418.93312991 124.60969053 -417.6115101 126.09018191 -416.28515625 127.56640625 C-415.64723145 128.28199707 -415.00930664 128.99758789 -414.35205078 129.73486328 C-397.51402091 148.1073821 -372.39570105 156.4231766 -349.4375 164.11328125 C-348.54530762 164.41315948 -347.65311523 164.71303772 -346.73388672 165.02200317 C-342.28570636 166.514241 -337.83273713 167.98731712 -333.3671875 169.42675781 C-309.03972927 177.39410728 -283.20957205 191.12434088 -269.5625 213.6875 C-263.10372139 226.66932366 -261.5902443 239.80212831 -265.5078125 253.88671875 C-267.39819531 258.90673533 -270.20332134 263.67061288 -274.3125 267.18359375 C-274.725 267.67988281 -275.1375 268.17617188 -275.5625 268.6875 C-275.09995229 271.75536895 -273.93061548 273.98311622 -272.27734375 276.578125 C-271.82939453 277.28710938 -271.38144531 277.99609375 -270.91992188 278.7265625 C-270.45134766 279.45617187 -269.98277344 280.18578125 -269.5 280.9375 C-269.02755859 281.68257813 -268.55511719 282.42765625 -268.06835938 283.1953125 C-266.90459094 285.02912943 -265.73418712 286.85873244 -264.5625 288.6875 C-264.0778125 287.51316406 -263.593125 286.33882813 -263.09375 285.12890625 C-256.47622663 269.1874493 -249.53986656 253.86779125 -240.56640625 239.1015625 C-238.50435173 235.85889554 -238.50435173 235.85889554 -237.5625 232.6875 C-238.41521484 232.37232422 -238.41521484 232.37232422 -239.28515625 232.05078125 C-247.79000636 226.95954164 -252.99042341 213.72218919 -255.5625 204.6875 C-256.50859969 200.36531825 -257.14587047 196.09104265 -257.5625 191.6875 C-257.6346875 190.94371094 -257.706875 190.19992187 -257.78125 189.43359375 C-258.72887977 168.62522333 -248.55608302 149.57183721 -235.08691406 134.46582031 C-232.63926279 131.81119276 -230.12255398 129.23351186 -227.5625 126.6875 C-226.75167969 125.87667969 -225.94085938 125.06585938 -225.10546875 124.23046875 C-199.26884659 99.76494429 -163.21565241 89.13327656 -130.30831909 78.07272339 C-84.91507301 62.8065012 -37.89559402 44.96788686 -7.85546875 5.44140625 C-5.35555385 2.16315373 -4.12915932 0.79685531 0 0 Z " fill="#B94743" transform="translate(471.5625,70.3125)"/>
</svg>
