<svg width="457" height="231" viewBox="0 0 457 231" fill="none" xmlns="http://www.w3.org/2000/svg">
<g opacity="0.2">
<mask id="mask0_2349_63114" style="mask-type:luminance" maskUnits="userSpaceOnUse" x="383" y="43" width="74" height="144">
<path d="M453.47 186.984L383.574 117.088L457 43.6539L453.47 186.984Z" fill="white"/>
</mask>
<g mask="url(#mask0_2349_63114)">
<path d="M456.522 199.575L448.426 191.486L456.929 182.983L456.522 199.575Z" fill="#E07373"/>
<path d="M457.024 179.126L448.936 171.038L457.43 162.535L457.024 179.126Z" fill="#E07373"/>
<path d="M446.546 189.606L438.457 181.509L446.96 173.014L446.546 189.606Z" fill="#E07373"/>
<path d="M436.074 200.077L427.978 191.988L436.48 183.485L436.074 200.077Z" fill="#E07373"/>
<path d="M457.526 158.678L449.438 150.581L457.94 142.087L457.526 158.678Z" fill="#E07373"/>
<path d="M447.055 169.149L438.958 161.061L447.461 152.558L447.055 169.149Z" fill="#E07373"/>
<path d="M436.577 179.628L428.488 171.54L436.983 163.037L436.577 179.628Z" fill="#E07373"/>
<path d="M426.096 190.108L418.008 182.019L426.503 173.516L426.096 190.108Z" fill="#E07373"/>
<path d="M415.618 200.587L407.529 192.49L416.032 183.995L415.618 200.587Z" fill="#E07373"/>
<path d="M458.037 138.222L449.94 130.133L458.443 121.638L458.037 138.222Z" fill="#E07373"/>
<path d="M447.558 148.701L439.47 140.612L447.965 132.109L447.558 148.701Z" fill="#E07373"/>
<path d="M437.079 159.18L428.99 151.092L437.493 142.589L437.079 159.18Z" fill="#E07373"/>
<path d="M426.598 169.659L418.51 161.563L427.013 153.068L426.598 169.659Z" fill="#E07373"/>
<path d="M416.129 180.13L408.032 172.042L416.535 163.547L416.129 180.13Z" fill="#E07373"/>
<path d="M405.649 190.61L397.561 182.521L406.055 174.018L405.649 190.61Z" fill="#E07373"/>
<path d="M395.17 201.089L387.081 193L395.584 184.497L395.17 201.089Z" fill="#E07373"/>
<path d="M458.539 117.773L450.45 109.685L458.945 101.182L458.539 117.773Z" fill="#E07373"/>
<path d="M448.06 128.252L439.972 120.164L448.475 111.661L448.06 128.252Z" fill="#E07373"/>
<path d="M437.581 138.732L429.492 130.643L437.995 122.14L437.581 138.732Z" fill="#E07373"/>
<path d="M427.109 149.211L419.013 141.114L427.516 132.619L427.109 149.211Z" fill="#E07373"/>
<path d="M416.63 159.682L408.542 151.594L417.037 143.091L416.63 159.682Z" fill="#E07373"/>
<path d="M406.151 170.161L398.062 162.073L406.565 153.57L406.151 170.161Z" fill="#E07373"/>
<path d="M395.672 180.64L387.583 172.544L396.086 164.049L395.672 180.64Z" fill="#E07373"/>
<path d="M385.2 191.12L377.104 183.023L385.606 174.528L385.2 191.12Z" fill="#E07373"/>
<path d="M459.041 97.3249L450.952 89.2364L459.455 80.7335L459.041 97.3249Z" fill="#E07373"/>
<path d="M448.569 107.804L440.473 99.7156L448.976 91.2127L448.569 107.804Z" fill="#E07373"/>
<path d="M438.091 118.283L429.994 110.187L438.497 101.692L438.091 118.283Z" fill="#E07373"/>
<path d="M427.611 128.755L419.522 120.666L428.017 112.163L427.611 128.755Z" fill="#E07373"/>
<path d="M417.132 139.234L409.044 131.145L417.547 122.642L417.132 139.234Z" fill="#E07373"/>
<path d="M406.661 149.713L398.564 141.624L407.067 133.121L406.661 149.713Z" fill="#E07373"/>
<path d="M396.181 160.192L388.085 152.096L396.588 143.601L396.181 160.192Z" fill="#E07373"/>
<path d="M385.703 170.663L377.614 162.575L386.109 154.072L385.703 170.663Z" fill="#E07373"/>
<path d="M459.551 76.8765L451.454 68.788L459.957 60.2851L459.551 76.8765Z" fill="#E07373"/>
<path d="M449.071 87.3557L440.982 79.2592L449.477 70.7643L449.071 87.3557Z" fill="#E07373"/>
<path d="M438.592 97.8269L430.504 89.7384L438.999 81.2355L438.592 97.8269Z" fill="#E07373"/>
<path d="M428.113 108.306L420.024 100.218L428.527 91.7147L428.113 108.306Z" fill="#E07373"/>
<path d="M417.642 118.785L409.546 110.697L418.049 102.194L417.642 118.785Z" fill="#E07373"/>
<path d="M407.163 129.264L399.074 121.168L407.569 112.673L407.163 129.264Z" fill="#E07373"/>
<path d="M396.683 139.736L388.595 131.647L397.09 123.144L396.683 139.736Z" fill="#E07373"/>
<path d="M386.205 150.215L378.116 142.126L386.619 133.623L386.205 150.215Z" fill="#E07373"/>
<path d="M460.052 56.4281L451.964 48.3317L460.459 39.8367L460.052 56.4281Z" fill="#E07373"/>
<path d="M449.573 66.8993L441.484 58.8108L449.979 50.3159L449.573 66.8993Z" fill="#E07373"/>
<path d="M439.094 77.3785L431.006 69.29L439.509 60.7872L439.094 77.3785Z" fill="#E07373"/>
<path d="M428.623 87.8578L420.526 79.7693L429.029 71.2664L428.623 87.8578Z" fill="#E07373"/>
<path d="M418.144 98.3369L410.056 90.2405L418.551 81.7455L418.144 98.3369Z" fill="#E07373"/>
<path d="M407.665 108.808L399.576 100.72L408.079 92.2247L407.665 108.808Z" fill="#E07373"/>
<path d="M397.186 119.287L389.098 111.199L397.601 102.696L397.186 119.287Z" fill="#E07373"/>
<path d="M386.715 129.767L378.618 121.678L387.121 113.175L386.715 129.767Z" fill="#E07373"/>
<path d="M450.076 46.451L441.987 38.3625L450.49 29.8596L450.076 46.451Z" fill="#E07373"/>
<path d="M439.604 56.9302L431.508 48.8417L440.011 40.3388L439.604 56.9302Z" fill="#E07373"/>
<path d="M429.125 67.4094L421.036 59.3129L429.531 50.818L429.125 67.4094Z" fill="#E07373"/>
<path d="M418.647 77.8886L410.559 69.7921L419.061 61.2972L418.647 77.8886Z" fill="#E07373"/>
<path d="M408.167 88.3598L400.078 80.2713L408.581 71.7684L408.167 88.3598Z" fill="#E07373"/>
<path d="M397.695 98.839L389.599 90.7505L398.102 82.2476L397.695 98.839Z" fill="#E07373"/>
<path d="M387.216 109.318L379.128 101.222L387.623 92.7268L387.216 109.318Z" fill="#E07373"/>
<path d="M429.627 46.961L421.538 38.8646L430.041 30.3696L429.627 46.961Z" fill="#E07373"/>
<path d="M419.157 57.4322L411.061 49.3437L419.563 40.8408L419.157 57.4322Z" fill="#E07373"/>
<path d="M408.677 67.9115L400.58 59.8229L409.083 51.3201L408.677 67.9115Z" fill="#E07373"/>
<path d="M398.198 78.3906L390.109 70.3021L398.604 61.7992L398.198 78.3906Z" fill="#E07373"/>
<path d="M387.718 88.8698L379.63 80.7734L388.133 72.2784L387.718 88.8698Z" fill="#E07373"/>
<path d="M409.179 47.4631L401.091 39.3746L409.586 30.8717L409.179 47.4631Z" fill="#E07373"/>
<path d="M398.7 57.9422L390.611 49.8458L399.114 41.3508L398.7 57.9422Z" fill="#E07373"/>
<path d="M388.229 68.4135L380.133 60.325L388.636 51.8221L388.229 68.4135Z" fill="#E07373"/>
<path d="M388.731 47.9651L380.643 39.8766L389.138 31.3737L388.731 47.9651Z" fill="#E07373"/>
</g>
<mask id="mask1_2349_63114" style="mask-type:luminance" maskUnits="userSpaceOnUse" x="265" y="0" width="119" height="231">
<path d="M377.892 230.638L265.418 118.164L383.582 0L377.892 230.638Z" fill="white"/>
</mask>
<g mask="url(#mask1_2349_63114)">
<path d="M382.808 250.903L369.787 237.882L383.462 224.207L382.808 250.903Z" fill="#E07373"/>
<path d="M383.622 217.999L370.601 204.978L384.275 191.295L383.622 217.999Z" fill="#E07373"/>
<path d="M366.76 234.854L353.738 221.84L367.421 208.157L366.76 234.854Z" fill="#E07373"/>
<path d="M349.896 251.716L336.875 238.694L350.558 225.02L349.896 251.716Z" fill="#E07373"/>
<path d="M384.426 185.087L371.413 172.066L385.088 158.391L384.426 185.087Z" fill="#E07373"/>
<path d="M367.572 201.95L354.551 188.928L368.226 175.254L367.572 201.95Z" fill="#E07373"/>
<path d="M350.71 218.812L337.688 205.791L351.371 192.108L350.71 218.812Z" fill="#E07373"/>
<path d="M333.848 235.666L320.835 222.645L334.51 208.97L333.848 235.666Z" fill="#E07373"/>
<path d="M316.993 252.529L303.972 239.507L317.646 225.833L316.993 252.529Z" fill="#E07373"/>
<path d="M385.239 152.183L372.218 139.162L385.901 125.479L385.239 152.183Z" fill="#E07373"/>
<path d="M368.385 169.038L355.363 156.024L369.038 142.342L368.385 169.038Z" fill="#E07373"/>
<path d="M351.522 185.9L338.501 172.879L352.184 159.204L351.522 185.9Z" fill="#E07373"/>
<path d="M334.66 202.762L321.639 189.741L335.321 176.058L334.66 202.762Z" fill="#E07373"/>
<path d="M317.805 219.617L304.784 206.603L318.459 192.921L317.805 219.617Z" fill="#E07373"/>
<path d="M300.943 236.479L287.922 223.458L301.605 209.783L300.943 236.479Z" fill="#E07373"/>
<path d="M284.081 253.341L271.06 240.32L284.742 226.645L284.081 253.341Z" fill="#E07373"/>
<path d="M386.052 119.272L373.03 106.25L386.713 92.5755L386.052 119.272Z" fill="#E07373"/>
<path d="M369.19 136.134L356.177 123.113L369.852 109.438L369.19 136.134Z" fill="#E07373"/>
<path d="M352.336 152.996L339.314 139.975L352.989 126.292L352.336 152.996Z" fill="#E07373"/>
<path d="M335.473 169.851L322.452 156.829L336.135 143.155L335.473 169.851Z" fill="#E07373"/>
<path d="M318.612 186.713L305.599 173.692L319.273 160.017L318.612 186.713Z" fill="#E07373"/>
<path d="M301.757 203.575L288.735 190.554L302.41 176.871L301.757 203.575Z" fill="#E07373"/>
<path d="M284.894 220.43L271.873 207.408L285.556 193.734L284.894 220.43Z" fill="#E07373"/>
<path d="M268.032 237.292L255.019 224.271L268.693 210.596L268.032 237.292Z" fill="#E07373"/>
<path d="M386.865 86.3676L373.844 73.3463L387.526 59.6636L386.865 86.3676Z" fill="#E07373"/>
<path d="M370.003 103.222L356.989 90.2087L370.664 76.526L370.003 103.222Z" fill="#E07373"/>
<path d="M353.148 120.084L340.127 107.063L353.802 93.3883L353.148 120.084Z" fill="#E07373"/>
<path d="M336.286 136.947L323.265 123.925L336.947 110.243L336.286 136.947Z" fill="#E07373"/>
<path d="M319.424 153.801L306.402 140.788L320.085 127.105L319.424 153.801Z" fill="#E07373"/>
<path d="M302.569 170.663L289.548 157.642L303.223 143.967L302.569 170.663Z" fill="#E07373"/>
<path d="M285.707 187.526L272.686 174.504L286.368 160.83L285.707 187.526Z" fill="#E07373"/>
<path d="M268.845 204.38L255.823 191.367L269.506 177.684L268.845 204.38Z" fill="#E07373"/>
<path d="M387.679 53.4559L374.657 40.4346L388.34 26.7598L387.679 53.4559Z" fill="#E07373"/>
<path d="M370.815 70.3182L357.794 57.2969L371.477 43.6221L370.815 70.3182Z" fill="#E07373"/>
<path d="M353.962 87.1805L340.94 74.1592L354.615 60.4764L353.962 87.1805Z" fill="#E07373"/>
<path d="M337.099 104.035L324.078 91.0136L337.761 77.3388L337.099 104.035Z" fill="#E07373"/>
<path d="M320.237 120.897L307.216 107.876L320.899 94.2012L320.237 120.897Z" fill="#E07373"/>
<path d="M303.375 137.76L290.361 124.738L304.036 111.056L303.375 137.76Z" fill="#E07373"/>
<path d="M286.52 154.614L273.499 141.593L287.174 127.918L286.52 154.614Z" fill="#E07373"/>
<path d="M269.658 171.476L256.637 158.455L270.319 144.78L269.658 171.476Z" fill="#E07373"/>
<path d="M388.491 20.5519L375.47 7.53064L389.144 -6.15207L388.491 20.5519Z" fill="#E07373"/>
<path d="M371.629 37.4063L358.607 24.393L372.29 10.7103L371.629 37.4063Z" fill="#E07373"/>
<path d="M354.766 54.2687L341.753 41.2474L355.428 27.5726L354.766 54.2687Z" fill="#E07373"/>
<path d="M337.912 71.131L324.891 58.1097L338.565 44.427L337.912 71.131Z" fill="#E07373"/>
<path d="M321.05 87.9853L308.028 74.972L321.711 61.2893L321.05 87.9853Z" fill="#E07373"/>
<path d="M304.187 104.848L291.174 91.8264L304.849 78.1517L304.187 104.848Z" fill="#E07373"/>
<path d="M287.333 121.71L274.312 108.689L287.986 95.014L287.333 121.71Z" fill="#E07373"/>
<path d="M270.471 138.564L257.449 125.551L271.132 111.868L270.471 138.564Z" fill="#E07373"/>
<path d="M372.441 4.50244L359.42 -8.51885L373.103 -22.1936L372.441 4.50244Z" fill="#E07373"/>
<path d="M355.579 21.3648L342.558 8.3435L356.24 -5.33923L355.579 21.3648Z" fill="#E07373"/>
<path d="M338.724 38.2191L325.703 25.1979L339.378 11.5231L338.724 38.2191Z" fill="#E07373"/>
<path d="M321.862 55.0815L308.841 42.0602L322.524 28.3854L321.862 55.0815Z" fill="#E07373"/>
<path d="M305 71.9438L291.979 58.9225L305.661 45.2398L305 71.9438Z" fill="#E07373"/>
<path d="M288.145 88.7982L275.124 75.7769L288.799 62.1021L288.145 88.7982Z" fill="#E07373"/>
<path d="M271.283 105.661L258.262 92.6392L271.936 78.9645L271.283 105.661Z" fill="#E07373"/>
<path d="M339.529 5.31529L326.516 -7.706L340.19 -21.3887L339.529 5.31529Z" fill="#E07373"/>
<path d="M322.676 22.1696L309.654 9.15633L323.329 -4.5264L322.676 22.1696Z" fill="#E07373"/>
<path d="M305.813 39.032L292.792 26.0107L306.475 12.3359L305.813 39.032Z" fill="#E07373"/>
<path d="M288.95 55.8943L275.937 42.873L289.611 29.1902L288.95 55.8943Z" fill="#E07373"/>
<path d="M272.096 72.7487L259.075 59.7354L272.75 46.0527L272.096 72.7487Z" fill="#E07373"/>
<path d="M306.625 6.1281L293.604 -6.89319L307.286 -20.5759L306.625 6.1281Z" fill="#E07373"/>
<path d="M289.763 22.9825L276.742 9.96119L290.425 -3.71356L289.763 22.9825Z" fill="#E07373"/>
<path d="M272.909 39.8448L259.888 26.8235L273.562 13.1488L272.909 39.8448Z" fill="#E07373"/>
<path d="M273.714 6.93298L260.7 -6.08033L274.375 -19.7631L273.714 6.93298Z" fill="#E07373"/>
</g>
<mask id="mask2_2349_63114" style="mask-type:luminance" maskUnits="userSpaceOnUse" x="192" y="43" width="74" height="144">
<path d="M261.896 186.984L192 117.088L265.426 43.6539L261.896 186.984Z" fill="white"/>
</mask>
<g mask="url(#mask2_2349_63114)">
<path d="M264.948 199.575L256.859 191.486L265.354 182.983L264.948 199.575Z" fill="#E07373"/>
<path d="M265.45 179.126L257.361 171.038L265.864 162.535L265.45 179.126Z" fill="#E07373"/>
<path d="M254.971 189.606L246.883 181.509L255.386 173.014L254.971 189.606Z" fill="#E07373"/>
<path d="M244.5 200.077L236.403 191.988L244.906 183.485L244.5 200.077Z" fill="#E07373"/>
<path d="M265.96 158.678L257.863 150.581L266.366 142.087L265.96 158.678Z" fill="#E07373"/>
<path d="M255.48 169.149L247.384 161.061L255.887 152.558L255.48 169.149Z" fill="#E07373"/>
<path d="M245.002 179.628L236.913 171.54L245.408 163.037L245.002 179.628Z" fill="#E07373"/>
<path d="M234.522 190.108L226.434 182.019L234.936 173.516L234.522 190.108Z" fill="#E07373"/>
<path d="M224.051 200.587L215.954 192.49L224.457 183.995L224.051 200.587Z" fill="#E07373"/>
<path d="M266.463 138.222L258.374 130.133L266.869 121.638L266.463 138.222Z" fill="#E07373"/>
<path d="M255.983 148.701L247.895 140.612L256.389 132.109L255.983 148.701Z" fill="#E07373"/>
<path d="M245.504 159.18L237.415 151.092L245.918 142.589L245.504 159.18Z" fill="#E07373"/>
<path d="M235.033 169.659L226.937 161.563L235.439 153.068L235.033 169.659Z" fill="#E07373"/>
<path d="M224.554 180.13L216.466 172.042L224.961 163.547L224.554 180.13Z" fill="#E07373"/>
<path d="M214.074 190.61L205.985 182.521L214.48 174.018L214.074 190.61Z" fill="#E07373"/>
<path d="M203.594 201.089L195.506 193L204.009 184.497L203.594 201.089Z" fill="#E07373"/>
<path d="M266.964 117.773L258.876 109.685L267.371 101.182L266.964 117.773Z" fill="#E07373"/>
<path d="M256.485 128.252L248.396 120.164L256.899 111.661L256.485 128.252Z" fill="#E07373"/>
<path d="M246.014 138.732L237.918 130.643L246.421 122.14L246.014 138.732Z" fill="#E07373"/>
<path d="M235.535 149.211L227.446 141.114L235.941 132.62L235.535 149.211Z" fill="#E07373"/>
<path d="M225.056 159.682L216.968 151.594L225.463 143.091L225.056 159.682Z" fill="#E07373"/>
<path d="M214.576 170.161L206.487 162.073L214.99 153.57L214.576 170.161Z" fill="#E07373"/>
<path d="M204.105 180.64L196.009 172.544L204.512 164.049L204.105 180.64Z" fill="#E07373"/>
<path d="M193.627 191.12L185.538 183.023L194.033 174.528L193.627 191.12Z" fill="#E07373"/>
<path d="M267.466 97.3249L259.378 89.2364L267.881 80.7335L267.466 97.3249Z" fill="#E07373"/>
<path d="M256.995 107.804L248.898 99.7156L257.401 91.2127L256.995 107.804Z" fill="#E07373"/>
<path d="M246.516 118.283L238.428 110.187L246.923 101.692L246.516 118.283Z" fill="#E07373"/>
<path d="M236.036 128.754L227.947 120.666L236.45 112.163L236.036 128.754Z" fill="#E07373"/>
<path d="M225.558 139.234L217.47 131.145L225.973 122.642L225.558 139.234Z" fill="#E07373"/>
<path d="M215.087 149.713L206.99 141.624L215.493 133.122L215.087 149.713Z" fill="#E07373"/>
<path d="M204.607 160.192L196.519 152.096L205.013 143.601L204.607 160.192Z" fill="#E07373"/>
<path d="M194.128 170.663L186.039 162.575L194.542 154.072L194.128 170.663Z" fill="#E07373"/>
<path d="M267.976 76.8766L259.88 68.788L268.383 60.2852L267.976 76.8766Z" fill="#E07373"/>
<path d="M257.497 87.3557L249.408 79.2593L257.903 70.7643L257.497 87.3557Z" fill="#E07373"/>
<path d="M247.018 97.827L238.93 89.7385L247.433 81.2356L247.018 97.827Z" fill="#E07373"/>
<path d="M236.539 108.306L228.45 100.218L236.953 91.7148L236.539 108.306Z" fill="#E07373"/>
<path d="M226.068 118.785L217.972 110.697L226.475 102.194L226.068 118.785Z" fill="#E07373"/>
<path d="M215.589 129.265L207.5 121.168L215.995 112.673L215.589 129.265Z" fill="#E07373"/>
<path d="M205.109 139.736L197.021 131.647L205.523 123.144L205.109 139.736Z" fill="#E07373"/>
<path d="M194.63 150.215L186.541 142.126L195.044 133.624L194.63 150.215Z" fill="#E07373"/>
<path d="M268.478 56.4282L260.39 48.3317L268.885 39.8368L268.478 56.4282Z" fill="#E07373"/>
<path d="M257.999 66.8994L249.91 58.8109L258.413 50.316L257.999 66.8994Z" fill="#E07373"/>
<path d="M247.528 77.3785L239.432 69.29L247.935 60.7872L247.528 77.3785Z" fill="#E07373"/>
<path d="M237.049 87.8578L228.952 79.7693L237.455 71.2664L237.049 87.8578Z" fill="#E07373"/>
<path d="M226.57 98.3369L218.481 90.2405L226.976 81.7455L226.57 98.3369Z" fill="#E07373"/>
<path d="M216.09 108.808L208.002 100.72L216.505 92.2248L216.09 108.808Z" fill="#E07373"/>
<path d="M205.619 119.287L197.522 111.199L206.025 102.696L205.619 119.287Z" fill="#E07373"/>
<path d="M195.14 129.767L187.052 121.678L195.547 113.175L195.14 129.767Z" fill="#E07373"/>
<path d="M258.509 46.451L250.412 38.3625L258.915 29.8596L258.509 46.451Z" fill="#E07373"/>
<path d="M248.03 56.9302L239.941 48.8417L248.436 40.3388L248.03 56.9302Z" fill="#E07373"/>
<path d="M237.55 67.4094L229.462 59.3129L237.957 50.818L237.55 67.4094Z" fill="#E07373"/>
<path d="M227.072 77.8886L218.983 69.7921L227.486 61.2972L227.072 77.8886Z" fill="#E07373"/>
<path d="M216.6 88.3599L208.504 80.2714L217.007 71.7685L216.6 88.3599Z" fill="#E07373"/>
<path d="M206.121 98.839L198.032 90.7505L206.527 82.2476L206.121 98.839Z" fill="#E07373"/>
<path d="M195.642 109.318L187.554 101.222L196.049 92.7268L195.642 109.318Z" fill="#E07373"/>
<path d="M238.052 46.961L229.964 38.8646L238.467 30.3696L238.052 46.961Z" fill="#E07373"/>
<path d="M227.582 57.4323L219.485 49.3438L227.988 40.8409L227.582 57.4323Z" fill="#E07373"/>
<path d="M217.102 67.9115L209.014 59.8229L217.509 51.3201L217.102 67.9115Z" fill="#E07373"/>
<path d="M206.623 78.3907L198.534 70.3022L207.037 61.7993L206.623 78.3907Z" fill="#E07373"/>
<path d="M196.144 88.8698L188.056 80.7734L196.559 72.2784L196.144 88.8698Z" fill="#E07373"/>
<path d="M217.604 47.4631L209.516 39.3746L218.019 30.8717L217.604 47.4631Z" fill="#E07373"/>
<path d="M207.125 57.9423L199.036 49.8458L207.539 41.3509L207.125 57.9423Z" fill="#E07373"/>
<path d="M196.654 68.4135L188.558 60.325L197.061 51.8221L196.654 68.4135Z" fill="#E07373"/>
<path d="M197.157 47.9652L189.068 39.8767L197.563 31.3738L197.157 47.9652Z" fill="#E07373"/>
</g>
<mask id="mask3_2349_63114" style="mask-type:luminance" maskUnits="userSpaceOnUse" x="73" y="0" width="119" height="231">
<path d="M185.892 230.638L73.418 118.164L191.582 0L185.892 230.638Z" fill="white"/>
</mask>
<g mask="url(#mask3_2349_63114)">
<path d="M190.808 250.903L177.787 237.882L191.462 224.207L190.808 250.903Z" fill="#E07373"/>
<path d="M191.622 217.999L178.601 204.978L192.275 191.295L191.622 217.999Z" fill="#E07373"/>
<path d="M174.76 234.854L161.738 221.84L175.421 208.157L174.76 234.854Z" fill="#E07373"/>
<path d="M157.896 251.716L144.875 238.694L158.558 225.02L157.896 251.716Z" fill="#E07373"/>
<path d="M192.426 185.087L179.413 172.066L193.088 158.391L192.426 185.087Z" fill="#E07373"/>
<path d="M175.572 201.95L162.551 188.928L176.226 175.254L175.572 201.95Z" fill="#E07373"/>
<path d="M158.71 218.812L145.688 205.791L159.371 192.108L158.71 218.812Z" fill="#E07373"/>
<path d="M141.848 235.666L128.835 222.645L142.51 208.97L141.848 235.666Z" fill="#E07373"/>
<path d="M124.993 252.529L111.972 239.507L125.646 225.833L124.993 252.529Z" fill="#E07373"/>
<path d="M193.239 152.183L180.218 139.162L193.901 125.479L193.239 152.183Z" fill="#E07373"/>
<path d="M176.385 169.038L163.363 156.024L177.038 142.342L176.385 169.038Z" fill="#E07373"/>
<path d="M159.522 185.9L146.501 172.879L160.184 159.204L159.522 185.9Z" fill="#E07373"/>
<path d="M142.66 202.762L129.639 189.741L143.321 176.058L142.66 202.762Z" fill="#E07373"/>
<path d="M125.805 219.617L112.784 206.603L126.459 192.921L125.805 219.617Z" fill="#E07373"/>
<path d="M108.943 236.479L95.9219 223.458L109.605 209.783L108.943 236.479Z" fill="#E07373"/>
<path d="M92.0809 253.341L79.0596 240.32L92.7423 226.645L92.0809 253.341Z" fill="#E07373"/>
<path d="M194.052 119.272L181.03 106.25L194.713 92.5755L194.052 119.272Z" fill="#E07373"/>
<path d="M177.19 136.134L164.177 123.113L177.852 109.438L177.19 136.134Z" fill="#E07373"/>
<path d="M160.336 152.996L147.314 139.975L160.989 126.292L160.336 152.996Z" fill="#E07373"/>
<path d="M143.473 169.851L130.452 156.829L144.135 143.155L143.473 169.851Z" fill="#E07373"/>
<path d="M126.612 186.713L113.599 173.692L127.273 160.017L126.612 186.713Z" fill="#E07373"/>
<path d="M109.757 203.575L96.7354 190.554L110.41 176.871L109.757 203.575Z" fill="#E07373"/>
<path d="M92.8943 220.43L79.873 207.408L93.5558 193.734L92.8943 220.43Z" fill="#E07373"/>
<path d="M76.0319 237.292L63.0186 224.271L76.6933 210.596L76.0319 237.292Z" fill="#E07373"/>
<path d="M194.865 86.3676L181.844 73.3463L195.526 59.6636L194.865 86.3676Z" fill="#E07373"/>
<path d="M178.003 103.222L164.989 90.2087L178.664 76.526L178.003 103.222Z" fill="#E07373"/>
<path d="M161.148 120.084L148.127 107.063L161.802 93.3883L161.148 120.084Z" fill="#E07373"/>
<path d="M144.286 136.947L131.265 123.925L144.947 110.243L144.286 136.947Z" fill="#E07373"/>
<path d="M127.424 153.801L114.402 140.788L128.085 127.105L127.424 153.801Z" fill="#E07373"/>
<path d="M110.569 170.663L97.5479 157.642L111.223 143.967L110.569 170.663Z" fill="#E07373"/>
<path d="M93.7068 187.526L80.6855 174.504L94.3683 160.83L93.7068 187.526Z" fill="#E07373"/>
<path d="M76.8445 204.38L63.8232 191.367L77.506 177.684L76.8445 204.38Z" fill="#E07373"/>
<path d="M195.679 53.4559L182.657 40.4346L196.34 26.7598L195.679 53.4559Z" fill="#E07373"/>
<path d="M178.815 70.3182L165.794 57.2969L179.477 43.6221L178.815 70.3182Z" fill="#E07373"/>
<path d="M161.962 87.1805L148.94 74.1592L162.615 60.4764L161.962 87.1805Z" fill="#E07373"/>
<path d="M145.099 104.035L132.078 91.0136L145.761 77.3388L145.099 104.035Z" fill="#E07373"/>
<path d="M128.237 120.897L115.216 107.876L128.899 94.2012L128.237 120.897Z" fill="#E07373"/>
<path d="M111.375 137.76L98.3613 124.738L112.036 111.056L111.375 137.76Z" fill="#E07373"/>
<path d="M94.5203 154.614L81.499 141.593L95.1738 127.918L94.5203 154.614Z" fill="#E07373"/>
<path d="M77.658 171.476L64.6367 158.455L78.3194 144.78L77.658 171.476Z" fill="#E07373"/>
<path d="M196.491 20.5519L183.47 7.53064L197.144 -6.15207L196.491 20.5519Z" fill="#E07373"/>
<path d="M179.629 37.4063L166.607 24.393L180.29 10.7103L179.629 37.4063Z" fill="#E07373"/>
<path d="M162.766 54.2687L149.753 41.2474L163.428 27.5726L162.766 54.2687Z" fill="#E07373"/>
<path d="M145.912 71.131L132.891 58.1097L146.565 44.427L145.912 71.131Z" fill="#E07373"/>
<path d="M129.05 87.9853L116.028 74.972L129.711 61.2893L129.05 87.9853Z" fill="#E07373"/>
<path d="M112.187 104.848L99.1738 91.8264L112.849 78.1517L112.187 104.848Z" fill="#E07373"/>
<path d="M95.3328 121.71L82.3115 108.689L95.9863 95.014L95.3328 121.71Z" fill="#E07373"/>
<path d="M78.4705 138.564L65.4492 125.551L79.1319 111.868L78.4705 138.564Z" fill="#E07373"/>
<path d="M180.441 4.50244L167.42 -8.51885L181.103 -22.1936L180.441 4.50244Z" fill="#E07373"/>
<path d="M163.579 21.3648L150.558 8.3435L164.24 -5.33923L163.579 21.3648Z" fill="#E07373"/>
<path d="M146.724 38.2191L133.703 25.1979L147.378 11.5231L146.724 38.2191Z" fill="#E07373"/>
<path d="M129.862 55.0815L116.841 42.0602L130.524 28.3854L129.862 55.0815Z" fill="#E07373"/>
<path d="M113 71.9438L99.9785 58.9225L113.661 45.2398L113 71.9438Z" fill="#E07373"/>
<path d="M96.1453 88.7982L83.124 75.7769L96.7988 62.1021L96.1453 88.7982Z" fill="#E07373"/>
<path d="M79.283 105.661L66.2617 92.6392L79.9365 78.9645L79.283 105.661Z" fill="#E07373"/>
<path d="M147.529 5.31529L134.516 -7.706L148.19 -21.3887L147.529 5.31529Z" fill="#E07373"/>
<path d="M130.676 22.1696L117.654 9.15633L131.329 -4.5264L130.676 22.1696Z" fill="#E07373"/>
<path d="M113.813 39.032L100.792 26.0107L114.475 12.3359L113.813 39.032Z" fill="#E07373"/>
<path d="M96.9498 55.8943L83.9365 42.873L97.6113 29.1902L96.9498 55.8943Z" fill="#E07373"/>
<path d="M80.0965 72.7487L67.0752 59.7354L80.7499 46.0527L80.0965 72.7487Z" fill="#E07373"/>
<path d="M114.625 6.1281L101.604 -6.89319L115.286 -20.5759L114.625 6.1281Z" fill="#E07373"/>
<path d="M97.7635 22.9825L84.7422 9.96119L98.4249 -3.71356L97.7635 22.9825Z" fill="#E07373"/>
<path d="M80.909 39.8448L67.8877 26.8235L81.5624 13.1488L80.909 39.8448Z" fill="#E07373"/>
<path d="M81.7135 6.93298L68.7002 -6.08033L82.3749 -19.7631L81.7135 6.93298Z" fill="#E07373"/>
</g>
<mask id="mask4_2349_63114" style="mask-type:luminance" maskUnits="userSpaceOnUse" x="0" y="43" width="74" height="144">
<path d="M69.8958 186.984L0 117.088L73.4261 43.6543L69.8958 186.984Z" fill="white"/>
</mask>
<g mask="url(#mask4_2349_63114)">
<path d="M72.9479 199.575L64.8594 191.487L73.3543 182.984L72.9479 199.575Z" fill="#E07373"/>
<path d="M73.4499 179.127L65.3613 171.038L73.8642 162.535L73.4499 179.127Z" fill="#E07373"/>
<path d="M62.9713 189.606L54.8828 181.509L63.3857 173.015L62.9713 189.606Z" fill="#E07373"/>
<path d="M52.4998 200.077L44.4033 191.989L52.9062 183.486L52.4998 200.077Z" fill="#E07373"/>
<path d="M73.9598 158.678L65.8633 150.582L74.3662 142.087L73.9598 158.678Z" fill="#E07373"/>
<path d="M63.4803 169.15L55.3838 161.061L63.8867 152.558L63.4803 169.15Z" fill="#E07373"/>
<path d="M53.0016 179.629L44.9131 171.54L53.408 163.037L53.0016 179.629Z" fill="#E07373"/>
<path d="M42.5221 190.108L34.4336 182.019L42.9365 173.517L42.5221 190.108Z" fill="#E07373"/>
<path d="M32.0506 200.587L23.9541 192.491L32.457 183.996L32.0506 200.587Z" fill="#E07373"/>
<path d="M74.4625 138.222L66.374 130.134L74.8689 121.639L74.4625 138.222Z" fill="#E07373"/>
<path d="M63.983 148.701L55.8945 140.613L64.3895 132.11L63.983 148.701Z" fill="#E07373"/>
<path d="M53.5036 159.18L45.415 151.092L53.9179 142.589L53.5036 159.18Z" fill="#E07373"/>
<path d="M43.033 169.66L34.9365 161.563L43.4394 153.068L43.033 169.66Z" fill="#E07373"/>
<path d="M32.5543 180.131L24.4658 172.042L32.9607 163.547L32.5543 180.131Z" fill="#E07373"/>
<path d="M22.0739 190.61L13.9854 182.521L22.4803 174.019L22.0739 190.61Z" fill="#E07373"/>
<path d="M11.5944 201.089L3.50586 193.001L12.0087 184.498L11.5944 201.089Z" fill="#E07373"/>
<path d="M74.9645 117.774L66.876 109.685L75.3709 101.182L74.9645 117.774Z" fill="#E07373"/>
<path d="M64.485 128.253L56.3965 120.164L64.8994 111.661L64.485 128.253Z" fill="#E07373"/>
<path d="M54.0144 138.732L45.918 130.644L54.4209 122.141L54.0144 138.732Z" fill="#E07373"/>
<path d="M43.5348 149.211L35.4463 141.115L43.9412 132.62L43.5348 149.211Z" fill="#E07373"/>
<path d="M33.0563 159.682L24.9678 151.594L33.4627 143.091L33.0563 159.682Z" fill="#E07373"/>
<path d="M22.5758 170.162L14.4873 162.073L22.9902 153.57L22.5758 170.162Z" fill="#E07373"/>
<path d="M12.1053 180.641L4.00879 172.544L12.5117 164.049L12.1053 180.641Z" fill="#E07373"/>
<path d="M1.6266 191.12L-6.46191 183.024L2.03301 174.529L1.6266 191.12Z" fill="#E07373"/>
<path d="M75.4664 97.3253L67.3779 89.2368L75.8808 80.7339L75.4664 97.3253Z" fill="#E07373"/>
<path d="M64.9949 107.804L56.8984 99.716L65.4013 91.2131L64.9949 107.804Z" fill="#E07373"/>
<path d="M54.5162 118.284L46.4277 110.187L54.9227 101.692L54.5162 118.284Z" fill="#E07373"/>
<path d="M44.0358 128.755L35.9473 120.666L44.4501 112.163L44.0358 128.755Z" fill="#E07373"/>
<path d="M33.5582 139.234L25.4697 131.146L33.9726 122.643L33.5582 139.234Z" fill="#E07373"/>
<path d="M23.0867 149.713L14.9902 141.625L23.4931 133.122L23.0867 149.713Z" fill="#E07373"/>
<path d="M12.6071 160.192L4.51855 152.096L13.0135 143.601L12.6071 160.192Z" fill="#E07373"/>
<path d="M2.12756 170.664L-5.96094 162.575L2.54195 154.072L2.12756 170.664Z" fill="#E07373"/>
<path d="M75.9764 76.8769L67.8799 68.7884L76.3828 60.2855L75.9764 76.8769Z" fill="#E07373"/>
<path d="M65.4967 87.3561L57.4082 79.2596L65.9031 70.7647L65.4967 87.3561Z" fill="#E07373"/>
<path d="M55.0182 97.8274L46.9297 89.7389L55.4326 81.236L55.0182 97.8274Z" fill="#E07373"/>
<path d="M44.5387 108.307L36.4502 100.218L44.9531 91.7151L44.5387 108.307Z" fill="#E07373"/>
<path d="M34.0682 118.786L25.9717 110.697L34.4746 102.194L34.0682 118.786Z" fill="#E07373"/>
<path d="M23.5885 129.265L15.5 121.168L23.9949 112.674L23.5885 129.265Z" fill="#E07373"/>
<path d="M13.109 139.736L5.02051 131.648L13.5234 123.145L13.109 139.736Z" fill="#E07373"/>
<path d="M2.62951 150.215L-5.45898 142.127L3.0439 133.624L2.62951 150.215Z" fill="#E07373"/>
<path d="M76.4781 56.4286L68.3896 48.3321L76.8846 39.8372L76.4781 56.4286Z" fill="#E07373"/>
<path d="M65.9987 66.8998L57.9102 58.8113L66.413 50.3163L65.9987 66.8998Z" fill="#E07373"/>
<path d="M55.5281 77.3789L47.4316 69.2904L55.9345 60.7875L55.5281 77.3789Z" fill="#E07373"/>
<path d="M45.0486 87.8582L36.9521 79.7697L45.455 71.2668L45.0486 87.8582Z" fill="#E07373"/>
<path d="M34.5699 98.3373L26.4814 90.2408L34.9764 81.7459L34.5699 98.3373Z" fill="#E07373"/>
<path d="M24.0905 108.809L16.002 100.72L24.5048 92.2252L24.0905 108.809Z" fill="#E07373"/>
<path d="M13.6189 119.288L5.52246 111.199L14.0253 102.696L13.6189 119.288Z" fill="#E07373"/>
<path d="M3.14026 129.767L-4.94824 121.678L3.54667 113.176L3.14026 129.767Z" fill="#E07373"/>
<path d="M66.5086 46.4514L58.4121 38.3629L66.915 29.86L66.5086 46.4514Z" fill="#E07373"/>
<path d="M56.0299 56.9305L47.9414 48.842L56.4363 40.3392L56.0299 56.9305Z" fill="#E07373"/>
<path d="M45.5504 67.4098L37.4619 59.3133L45.9568 50.8184L45.5504 67.4098Z" fill="#E07373"/>
<path d="M35.0719 77.8889L26.9834 69.7925L35.4863 61.2975L35.0719 77.8889Z" fill="#E07373"/>
<path d="M24.6004 88.3602L16.5039 80.2717L25.0068 71.7689L24.6004 88.3602Z" fill="#E07373"/>
<path d="M14.1207 98.8394L6.03223 90.7509L14.5271 82.248L14.1207 98.8394Z" fill="#E07373"/>
<path d="M3.64222 109.319L-4.44629 101.222L4.04863 92.7272L3.64222 109.319Z" fill="#E07373"/>
<path d="M46.0524 46.9614L37.9639 38.8649L46.4667 30.37L46.0524 46.9614Z" fill="#E07373"/>
<path d="M35.5818 57.4326L27.4854 49.3441L35.9883 40.8412L35.5818 57.4326Z" fill="#E07373"/>
<path d="M25.1022 67.9118L17.0137 59.8233L25.5086 51.3204L25.1022 67.9118Z" fill="#E07373"/>
<path d="M14.6227 78.391L6.53418 70.3025L15.0371 61.7996L14.6227 78.391Z" fill="#E07373"/>
<path d="M4.14416 88.8702L-3.94434 80.7737L4.55855 72.2788L4.14416 88.8702Z" fill="#E07373"/>
<path d="M25.6041 47.4635L17.5156 39.3749L26.0185 30.8721L25.6041 47.4635Z" fill="#E07373"/>
<path d="M15.1246 57.9427L7.03613 49.8462L15.539 41.3513L15.1246 57.9427Z" fill="#E07373"/>
<path d="M4.65408 68.4139L-3.44238 60.3254L5.0605 51.8225L4.65408 68.4139Z" fill="#E07373"/>
<path d="M5.15686 47.9655L-2.93164 39.877L5.56328 31.3741L5.15686 47.9655Z" fill="#E07373"/>
</g>
</g>
</svg>
