<svg width="33" height="32" viewBox="0 0 33 32" fill="none" xmlns="http://www.w3.org/2000/svg">
<g clip-path="url(#clip0_1994_30076)">
<path d="M31.6936 3.42859H1.97928C1.34714 3.42859 0.836426 3.9393 0.836426 4.57145V27.4286C0.836426 28.0607 1.34714 28.5714 1.97928 28.5714H31.6936C32.3257 28.5714 32.8364 28.0607 32.8364 27.4286V4.57145C32.8364 3.9393 32.3257 3.42859 31.6936 3.42859ZM30.265 7.38573V26H3.40785V7.38573L2.42214 6.61787L3.82571 4.8143L5.35428 6.00359H28.3221L29.8507 4.8143L31.2543 6.61787L30.265 7.38573ZM28.3221 6.00002L16.8364 14.9286L5.35071 6.00002L3.82214 4.81073L2.41857 6.6143L3.40428 7.38216L15.6043 16.8679C15.9551 17.1404 16.3868 17.2884 16.8311 17.2884C17.2754 17.2884 17.707 17.1404 18.0579 16.8679L30.265 7.38573L31.2507 6.61787L29.8471 4.8143L28.3221 6.00002Z" fill="url(#paint0_linear_1994_30076)"/>
</g>
<defs>
<linearGradient id="paint0_linear_1994_30076" x1="0.836426" y1="6.57145" x2="31.628" y2="35.755" gradientUnits="userSpaceOnUse">
<stop stop-color="#E95A56"/>
<stop offset="1" stop-color="#833330"/>
</linearGradient>
<clipPath id="clip0_1994_30076">
<rect width="32" height="32" fill="white" transform="translate(0.836426)"/>
</clipPath>
</defs>
</svg>
