<svg width="20" height="20" viewBox="0 0 20 20" fill="none" xmlns="http://www.w3.org/2000/svg">
<path d="M6 20C4.31482 20 2.89333 19.4215 1.73556 18.2644C0.577778 17.1074 -0.00074003 15.6859 7.10429e-07 14C7.10429e-07 13.2963 0.120371 12.6111 0.361112 11.9444C0.601853 11.2778 0.944445 10.6759 1.38889 10.1389L5.33333 5.38889L3.44445 1.61111C3.25926 1.24074 3.27333 0.87963 3.48667 0.527778C3.7 0.175926 4.01926 0 4.44445 0H15.5556C15.9815 0 16.3011 0.175926 16.5144 0.527778C16.7278 0.87963 16.7415 1.24074 16.5556 1.61111L14.6667 5.38889L18.6111 10.1389C19.0556 10.6759 19.3981 11.2778 19.6389 11.9444C19.8796 12.6111 20 13.2963 20 14C20 15.6852 19.4167 17.1067 18.25 18.2644C17.0833 19.4222 15.6667 20.0007 14 20H6ZM10 14.4444C9.38889 14.4444 8.86593 14.227 8.43111 13.7922C7.9963 13.3574 7.77852 12.8341 7.77778 12.2222C7.77704 11.6104 7.99482 11.0874 8.43111 10.6533C8.86741 10.2193 9.39037 10.0015 10 10C10.6096 9.99852 11.133 10.2163 11.57 10.6533C12.007 11.0904 12.2244 11.6133 12.2222 12.2222C12.22 12.8311 12.0026 13.3544 11.57 13.7922C11.1374 14.23 10.6141 14.4474 10 14.4444ZM7.36111 4.44444H12.6389L13.75 2.22222H6.25L7.36111 4.44444ZM6 17.7778H14C15.0556 17.7778 15.9493 17.4122 16.6811 16.6811C17.413 15.95 17.7785 15.0563 17.7778 14C17.7778 13.5556 17.6989 13.1252 17.5411 12.7089C17.3833 12.2926 17.1659 11.9174 16.8889 11.5833L12.8056 6.66667H7.22222L3.11111 11.5556C2.83333 11.8889 2.61593 12.2685 2.45889 12.6944C2.30185 13.1204 2.22296 13.5556 2.22222 14C2.22222 15.0556 2.58815 15.9493 3.32 16.6811C4.05185 17.413 4.94519 17.7785 6 17.7778Z" fill="url(#paint0_linear_394_17353)"/>
<defs>
<linearGradient id="paint0_linear_394_17353" x1="8.75443e-08" y1="2.5" x2="23.5" y2="20" gradientUnits="userSpaceOnUse">
<stop stop-color="#E95A56"/>
<stop offset="1" stop-color="#833330"/>
</linearGradient>
</defs>
</svg>
