<svg width="24" height="23" viewBox="0 0 24 23" fill="none" xmlns="http://www.w3.org/2000/svg">
<path fill-rule="evenodd" clip-rule="evenodd" d="M1.94995 3.84998C1.94995 2.98802 2.29236 2.16137 2.90185 1.55188C3.51135 0.942385 4.338 0.599976 5.19995 0.599976H20.4724C21.3343 0.599976 22.161 0.942385 22.7704 1.55188C23.3799 2.16137 23.7224 2.98802 23.7224 3.84998V13.7963C23.7224 14.6582 23.3799 15.4849 22.7704 16.0944C22.161 16.7039 21.3343 17.0463 20.4724 17.0463H14.1362V20.0077C14.1362 20.3525 13.9992 20.6831 13.7554 20.9269C13.5116 21.1707 13.1809 21.3077 12.8362 21.3077C12.4914 21.3077 12.1607 21.1707 11.9169 20.9269C11.6731 20.6831 11.5362 20.3525 11.5362 20.0077V16.759C11.3261 16.5905 11.1736 16.3609 11.0997 16.102C11.0257 15.8431 11.034 15.5677 11.1233 15.3137C11.2126 15.0597 11.3786 14.8397 11.5983 14.6841C11.8181 14.5285 12.0807 14.4449 12.35 14.445H20.4724C20.6447 14.445 20.8101 14.3765 20.932 14.2546C21.0539 14.1327 21.1224 13.9674 21.1224 13.795V3.84998C21.1224 3.67758 21.0539 3.51225 20.932 3.39036C20.8101 3.26846 20.6447 3.19998 20.4724 3.19998H5.19995C5.02756 3.19998 4.86223 3.26846 4.74033 3.39036C4.61843 3.51225 4.54995 3.67758 4.54995 3.84998V5.79998C4.54995 6.14476 4.41299 6.47542 4.16919 6.71921C3.92539 6.96301 3.59473 7.09998 3.24995 7.09998C2.90517 7.09998 2.57451 6.96301 2.33071 6.71921C2.08692 6.47542 1.94995 6.14476 1.94995 5.79998V3.84998Z" fill="url(#paint0_linear_394_17326)"/>
<path fill-rule="evenodd" clip-rule="evenodd" d="M6.74313 20.867C6.74313 20.5222 6.88009 20.1915 7.12389 19.9477C7.36768 19.704 7.69834 19.567 8.04313 19.567H17.6293C17.9741 19.567 18.3048 19.704 18.5486 19.9477C18.7924 20.1915 18.9293 20.5222 18.9293 20.867C18.9293 21.2118 18.7924 21.5424 18.5486 21.7862C18.3048 22.03 17.9741 22.167 17.6293 22.167H8.04313C7.69834 22.167 7.36768 22.03 7.12389 21.7862C6.88009 21.5424 6.74313 21.2118 6.74313 20.867ZM7.06813 10.1966C6.73688 10.0111 6.37192 9.89364 5.99466 9.8511C5.61741 9.80857 5.23545 9.84181 4.87122 9.94887C4.50698 10.0559 4.1678 10.2347 3.87357 10.4746C3.57935 10.7145 3.336 11.0108 3.15782 11.346C2.97964 11.6813 2.87021 12.0487 2.83596 12.4268C2.8017 12.8049 2.84331 13.186 2.95834 13.5478C3.07337 13.9096 3.2595 14.2448 3.50581 14.5337C3.75213 14.8226 4.05366 15.0594 4.39273 15.2302C5.05834 15.5655 5.82877 15.6268 6.53902 15.4009C7.24927 15.1751 7.84285 14.6802 8.19264 14.0221C8.54242 13.364 8.62059 12.5951 8.41041 11.88C8.20022 11.165 7.7184 10.5607 7.06813 10.1966ZM0.916526 10.155C1.39652 9.25252 2.1206 8.5032 3.0061 7.99258C3.8916 7.48196 4.90284 7.23061 5.92436 7.26723C6.94588 7.30386 7.93651 7.62697 8.78318 8.19969C9.62984 8.77241 10.2984 9.57166 10.7125 10.5062C11.1267 11.4407 11.2697 12.4728 11.1253 13.4848C10.9809 14.4967 10.5548 15.4476 9.8958 16.229C9.23678 17.0103 8.37133 17.5907 7.39826 17.9037C6.42519 18.2167 5.38371 18.2498 4.39273 17.9992L2.21263 22.1007C2.13247 22.2514 2.02342 22.3849 1.89168 22.4935C1.75994 22.6021 1.6081 22.6837 1.44483 22.7336C1.28156 22.7835 1.11006 22.8008 0.940118 22.7844C0.770176 22.7681 0.60512 22.7184 0.454376 22.6382C0.303632 22.5581 0.170151 22.449 0.0615538 22.3173C-0.0470428 22.1855 -0.128628 22.0337 -0.178544 21.8704C-0.228461 21.7072 -0.24573 21.5357 -0.229366 21.3657C-0.213002 21.1958 -0.163326 21.0307 -0.083174 20.88L2.09693 16.7785C1.18769 15.9656 0.577271 14.8713 0.363283 13.6705C0.149295 12.4698 0.344091 11.232 0.916526 10.155Z" fill="url(#paint1_linear_394_17326)"/>
<defs>
<linearGradient id="paint0_linear_394_17326" x1="1.94995" y1="3.18844" x2="26.6049" y2="22.4925" gradientUnits="userSpaceOnUse">
<stop stop-color="#E95A56"/>
<stop offset="1" stop-color="#833330"/>
</linearGradient>
<linearGradient id="paint1_linear_394_17326" x1="-0.235351" y1="9.20457" x2="18.7396" y2="26.6456" gradientUnits="userSpaceOnUse">
<stop stop-color="#E95A56"/>
<stop offset="1" stop-color="#833330"/>
</linearGradient>
</defs>
</svg>
