<svg width="24" height="25" viewBox="0 0 24 25" fill="none" xmlns="http://www.w3.org/2000/svg">
<path d="M1.5 7.76294C1.5 6.86783 1.85558 6.00939 2.48851 5.37645C3.12145 4.74352 3.97989 4.38794 4.875 4.38794H19.125C20.0201 4.38794 20.8785 4.74352 21.5115 5.37645C22.1444 6.00939 22.5 6.86783 22.5 7.76294V17.5129C22.5 18.408 22.1444 19.2665 21.5115 19.8994C20.8785 20.5324 20.0201 20.8879 19.125 20.8879H4.875C3.97989 20.8879 3.12145 20.5324 2.48851 19.8994C1.85558 19.2665 1.5 18.408 1.5 17.5129V7.76294ZM4.875 5.88794C4.37772 5.88794 3.90081 6.08548 3.54917 6.43711C3.19754 6.78874 3 7.26566 3 7.76294V8.88794H21V7.76294C21 7.26566 20.8025 6.78874 20.4508 6.43711C20.0992 6.08548 19.6223 5.88794 19.125 5.88794H4.875ZM3 17.5129C3 18.0102 3.19754 18.4871 3.54917 18.8388C3.90081 19.1904 4.37772 19.3879 4.875 19.3879H19.125C19.6223 19.3879 20.0992 19.1904 20.4508 18.8388C20.8025 18.4871 21 18.0102 21 17.5129V10.3879H3V17.5129ZM15.75 14.8879H18C18.1989 14.8879 18.3897 14.967 18.5303 15.1076C18.671 15.2483 18.75 15.439 18.75 15.6379C18.75 15.8369 18.671 16.0276 18.5303 16.1683C18.3897 16.3089 18.1989 16.3879 18 16.3879H15.75C15.5511 16.3879 15.3603 16.3089 15.2197 16.1683C15.079 16.0276 15 15.8369 15 15.6379C15 15.439 15.079 15.2483 15.2197 15.1076C15.3603 14.967 15.5511 14.8879 15.75 14.8879Z" fill="#444444"/>
</svg>
