<svg width="30" height="30" viewBox="0 0 30 30" fill="none" xmlns="http://www.w3.org/2000/svg">
<path d="M27.8758 5.23929L24.0722 1.43929C23.6079 0.975009 22.9865 0.714294 22.3294 0.714294C21.6722 0.714294 21.0508 0.971437 20.5865 1.43929L16.4901 5.52858C16.0258 5.99287 15.7651 6.61787 15.7651 7.27501C15.7651 7.93572 16.0222 8.55358 16.4901 9.02144L19.6901 12.225C18.9611 13.9235 17.9137 15.4668 16.6044 16.7714C15.2936 18.0893 13.7615 19.1286 12.0615 19.8643L8.8615 16.6607C8.39721 16.1964 7.77578 15.9357 7.11864 15.9357C6.79451 15.9345 6.4734 15.998 6.17412 16.1225C5.87485 16.247 5.60343 16.43 5.37578 16.6607L1.27578 20.75C0.811496 21.2143 0.550781 21.8393 0.550781 22.4964C0.550781 23.1572 0.807924 23.775 1.27578 24.2429L5.07578 28.0429C5.86864 28.8357 6.9615 29.2893 8.08292 29.2893C8.31507 29.2893 8.54007 29.2714 8.76864 29.2322C13.4972 28.4536 18.1901 25.9357 21.9794 22.15C25.7651 18.3572 28.2794 13.6643 29.0651 8.93215C29.2901 7.5893 28.8401 6.20715 27.8758 5.23929ZM26.5329 8.50715C25.8365 12.7179 23.5722 16.9179 20.1615 20.3286C16.7508 23.7393 12.5544 26.0036 8.34364 26.7C7.81507 26.7893 7.27221 26.6107 6.8865 26.2286L3.15435 22.4964L7.1115 18.5357L11.3901 22.8214L11.4222 22.8536L12.1936 22.5679C14.5327 21.7079 16.6567 20.3496 18.4186 18.5871C20.1805 16.8246 21.5381 14.7001 22.3972 12.3607L22.6829 11.5893L18.3686 7.27858L22.3258 3.31787L26.0579 7.05001C26.4436 7.43572 26.6222 7.97858 26.5329 8.50715Z" fill="url(#paint0_linear_1994_30065)"/>
<defs>
<linearGradient id="paint0_linear_1994_30065" x1="0.550781" y1="4.28617" x2="34.1252" y2="29.2851" gradientUnits="userSpaceOnUse">
<stop stop-color="#E95A56"/>
<stop offset="1" stop-color="#833330"/>
</linearGradient>
</defs>
</svg>
