<svg width="33" height="32" viewBox="0 0 33 32" fill="none" xmlns="http://www.w3.org/2000/svg">
<path d="M29.9185 11.7178L21.1185 2.91784C20.8863 2.6857 20.5827 2.57141 20.2792 2.57141C19.9756 2.57141 19.672 2.6857 19.4399 2.91784L13.6863 8.67498C13.2506 8.62498 12.8113 8.60355 12.372 8.60355C9.75774 8.60355 7.14345 9.46427 4.99703 11.1857C4.86705 11.2901 4.76051 11.4206 4.68436 11.5689C4.60821 11.7172 4.56415 11.8799 4.55505 12.0463C4.54596 12.2128 4.57202 12.3793 4.63156 12.535C4.6911 12.6907 4.78277 12.8321 4.9006 12.95L11.3899 19.4393L3.69703 27.125C3.60276 27.2187 3.54458 27.3426 3.53274 27.475L3.41131 28.8036C3.37917 29.1393 3.64703 29.425 3.97917 29.425C3.99703 29.425 4.01488 29.425 4.03274 29.4214L5.36131 29.3C5.49345 29.2893 5.61845 29.2286 5.71131 29.1357L13.4042 21.4428L19.8935 27.9321C20.1256 28.1643 20.4292 28.2786 20.7327 28.2786C21.0792 28.2786 21.422 28.1286 21.6577 27.8357C23.6685 25.325 24.5042 22.1821 24.1649 19.1428L29.9185 13.3893C30.3792 12.9321 30.3792 12.1821 29.9185 11.7178ZM22.3435 17.3321L21.4685 18.2071L21.6042 19.4357C21.817 21.3359 21.4378 23.2555 20.5185 24.9321L7.90774 12.3143C8.36845 12.0607 8.84703 11.8464 9.34703 11.675C10.3185 11.3393 11.3363 11.1714 12.372 11.1714C12.7149 11.1714 13.0613 11.1893 13.4042 11.2286L14.6327 11.3643L15.5077 10.4893L20.2827 5.71427L27.122 12.5536L22.3435 17.3321Z" fill="url(#paint0_linear_1994_30087)"/>
<defs>
<linearGradient id="paint0_linear_1994_30087" x1="3.40869" y1="5.92811" x2="34.9622" y2="29.4269" gradientUnits="userSpaceOnUse">
<stop stop-color="#E95A56"/>
<stop offset="1" stop-color="#833330"/>
</linearGradient>
</defs>
</svg>
