<?xml version="1.0" encoding="UTF-8"?>
<svg version="1.1" xmlns="http://www.w3.org/2000/svg" width="512" height="512">
<path d="M0 0 C2.61729666 2.07061344 4.93756696 4.39014162 7.28051758 6.76293945 C8.31598724 7.7878952 8.31598724 7.7878952 9.37237549 8.83355713 C11.63989275 11.08354184 13.89254858 13.34775613 16.14453125 15.61328125 C17.72098867 17.18704274 19.29803935 18.76021016 20.87565613 20.33280945 C24.17454428 23.62580919 27.46611111 26.92591302 30.75268555 30.23120117 C34.96364995 34.46497267 39.19234244 38.68050804 43.42667103 42.8908968 C46.6844125 46.13417905 49.93256037 49.38693458 53.17789268 52.64262962 C54.7334715 54.20087436 56.29202057 55.75615981 57.8535862 57.30840492 C60.03437454 59.47902443 62.20191211 61.66207319 64.36645508 63.84887695 C65.01216965 64.4864946 65.65788422 65.12411224 66.32316589 65.78105164 C70.7888084 70.33206033 72.72376305 73.9613936 73.3125 80.4375 C72.62276288 88.30050317 68.88315391 92.70098822 63.47596169 98.02460957 C62.80709053 98.69899489 62.13821937 99.37338021 61.44907939 100.06820145 C59.20116476 102.32973138 56.9392523 104.57671424 54.67715454 106.8240509 C53.04798235 108.45711518 51.41968482 110.09105241 49.792189 111.72578734 C45.31398385 116.21877785 40.82335823 120.69917291 36.33061743 125.1776222 C31.98513873 129.51119713 27.65099984 133.8560993 23.31560554 138.19975803 C13.90062653 147.6319315 4.47430701 157.05270631 -4.9567721 166.46877848 C-13.20903765 174.70799718 -21.45737061 182.9511283 -29.70183182 191.19815636 C-30.24850695 191.74499191 -30.79518209 192.29182746 -31.35842314 192.85523378 C-33.57747962 195.07495384 -35.79651669 197.29469332 -38.01552527 199.51446126 C-58.83393975 220.33990078 -79.66359709 241.15406189 -100.4985957 261.96290823 C-119.0160484 280.45724077 -137.52461218 298.96042316 -156.02539062 317.47143555 C-160.76354757 322.21219443 -165.501713 326.95294484 -170.23996544 331.69360828 C-170.82326996 332.27721026 -171.40657449 332.86081223 -172.00755491 333.46209911 C-187.46081596 348.92297137 -202.92108354 364.37683388 -218.38355124 379.82849807 C-220.0468644 381.4906634 -221.71017523 383.15283106 -223.37348239 384.81500239 C-224.47690721 385.91767197 -225.58033723 387.02033634 -226.68377248 388.12299547 C-234.92893812 396.36249827 -243.17059854 404.60549617 -251.41065598 412.85010719 C-260.77711169 422.22166533 -270.1490116 431.5877414 -279.52810024 440.94665716 C-284.31626236 445.72478593 -289.10183523 450.50543844 -293.88105965 455.29250908 C-298.25164386 459.67012191 -302.62903514 464.04080284 -307.01208635 468.40593215 C-308.60082911 469.99061212 -310.18702184 471.57785339 -311.77046458 473.16782925 C-313.91492424 475.32038153 -316.06830959 477.46358163 -318.2242794 479.60459614 C-318.84400324 480.23105763 -319.46372708 480.85751912 -320.10223043 481.50296429 C-324.58401301 485.9243845 -328.35540945 488.26016472 -334.8125 488.4375 C-335.60269531 488.47746094 -336.39289063 488.51742188 -337.20703125 488.55859375 C-344.4372142 487.11255716 -349.98581987 481.45382249 -355.01098633 476.37719727 C-355.66082489 475.73261566 -356.31066345 475.08803406 -356.98019409 474.42391968 C-359.10503142 472.3121805 -361.21882947 470.18978413 -363.33203125 468.06640625 C-364.81512937 466.58533128 -366.2986724 465.10470171 -367.78263855 463.62449646 C-370.88139448 460.53014968 -373.97469395 457.43047676 -377.06420898 454.3269043 C-381.01949777 450.35449481 -384.9881437 446.39574655 -388.96095753 442.44087315 C-392.02303297 439.38964792 -395.07791537 436.33130155 -398.13068199 433.2707653 C-399.59128493 431.80816536 -401.05410801 430.34777896 -402.51920509 428.88968086 C-404.5654893 426.85103448 -406.60187929 424.80298438 -408.63598633 422.75219727 C-409.54070427 421.85658836 -409.54070427 421.85658836 -410.46369934 420.94288635 C-414.37860568 416.96844849 -417.51328989 413.13021402 -418.3984375 407.4375 C-418.39070313 406.633125 -418.38296875 405.82875 -418.375 405 C-418.38273437 404.195625 -418.39046875 403.39125 -418.3984375 402.5625 C-417.35444939 395.84822354 -413.09789315 391.66771081 -408.478755 387.09843826 C-407.81018344 386.42520678 -407.14161188 385.75197531 -406.45278057 385.05834287 C-404.20354885 382.79713027 -401.94375707 380.54677722 -399.68388367 378.29620361 C-398.05563937 376.66378779 -396.4280483 375.03072021 -394.80105621 373.39705634 C-390.32255805 368.90406147 -385.83470726 364.42051077 -381.34527647 359.93844342 C-377.00342583 355.60228758 -372.67006187 351.25765831 -368.33573011 346.91398944 C-358.9223192 337.48090145 -349.50025116 328.05649809 -340.07439401 318.63584853 C-331.82604553 310.39205495 -323.58027697 302.14569233 -315.3371067 293.89672089 C-314.23192645 292.79078378 -313.12674576 291.68484711 -312.02156464 290.57891087 C-310.35622805 288.91242911 -308.69089381 287.245945 -307.02556674 285.57945373 C-291.54103061 270.08421107 -276.05350404 254.59196247 -260.55966473 239.10602188 C-259.97548428 238.52213861 -259.39130384 237.93825534 -258.78942096 237.33667864 C-254.04524753 232.59495422 -249.30099286 227.8533111 -244.55673218 223.11167399 C-226.04586082 204.61090771 -207.54424587 186.10093037 -189.05004883 167.58349609 C-168.27793496 146.78532521 -147.49924018 125.99376256 -126.71053725 105.21217227 C-124.4951204 102.9974715 -122.2797244 100.78274988 -120.06434059 98.56801605 C-119.51884019 98.02268546 -118.97333979 97.47735487 -118.41130907 96.91549911 C-110.16827191 88.67476726 -101.9303952 80.42890028 -93.69507408 72.18045807 C-84.33296294 62.80345731 -74.96388356 53.43348422 -65.58540114 44.07285604 C-60.79781719 39.29401096 -56.01374353 34.51177612 -51.23814583 29.72094917 C-46.87024893 25.33929547 -42.49330134 20.96690439 -38.10881255 16.60185513 C-36.52051892 15.01734955 -34.9356259 13.42942675 -33.3544186 11.83784953 C-31.2115999 9.68197514 -29.05694085 7.53868502 -26.89876842 5.39819717 C-26.2816716 4.77144984 -25.66457478 4.1447025 -25.02877805 3.49896282 C-17.71911213 -3.68749567 -9.15635257 -5.2126035 0 0 Z M-14.01953125 9.21484375 C-14.90705078 10.06755859 -14.90705078 10.06755859 -15.8125 10.9375 C-16.41707031 11.50339844 -17.02164062 12.06929687 -17.64453125 12.65234375 C-18.09183594 13.09707031 -18.53914063 13.54179687 -19 14 C-17.02088887 18.93640363 -12.98047356 21.87600264 -9.1171875 25.3671875 C-7 28 -7 28 -6.6328125 31.2578125 C-7 34 -7 34 -8 35 C-10.5625 35.5 -10.5625 35.5 -14 35 C-16.13876456 33.49053396 -17.98407801 31.8277254 -19.875 30.01953125 C-22.46936726 27.55392854 -25.25046121 25.29128232 -28 23 C-34.93 29.93 -34.93 29.93 -42 37 C-39.91757929 41.16484143 -37.43749703 43.70367533 -34.1171875 46.83203125 C-32.93807136 47.97124938 -31.75970863 49.11124773 -30.58203125 50.25195312 C-28.72848746 52.03742059 -26.87032582 53.81691086 -24.99853516 55.58325195 C-23.18867014 57.29611736 -21.40188518 59.0305085 -19.6171875 60.76953125 C-19.05474335 61.2895723 -18.49229919 61.80961334 -17.91281128 62.34541321 C-15.00074128 65.21792123 -14.03214723 66.70253379 -13.58642578 70.8269043 C-14 74 -14 74 -15 75 C-17.98992619 75.52191841 -20.08422836 75.62388565 -22.65814209 73.87036133 C-24.49620195 72.1988047 -26.2173627 70.45645888 -27.9296875 68.65625 C-28.88248093 67.69072205 -28.88248093 67.69072205 -29.85452271 66.70568848 C-31.87588415 64.65079697 -33.87536924 62.57602222 -35.875 60.5 C-37.24339943 59.10150096 -38.61317631 57.70434829 -39.984375 56.30859375 C-43.3390878 52.88780147 -46.67433289 49.4490274 -50 46 C-51.11228972 46.9457431 -52.22348623 47.892772 -53.33422852 48.84033203 C-53.95314468 49.36756866 -54.57206085 49.8948053 -55.20973206 50.4380188 C-57.5563298 52.48538918 -59.75278049 54.65666942 -61.9375 56.875 C-62.70964844 57.65617187 -63.48179687 58.43734375 -64.27734375 59.2421875 C-64.84582031 59.82226562 -65.41429687 60.40234375 -66 61 C-65.154375 61.99 -64.30875 62.98 -63.4375 64 C-62.89867187 64.63679688 -62.35984375 65.27359375 -61.8046875 65.9296875 C-60.57418725 67.34130034 -59.30626453 68.72094079 -58.0078125 70.0703125 C-57.04488281 71.08738281 -57.04488281 71.08738281 -56.0625 72.125 C-55.45535156 72.74632813 -54.84820312 73.36765625 -54.22265625 74.0078125 C-53 76 -53 76 -53.24609375 78.6796875 C-54 81 -54 81 -55 82 C-57.97087134 82.48788503 -60.07575876 82.64557273 -62.61621094 80.87109375 C-64.2820639 79.30827272 -65.83571983 77.68750715 -67.375 76 C-68.19291016 75.14148438 -68.19291016 75.14148438 -69.02734375 74.265625 C-70.36559012 72.85694461 -71.68474975 71.43017503 -73 70 C-77.32504836 71.65863505 -80.09418825 74.871041 -83.25 78.125 C-83.80429687 78.68832031 -84.35859375 79.25164062 -84.9296875 79.83203125 C-86.29104485 81.21686028 -87.64614859 82.60783204 -89 84 C-87.36930115 88.28437867 -84.11710227 91.01216193 -80.86328125 94.0859375 C-79.63403945 95.2752916 -78.40554604 96.46541959 -77.17773438 97.65625 C-75.24285994 99.52294478 -73.30331872 101.38368663 -71.3503418 103.23144531 C-69.46371612 105.02135142 -67.59989504 106.83257957 -65.73828125 108.6484375 C-64.85406242 109.46905167 -64.85406242 109.46905167 -63.95198059 110.3062439 C-62.33325195 111.90380859 -62.33325195 111.90380859 -60 115 C-60.14135742 118.39697266 -60.14135742 118.39697266 -61 121 C-63.5 121.9375 -63.5 121.9375 -67 122 C-74.28670078 117.15063316 -80.3394011 109.77634608 -86.5 103.5625 C-87.52320139 102.5342702 -88.54663733 101.50627374 -89.5703125 100.47851562 C-92.04957999 97.98835662 -94.52567538 95.49507167 -97 93 C-100.95374187 96.33116615 -104.81041857 99.68428556 -108.4375 103.375 C-109.45650391 104.40753906 -109.45650391 104.40753906 -110.49609375 105.4609375 C-111.24052734 106.22277344 -111.24052734 106.22277344 -112 107 C-110.49339428 110.64713844 -108.342843 112.68696531 -105.4375 115.3125 C-100.44739745 120.14266337 -100.44739745 120.14266337 -99.9375 124.0625 C-99.958125 125.031875 -99.97875 126.00125 -100 127 C-103 129 -103 129 -105.29296875 129.00390625 C-109.21593103 127.54907031 -111.48324849 124.94551346 -114.3125 121.9375 C-114.86228516 121.36966797 -115.41207031 120.80183594 -115.97851562 120.21679688 C-117.32827365 118.82009075 -118.66541525 117.41121163 -120 116 C-125.66129431 120.69766975 -130.85228904 125.74723372 -136 131 C-132.38002071 135.45295031 -128.51252043 139.52300534 -124.3828125 143.50390625 C-123.87788269 143.99386078 -123.37295288 144.48381531 -122.85272217 144.98861694 C-120.74222886 147.03614567 -118.63144641 149.08256075 -116.49707031 151.10522461 C-114.92418478 152.59937071 -113.37118932 154.11197128 -111.8203125 155.62890625 C-110.89492676 156.51650635 -109.96954102 157.40410645 -109.01611328 158.31860352 C-106.62138137 161.50355635 -106.48027004 163.10411815 -107 167 C-108 168 -108 168 -111.13696289 168.4453125 C-116.40049469 167.83855765 -118.28347068 165.62110351 -121.80859375 161.875 C-122.42017838 161.25351074 -123.031763 160.63202148 -123.66188049 159.99169922 C-125.60418193 158.01033194 -127.52068774 156.00600545 -129.4375 154 C-130.75292589 152.64945077 -132.06996686 151.30047261 -133.38867188 149.953125 C-136.61144641 146.65332863 -139.81130638 143.33272773 -143 140 C-145.81878012 141.28174718 -147.85241496 142.61007615 -150.015625 144.8203125 C-150.54414063 145.35527344 -151.07265625 145.89023438 -151.6171875 146.44140625 C-152.42542969 147.27478516 -152.42542969 147.27478516 -153.25 148.125 C-154.08144531 148.96998047 -154.08144531 148.96998047 -154.9296875 149.83203125 C-156.29104485 151.21686028 -157.64614859 152.60783204 -159 154 C-158.60071289 154.46535156 -158.20142578 154.93070313 -157.79003906 155.41015625 C-156.7678997 156.60371029 -155.74985077 157.80077147 -154.734375 159 C-153.60874066 160.29802879 -152.45347041 161.57114804 -151.265625 162.8125 C-147.095899 167.26020774 -147.095899 167.26020774 -146.5625 171.375 C-147 174 -147 174 -148 175 C-150.97087134 175.48788503 -153.07575876 175.64557273 -155.61621094 173.87109375 C-157.2820639 172.30827272 -158.83571983 170.68750715 -160.375 169 C-160.92027344 168.42765625 -161.46554687 167.8553125 -162.02734375 167.265625 C-163.36559012 165.85694461 -164.68474975 164.43017503 -166 163 C-170.32504836 164.65863505 -173.09418825 167.871041 -176.25 171.125 C-177.08144531 171.96998047 -177.08144531 171.96998047 -177.9296875 172.83203125 C-179.29104485 174.21686028 -180.64614859 175.60783204 -182 177 C-180.38533208 181.17631674 -177.30229884 183.83105745 -174.1171875 186.83203125 C-172.93807136 187.97124938 -171.75970863 189.11124773 -170.58203125 190.25195312 C-168.72848746 192.03742059 -166.87032582 193.81691086 -164.99853516 195.58325195 C-163.18867014 197.29611736 -161.40188518 199.0305085 -159.6171875 200.76953125 C-158.77352127 201.54959282 -158.77352127 201.54959282 -157.91281128 202.34541321 C-155.00074128 205.21792123 -154.03214723 206.70253379 -153.58642578 210.8269043 C-154 214 -154 214 -155 215 C-157.98992619 215.52191841 -160.08422836 215.62388565 -162.65814209 213.87036133 C-164.49620195 212.1988047 -166.2173627 210.45645888 -167.9296875 208.65625 C-168.56488312 208.0125647 -169.20007874 207.36887939 -169.85452271 206.70568848 C-171.87588415 204.65079697 -173.87536924 202.57602222 -175.875 200.5 C-177.24339943 199.10150096 -178.61317631 197.70434829 -179.984375 196.30859375 C-183.3390878 192.88780147 -186.67433289 189.4490274 -190 186 C-191.11228972 186.9457431 -192.22348623 187.892772 -193.33422852 188.84033203 C-193.95314468 189.36756866 -194.57206085 189.8948053 -195.20973206 190.4380188 C-197.5563298 192.48538918 -199.75278049 194.65666942 -201.9375 196.875 C-202.70964844 197.65617188 -203.48179687 198.43734375 -204.27734375 199.2421875 C-204.84582031 199.82226562 -205.41429687 200.40234375 -206 201 C-202.85010338 204.76451059 -199.72562977 208.28836752 -196.125 211.625 C-193.07596154 214.62019231 -193.07596154 214.62019231 -192.4375 217.8125 C-193 220 -193 220 -195 222 C-199.50454063 221.96214672 -201.56134132 221.35547435 -205.08984375 218.49609375 C-206.05495329 217.49159199 -207.00413261 216.47156263 -207.9375 215.4375 C-208.67709961 214.65729492 -208.67709961 214.65729492 -209.43164062 213.86132812 C-210.63532929 212.58752167 -211.81972352 211.29552951 -213 210 C-217.32504836 211.65863505 -220.09418825 214.871041 -223.25 218.125 C-224.08144531 218.96998047 -224.08144531 218.96998047 -224.9296875 219.83203125 C-226.29104485 221.21686028 -227.64614859 222.60783204 -229 224 C-225.437378 228.36375676 -221.67834679 232.358224 -217.63671875 236.28515625 C-217.15631134 236.75295502 -216.67590393 237.22075378 -216.18093872 237.70272827 C-214.1761012 239.65348492 -212.17013099 241.60248398 -210.14526367 243.5324707 C-208.65161852 244.95938206 -207.17453063 246.40182892 -205.69921875 247.84765625 C-204.82096436 248.69336182 -203.94270996 249.53906738 -203.0378418 250.41040039 C-200.70409229 253.37602649 -200.18166567 255.26068784 -200 259 C-201.125 260.9375 -201.125 260.9375 -203 262 C-208.40557585 261.89041538 -211.09215025 258.42238693 -214.61328125 254.77734375 C-215.22769577 254.15726944 -215.84211029 253.53719513 -216.47514343 252.89833069 C-218.43053458 250.92059417 -220.37154064 248.92939183 -222.3125 246.9375 C-223.63774625 245.59218652 -224.96390809 244.2477743 -226.29101562 242.90429688 C-229.53805073 239.61321872 -232.77225596 236.30999568 -236 233 C-238.81878012 234.28174718 -240.85241496 235.61007615 -243.015625 237.8203125 C-243.54414063 238.35527344 -244.07265625 238.89023438 -244.6171875 239.44140625 C-245.42542969 240.27478516 -245.42542969 240.27478516 -246.25 241.125 C-247.08144531 241.96998047 -247.08144531 241.96998047 -247.9296875 242.83203125 C-249.29104485 244.21686028 -250.64614859 245.60783204 -252 247 C-250.02088887 251.93640363 -245.98047356 254.87600264 -242.1171875 258.3671875 C-240 261 -240 261 -239.5078125 264.1953125 C-239.75144531 265.58363281 -239.75144531 265.58363281 -240 267 C-243 269 -243 269 -245.29296875 269.00390625 C-249.21593103 267.54907031 -251.48324849 264.94551346 -254.3125 261.9375 C-254.86228516 261.36966797 -255.41207031 260.80183594 -255.97851562 260.21679688 C-257.32827365 258.82009075 -258.66541525 257.41121163 -260 256 C-265.66129431 260.69766975 -270.85228904 265.74723372 -276 271 C-272.38002071 275.45295031 -268.51252043 279.52300534 -264.3828125 283.50390625 C-263.62541779 284.23883804 -263.62541779 284.23883804 -262.85272217 284.98861694 C-260.74222886 287.03614567 -258.63144641 289.08256075 -256.49707031 291.10522461 C-254.92418478 292.59937071 -253.37118932 294.11197128 -251.8203125 295.62890625 C-250.89492676 296.51650635 -249.96954102 297.40410645 -249.01611328 298.31860352 C-246.62138137 301.50355635 -246.48027004 303.10411815 -247 307 C-248 308 -248 308 -251.13696289 308.4453125 C-256.40049469 307.83855765 -258.28347068 305.62110351 -261.80859375 301.875 C-262.42017838 301.25351074 -263.031763 300.63202148 -263.66188049 299.99169922 C-265.60418193 298.01033194 -267.52068774 296.00600545 -269.4375 294 C-270.75292589 292.64945077 -272.06996686 291.30047261 -273.38867188 289.953125 C-276.61144641 286.65332863 -279.81130638 283.33272773 -283 280 C-285.81878012 281.28174718 -287.85241496 282.61007615 -290.015625 284.8203125 C-290.80839844 285.62275391 -290.80839844 285.62275391 -291.6171875 286.44140625 C-292.15601563 286.99699219 -292.69484375 287.55257813 -293.25 288.125 C-293.80429687 288.68832031 -294.35859375 289.25164062 -294.9296875 289.83203125 C-296.29104485 291.21686028 -297.64614859 292.60783204 -299 294 C-296.02114541 297.54997706 -293.05624938 300.99819974 -289.6875 304.1875 C-287.1374359 306.85617173 -286.47848763 307.56172462 -286 311 C-286.9375 313.25 -286.9375 313.25 -288 315 C-290.93737892 315.42340597 -293.10800299 315.61939756 -295.62011719 313.875 C-297.281367 312.30859133 -298.83630643 310.68686406 -300.375 309 C-300.92027344 308.42765625 -301.46554687 307.8553125 -302.02734375 307.265625 C-303.36559012 305.85694461 -304.68474975 304.43017503 -306 303 C-310.32504836 304.65863505 -313.09418825 307.871041 -316.25 311.125 C-316.80429687 311.68832031 -317.35859375 312.25164062 -317.9296875 312.83203125 C-319.29104485 314.21686028 -320.64614859 315.60783204 -322 317 C-320.37478617 321.17215339 -317.30703758 323.8949231 -314.15234375 326.9375 C-312.97840071 328.09102889 -311.80457615 329.24467838 -310.63085938 330.3984375 C-308.78103137 332.2047083 -306.92880831 334.00844004 -305.07397461 335.80957031 C-303.28117608 337.55412038 -301.49765588 339.30775437 -299.71484375 341.0625 C-298.87891945 341.86578735 -298.87891945 341.86578735 -298.02610779 342.68530273 C-293.16751466 347.48073543 -293.16751466 347.48073543 -293 351 C-293.9375 353.25 -293.9375 353.25 -295 355 C-297.9564624 355.45665731 -300.11699856 355.59807127 -302.66204834 353.87426758 C-304.49542652 352.19883481 -306.21793807 350.45585398 -307.9296875 348.65625 C-308.56488312 348.0125647 -309.20007874 347.36887939 -309.85452271 346.70568848 C-311.87588415 344.65079697 -313.87536924 342.57602222 -315.875 340.5 C-317.24339943 339.10150096 -318.61317631 337.70434829 -319.984375 336.30859375 C-323.3390878 332.88780147 -326.67433289 329.4490274 -330 326 C-331.11228972 326.9457431 -332.22348623 327.892772 -333.33422852 328.84033203 C-333.95314468 329.36756866 -334.57206085 329.8948053 -335.20973206 330.4380188 C-337.5563298 332.48538918 -339.75278049 334.65666942 -341.9375 336.875 C-342.70964844 337.65617187 -343.48179687 338.43734375 -344.27734375 339.2421875 C-344.84582031 339.82226562 -345.41429687 340.40234375 -346 341 C-342.85010338 344.76451059 -339.72562977 348.28836752 -336.125 351.625 C-333.07596154 354.62019231 -333.07596154 354.62019231 -332.4375 357.8125 C-333 360 -333 360 -335 362 C-339.50454063 361.96214672 -341.56134132 361.35547435 -345.08984375 358.49609375 C-346.05495329 357.49159199 -347.00413261 356.47156263 -347.9375 355.4375 C-348.43056641 354.91736328 -348.92363281 354.39722656 -349.43164062 353.86132812 C-350.63532929 352.58752167 -351.81972352 351.29552951 -353 350 C-357.32504836 351.65863505 -360.09418825 354.871041 -363.25 358.125 C-363.80429687 358.68832031 -364.35859375 359.25164062 -364.9296875 359.83203125 C-366.29104485 361.21686028 -367.64614859 362.60783204 -369 364 C-365.4430474 368.36287201 -361.68902405 372.34004078 -357.63671875 376.25 C-357.15631134 376.71543213 -356.67590393 377.18086426 -356.18093872 377.66040039 C-354.17714023 379.60134385 -352.17312944 381.5412005 -350.14526367 383.45703125 C-348.64913689 384.87413809 -347.17318564 386.30990314 -345.69921875 387.75 C-344.82096436 388.59046875 -343.94270996 389.4309375 -343.0378418 390.296875 C-340.5780591 393.55968967 -340.26203085 395.97123693 -340 400 C-343 402 -343 402 -345.27416992 402.01391602 C-349.29381918 400.5187433 -351.66854124 397.82571216 -354.61328125 394.77734375 C-355.22769577 394.15726944 -355.84211029 393.53719513 -356.47514343 392.89833069 C-358.43053458 390.92059417 -360.37154064 388.92939183 -362.3125 386.9375 C-363.63774625 385.59218652 -364.96390809 384.2477743 -366.29101562 382.90429688 C-369.53805073 379.61321872 -372.77225596 376.30999568 -376 373 C-378.81878012 374.28174718 -380.85241496 375.61007615 -383.015625 377.8203125 C-383.80839844 378.62275391 -383.80839844 378.62275391 -384.6171875 379.44140625 C-385.15601563 379.99699219 -385.69484375 380.55257813 -386.25 381.125 C-386.80429687 381.68832031 -387.35859375 382.25164062 -387.9296875 382.83203125 C-389.29104485 384.21686028 -390.64614859 385.60783204 -392 387 C-390.02088887 391.93640363 -385.98047356 394.87600264 -382.1171875 398.3671875 C-380 401 -380 401 -379.5078125 404.1953125 C-379.67023438 405.12085938 -379.83265625 406.04640625 -380 407 C-383 409 -383 409 -385.29296875 409.00390625 C-389.21593103 407.54907031 -391.48324849 404.94551346 -394.3125 401.9375 C-394.86228516 401.36966797 -395.41207031 400.80183594 -395.97851562 400.21679688 C-397.32827365 398.82009075 -398.66541525 397.41121163 -400 396 C-401.20917163 396.82320163 -402.39199254 397.68519206 -403.5625 398.5625 C-404.22378906 399.03816406 -404.88507813 399.51382812 -405.56640625 400.00390625 C-407.34069421 402.04024246 -407.34069421 402.04024246 -406.85487366 405.31690979 C-405.88614091 409.49054418 -404.77650127 410.95513942 -401.75561523 413.92553711 C-400.85475693 414.82594223 -399.95389862 415.72634735 -399.02574158 416.65403748 C-398.0370106 417.61213481 -397.04795366 418.56989588 -396.05859375 419.52734375 C-395.04980539 420.5249308 -394.04234156 421.52385886 -393.03614807 422.52406311 C-390.39417179 425.14321478 -387.73467663 427.74384153 -385.07104492 430.34094238 C-382.35224409 432.99818316 -379.65051122 435.67265567 -376.94726562 438.34570312 C-371.64801008 443.58075862 -366.33011713 448.79635002 -361 454 C-358.19366196 452.71984128 -356.14144862 451.39122197 -353.96404243 449.21243942 C-353.38742004 448.64031162 -352.81079766 448.06818382 -352.21670187 447.47871882 C-351.59188913 446.84865205 -350.96707639 446.21858528 -350.32332993 445.56942558 C-349.65011857 444.89852192 -348.97690721 444.22761825 -348.28329551 443.53638417 C-346.01251078 441.27092335 -343.74897199 438.99835652 -341.48529053 436.72579956 C-339.84884446 435.09022507 -338.2119592 433.4550899 -336.57467103 431.8203584 C-332.53771196 427.78741522 -328.5054422 423.74982595 -324.4750825 419.71028851 C-319.64855233 414.87329529 -314.8162204 410.04211429 -309.98365605 405.21115097 C-301.06494512 396.29506944 -292.15090153 387.37433538 -283.23949432 378.45095444 C-274.41409757 369.6137299 -265.58664143 360.77857092 -256.75641632 351.94617081 C-256.20769795 351.39731496 -255.65897959 350.84845912 -255.09363339 350.28297128 C-252.30704081 347.49570204 -249.52041129 344.70846975 -246.73376754 341.92125167 C-226.98810635 322.17138793 -207.24708769 302.41688973 -187.50878906 282.65966797 C-168.33144791 263.46396268 -149.15201057 244.27035579 -129.96972656 225.07958984 C-129.37860653 224.48820675 -128.78748649 223.89682367 -128.17845372 223.28751988 C-122.24226472 217.34869387 -116.30603303 211.40991055 -110.36977005 205.47115849 C-98.27655972 193.37287552 -86.18363439 181.27430768 -74.09088135 169.17556763 C-73.53485689 168.61926859 -72.97883244 168.06296956 -72.40595876 167.48981298 C-35.26586484 130.33131293 1.86756359 93.16615199 39 56 C38.04665614 54.88177928 37.09245796 53.76428687 36.13790226 52.64710045 C35.60662537 52.02471847 35.07534847 51.40233649 34.52797228 50.76109445 C32.66601091 48.61505431 30.72075433 46.57253265 28.72631836 44.54931641 C27.94207993 43.75224274 27.15784149 42.95516907 26.34983826 42.13394165 C25.52154007 41.29825653 24.69324188 40.46257141 23.83984375 39.6015625 C22.97235001 38.72599701 22.10485626 37.85043152 21.21107483 36.94833374 C19.38625811 35.109754 17.55993194 33.2726713 15.73217773 31.43701172 C13.86279333 29.55603246 11.99790397 27.67057558 10.13745117 25.78076172 C7.44374174 23.0445887 4.73721606 20.32171755 2.02734375 17.6015625 C1.19702133 16.75373199 0.36669891 15.90590149 -0.48878479 15.03237915 C-1.6604142 13.86513809 -1.6604142 13.86513809 -2.85571289 12.67431641 C-3.87780602 11.64342392 -3.87780602 11.64342392 -4.92054749 10.59170532 C-7.94460415 8.27695802 -10.62434591 7.17247888 -14.01953125 9.21484375 Z " fill="#B44542" transform="translate(429,14)"/>
</svg>
