<svg width="47" height="51" viewBox="0 0 47 51" fill="none" xmlns="http://www.w3.org/2000/svg">
<g clip-path="url(#clip0_2349_56800)">
<path d="M46.2953 39.4187V35.881H42.5923C42.3636 34.7741 41.9257 33.7215 41.3022 32.7802L43.9283 30.1446L41.4361 27.6434L38.81 30.279C37.872 29.6532 36.8232 29.2137 35.7203 28.9842V25.2678H32.1953V28.9842C31.0924 29.2137 30.0436 29.6532 29.1056 30.279L26.4795 27.6434L23.9874 30.1446L26.6135 32.7802C25.9899 33.7215 25.552 34.7741 25.3233 35.881H21.6203V39.4187H25.3233C25.5525 40.5455 26.0001 41.5927 26.6135 42.5196L23.9874 45.1552L26.4795 47.6563L29.1056 45.0207C30.0436 45.6465 31.0924 46.0861 32.1953 46.3155V50.0319H35.7203V46.3155C36.8232 46.0861 37.872 45.6465 38.81 45.0207L41.4361 47.6563L43.9283 45.1552L41.3022 42.5196C41.9257 41.5782 42.3636 40.5256 42.5923 39.4187H46.2953ZM33.9578 42.9565C31.0426 42.9565 28.6703 40.5756 28.6703 37.6499C28.6703 34.7241 31.0426 32.3433 33.9578 32.3433C36.873 32.3433 39.2453 34.7241 39.2453 37.6499C39.2453 40.5756 36.873 42.9565 33.9578 42.9565ZM14.5703 7.5791H21.6203V11.1168H14.5703V7.5791Z" fill="url(#paint0_linear_2349_56800)"/>
<path d="M3.99473 46.4942V4.0414H32.1947V19.9612H35.7197V4.0414C35.7197 2.09034 34.1388 0.503662 32.1947 0.503662H3.99473C2.05069 0.503662 0.469727 2.09034 0.469727 4.0414V46.4942C0.469727 48.4453 2.05069 50.032 3.99473 50.032H18.0947V46.4942H3.99473Z" fill="url(#paint1_linear_2349_56800)"/>
</g>
<defs>
<linearGradient id="paint0_linear_2349_56800" x1="14.5703" y1="12.8857" x2="58.8164" y2="37.5086" gradientUnits="userSpaceOnUse">
<stop stop-color="#E95A56"/>
<stop offset="1" stop-color="#833330"/>
</linearGradient>
<linearGradient id="paint1_linear_2349_56800" x1="0.469727" y1="6.6947" x2="50.7371" y2="33.3364" gradientUnits="userSpaceOnUse">
<stop stop-color="#E95A56"/>
<stop offset="1" stop-color="#833330"/>
</linearGradient>
<clipPath id="clip0_2349_56800">
<rect width="47" height="50" fill="white" transform="translate(0 0.137939)"/>
</clipPath>
</defs>
</svg>
