<svg width="24" height="25" viewBox="0 0 24 25" fill="none" xmlns="http://www.w3.org/2000/svg">
<path d="M6 8.63794C6.79565 8.63794 7.55871 8.32187 8.12132 7.75926C8.68393 7.19665 9 6.43359 9 5.63794C9 4.84229 8.68393 4.07923 8.12132 3.51662C7.55871 2.95401 6.79565 2.63794 6 2.63794C5.20435 2.63794 4.44129 2.95401 3.87868 3.51662C3.31607 4.07923 3 4.84229 3 5.63794C3 6.43359 3.31607 7.19665 3.87868 7.75926C4.44129 8.32187 5.20435 8.63794 6 8.63794ZM6 8.63794V16.6379M6 16.6379C5.20435 16.6379 4.44129 16.954 3.87868 17.5166C3.31607 18.0792 3 18.8423 3 19.6379C3 20.4336 3.31607 21.1967 3.87868 21.7593C4.44129 22.3219 5.20435 22.6379 6 22.6379C6.79565 22.6379 7.55871 22.3219 8.12132 21.7593C8.68393 21.1967 9 20.4336 9 19.6379C9 18.8423 8.68393 18.0792 8.12132 17.5166C7.55871 16.954 6.79565 16.6379 6 16.6379ZM21 5.63794C21 6.43359 20.6839 7.19665 20.1213 7.75926C19.5587 8.32187 18.7956 8.63794 18 8.63794C17.2044 8.63794 16.4413 8.32187 15.8787 7.75926C15.3161 7.19665 15 6.43359 15 5.63794C15 4.84229 15.3161 4.07923 15.8787 3.51662C16.4413 2.95401 17.2044 2.63794 18 2.63794C18.7956 2.63794 19.5587 2.95401 20.1213 3.51662C20.6839 4.07923 21 4.84229 21 5.63794Z" stroke="#444444" stroke-width="1.5" stroke-linecap="round" stroke-linejoin="round"/>
<path d="M18 8.63794C18 9.56994 18 12.0359 17.848 12.4029C17.7475 12.6458 17.6001 12.8664 17.4143 13.0522C17.2284 13.238 17.0078 13.3854 16.765 13.4859C16.398 13.6379 15.932 13.6379 15 13.6379H9C8.068 13.6379 7.602 13.6379 7.235 13.7899C6.99218 13.8905 6.77155 14.0378 6.58572 14.2237C6.3999 14.4095 6.25251 14.6301 6.152 14.8729C6 15.2399 6 15.7059 6 16.6379" stroke="#444444" stroke-width="1.5" stroke-linecap="round" stroke-linejoin="round"/>
</svg>
