<?xml version="1.0" encoding="UTF-8" standalone="no"?>
<svg
   width="30"
   height="34"
   viewBox="0 0 30 34"
   fill="none"
   version="1.1"
   id="svg1"
   sodipodi:docname="InvestOman.svg"
   inkscape:version="1.4 (86a8ad7, 2024-10-11)"
   xmlns:inkscape="http://www.inkscape.org/namespaces/inkscape"
   xmlns:sodipodi="http://sodipodi.sourceforge.net/DTD/sodipodi-0.dtd"
   xmlns="http://www.w3.org/2000/svg"
   xmlns:svg="http://www.w3.org/2000/svg">
  <sodipodi:namedview
     id="namedview1"
     pagecolor="#ffffff"
     bordercolor="#000000"
     borderopacity="0.25"
     inkscape:showpageshadow="2"
     inkscape:pageopacity="0.0"
     inkscape:pagecheckerboard="0"
     inkscape:deskcolor="#d1d1d1"
     inkscape:zoom="11.867647"
     inkscape:cx="-7.4572491"
     inkscape:cy="9.2267658"
     inkscape:window-width="1920"
     inkscape:window-height="1009"
     inkscape:window-x="-8"
     inkscape:window-y="-8"
     inkscape:window-maximized="1"
     inkscape:current-layer="svg1" />
  <g
     id="Isolation_Mode"
     clip-path="url(#clip0_861_536)"
     transform="translate(-0.40014638)">
    <path
       id="Vector"
       d="M 29.4893,27.7601 C 19.9497,29.2809 4.25993,27.8374 0.400146,27.3167 l 0.201575,0.6468 c 4.539699,0.5809 21.313579,6.0366 21.313579,6.0366 5.1882,-2.4614 7.8444,-5.6103 7.967,-5.7585 l 0.5184,-0.6265 -0.9114,0.1455 z"
       fill="#ffffff" />
    <g
       id="Group">
      <path
         id="Vector_2"
         d="M 28.0378,18.4521 C 20.2393,13.3239 13.229,7.12198 7.17852,0 L 7.16199,0.804156 C 13.2887,7.92882 20.3779,14.1248 28.2564,19.2359 l -0.2191,-0.7843 z"
         fill="#ffffff" />
      <path
         id="Vector_3"
         d="M 28.2144,19.0839 C 20.3503,14.4388 13.2669,8.70452 7.13753,2.0238 L 7.12207,2.79521 C 13.3245,9.47486 20.4825,15.2011 28.4224,19.8285 Z"
         fill="#ffffff" />
      <path
         id="Vector_4"
         d="M 28.3908,19.7153 C 18.6688,14.6165 11.5401,8.51398 7.09635,4.05676 L 7.08142,4.79489 C 11.643,9.31384 18.841,15.3815 28.5881,20.4212 l -0.1973,-0.7065 z"
         fill="#ffffff" />
      <path
         id="Vector_5"
         d="M 7.04089,6.79884 C 11.6606,10.9962 18.9461,16.5861 28.7529,21.0127 L 28.5646,20.339 C 18.7802,15.8582 11.5609,10.2334 7.05529,6.08862 Z"
         fill="#ffffff" />
      <path
         id="Vector_6"
         d="M 6.99988,8.80818 C 11.6846,12.6888 19.0624,17.8015 28.9177,21.6038 L 28.738,20.9591 C 18.904,17.1079 11.5892,11.9604 7.01374,8.12427 Z"
         fill="#ffffff" />
      <path
         id="Vector_7"
         d="M 6.95935,10.8223 C 11.7161,14.3894 19.1925,19.0259 29.083,22.1937 L 28.9102,21.5753 C 19.0416,18.364 11.6254,13.6937 6.97268,10.1636 l -0.01333,0.6592 z"
         fill="#ffffff" />
      <path
         id="Vector_8"
         d="M 6.91833,12.8424 C 11.7556,16.0982 19.336,20.258 29.2478,22.7837 L 29.0814,22.1878 C 19.1931,19.6229 11.6697,15.4314 6.93167,12.2057 l -0.0128,0.6361 z"
         fill="#ffffff" />
      <path
         id="Vector_9"
         d="m 6.8772,14.8678 c 4.9269,2.945 12.6187,6.627 22.5348,8.5059 l -0.1611,-0.576 C 19.3604,20.8839 11.7225,17.1734 6.88946,14.2521 Z"
         fill="#ffffff" />
      <path
         id="Vector_10"
         d="m 6.83618,16.898 c 5.02502,2.6331 12.83522,5.8342 22.74122,7.0651 L 29.4211,23.4032 C 19.545,22.1422 11.7854,18.9148 6.84845,16.3005 Z"
         fill="#ffffff" />
      <path
         id="Vector_11"
         d="M 6.79456,18.9342 C 11.9267,21.2527 19.8644,23.969 29.7416,24.553 L 29.5891,24.0071 C 19.7449,23.3967 11.8574,20.6579 6.80629,18.3528 Z"
         fill="#ffffff" />
      <path
         id="Vector_12"
         d="m 6.75354,20.9751 c 5.24896,1.9997 13.32096,4.2253 23.15286,4.1674 L 29.7571,24.6078 C 19.9626,24.6427 11.939,22.3977 6.76527,20.4077 Z"
         fill="#ffffff" />
      <path
         id="Vector_13"
         d="M 29.924,25.2058 C 20.1956,25.8768 12.0297,24.1332 6.72311,22.4653 l -0.0112,0.5562 c 5.06609,1.5788 12.65389,3.2053 21.68959,2.8075 0.5508,-0.0241 1.1076,-0.0569 1.6691,-0.0966 l -0.1472,-0.5266 z"
         fill="#ffffff" />
      <path
         id="Vector_14"
         d="M 30.0898,25.8011 C 22.2684,26.8538 14.3968,26.4239 6.681,24.524 l -0.0112,0.5465 c 5.8835,1.4376 11.8551,2.0303 17.8276,1.7672 1.9129,-0.0842 3.8268,-0.2566 5.7375,-0.5158 l -0.1456,-0.5202 z"
         fill="#ffffff" />
    </g>
  </g>
  <defs
     id="defs1">
    <clipPath
       id="clip0_861_536">
      <rect
         width="30"
         height="34"
         fill="#ffffff"
         transform="translate(0.400146)"
         id="rect1"
         x="0"
         y="0" />
    </clipPath>
  </defs>
</svg>
