<?xml version="1.0" encoding="UTF-8" standalone="no"?>
<svg
   id="Layer_1"
   data-name="Layer 1"
   viewBox="0 0 45.264995 46.049999"
   version="1.1"
   sodipodi:docname="Maroof.svg"
   width="45.264996"
   height="46.049999"
   inkscape:version="1.4 (86a8ad7, 2024-10-11)"
   xmlns:inkscape="http://www.inkscape.org/namespaces/inkscape"
   xmlns:sodipodi="http://sodipodi.sourceforge.net/DTD/sodipodi-0.dtd"
   xmlns="http://www.w3.org/2000/svg"
   xmlns:svg="http://www.w3.org/2000/svg">
  <sodipodi:namedview
     id="namedview14"
     pagecolor="#ffffff"
     bordercolor="#000000"
     borderopacity="0.25"
     inkscape:showpageshadow="2"
     inkscape:pageopacity="0.0"
     inkscape:pagecheckerboard="0"
     inkscape:deskcolor="#d1d1d1"
     inkscape:zoom="8.07"
     inkscape:cx="-16.047088"
     inkscape:cy="35.625774"
     inkscape:window-width="1920"
     inkscape:window-height="1009"
     inkscape:window-x="-8"
     inkscape:window-y="-8"
     inkscape:window-maximized="1"
     inkscape:current-layer="Layer_1" />
  <defs
     id="defs2">
    <style
       id="style1">
      .cls-1 {
        fill: url(#linear-gradient);
      }

      .cls-2 {
        fill: #55524f;
      }

      .cls-2, .cls-3 {
        stroke-width: 0px;
      }

      .cls-3 {
        fill: #e2e1e1;
      }
    </style>
    <linearGradient
       id="linear-gradient"
       x1="54.950001"
       y1="25"
       x2="100.2"
       y2="25"
       gradientUnits="userSpaceOnUse">
      <stop
         offset="1"
         stop-color="#1a459d"
         id="stop1"
         style="stop-color:#ffffff;stop-opacity:1;" />
      <stop
         offset="1"
         stop-color="#08aa90"
         id="stop2"
         style="stop-color:#ffffff;stop-opacity:1;" />
    </linearGradient>
  </defs>
  <g
     id="g3"
     transform="translate(-54.958232,-1.97)">
    <path
       class="cls-3"
       d="M 77.6,0 C 64.13,0 53.2,11.19 53.2,25 53.2,38.81 64.12,50 77.6,50 91.08,50 102,38.81 102,25 102,11.19 91.08,0 77.6,0 M 66.56,32.95 c -0.11,0 -0.23,-0.02 -0.35,-0.05 -0.34,-0.1 -0.6,-0.33 -0.8,-0.67 -0.95,-1.69 -1.53,-3.47 -1.75,-5.34 -0.11,-0.94 -0.13,-1.87 -0.07,-2.78 0.12,-1.68 0.51,-3.27 1.17,-4.78 0.42,-0.95 0.93,-1.82 1.51,-2.63 0.04,-0.06 0.09,-0.13 0.13,-0.19 1.1,-1.52 2.47,-2.77 4.13,-3.73 2.23,-1.3 4.55,-1.95 6.94,-1.95 0.81,0 1.62,0.07 2.45,0.22 2.2,0.36 4.19,1.22 5.96,2.58 0.05,0.04 0.1,0.07 0.15,0.11 1.1,0.84 2.05,1.83 2.84,2.97 0.69,0.96 1.27,2 1.71,3.12 0.69,1.74 1.02,3.57 0.97,5.46 -0.04,1.94 -0.42,3.76 -1.14,5.46 -0.34,0.82 -0.77,1.59 -1.27,2.33 -0.15,0.23 -0.3,0.46 -0.47,0.69 -1.09,1.49 -2.46,2.72 -4.09,3.73 l -0.11,0.07 c -0.1,0.06 -0.33,0.14 -0.65,0.29 -0.36,0.19 -0.73,0.37 -1.11,0.53 -1.69,0.71 -3.49,1.04 -5.39,1.04 h -0.13 c -0.13,0 -0.42,-0.07 -0.88,-0.11 -0.45,-0.04 -1.03,-0.19 -1.72,-0.39 -0.12,-0.03 -0.25,-0.09 -0.37,-0.13 0.58,-0.74 1.12,-1.55 1.39,-2.23 0.58,0.1 1.17,0.17 1.78,0.19 0.26,0 0.52,-0.01 0.78,-0.03 0.26,-0.02 0.5,-0.03 0.71,-0.03 0.98,-0.12 1.91,-0.37 2.79,-0.72 v -0.02 c 0.49,-0.2 0.98,-0.43 1.47,-0.7 0.1,-0.06 0.2,-0.12 0.3,-0.18 0.17,-0.11 0.34,-0.22 0.5,-0.34 0.14,-0.1 0.26,-0.19 0.39,-0.27 0.6,-0.45 1.16,-0.95 1.66,-1.51 l 0.05,-0.05 c 0.07,-0.08 0.14,-0.17 0.21,-0.26 0.39,-0.47 0.74,-0.96 1.04,-1.48 0.7,-1.21 1.19,-2.48 1.45,-3.83 0.27,-1.35 0.29,-2.72 0.08,-4.11 -0.21,-1.39 -0.67,-2.72 -1.37,-3.99 -0.83,-1.4 -1.84,-2.57 -3.05,-3.5 -1.21,-0.93 -2.52,-1.59 -3.93,-1.96 -0.97,-0.26 -1.97,-0.39 -3,-0.39 -0.32,0 -0.64,0.01 -0.96,0.04 -0.1,0.01 -0.2,0.03 -0.3,0.05 -1.38,0.18 -2.68,0.6 -3.9,1.24 -1.21,0.64 -2.27,1.48 -3.18,2.49 -0.89,0.99 -1.63,2.14 -2.17,3.42 l -0.06,0.13 -0.03,0.08 c -0.24,0.62 -0.42,1.26 -0.55,1.92 -0.27,1.35 -0.32,2.75 -0.12,4.17 0.21,1.42 0.65,2.77 1.39,4.02 l 0.03,0.06 c 0.43,0.72 0.22,1.33 -0.45,1.74 -0.22,0.13 -0.43,0.2 -0.65,0.2 m 11.02,-5.52 c -1.31,0 -2.37,-1.08 -2.37,-2.42 0,-1.34 1.06,-2.42 2.37,-2.42 1.31,0 2.37,1.08 2.37,2.42 0,1.34 -1.06,2.42 -2.37,2.42"
       id="path2"
       style="display:none" />
    <path
       class="cls-1"
       d="m 76.58,28.7 c -1.01,-0.26 -1.78,-0.88 -2.24,-1.78 -0.44,-0.78 -0.59,-1.66 -0.42,-2.54 0.17,-0.89 0.61,-1.64 1.31,-2.23 l 0.18,-0.13 0.28,-0.17 c 0.84,-0.51 1.81,-0.65 2.8,-0.39 0.99,0.26 1.77,0.85 2.27,1.71 l 0.05,0.09 c 0.42,0.86 0.54,1.73 0.35,2.6 -0.17,0.8 -0.57,1.49 -1.19,2.04 -0.15,0.18 -0.34,0.33 -0.55,0.47 l -0.09,0.05 c -0.54,0.28 -1.12,0.42 -1.72,0.42 -0.34,0 -0.68,-0.04 -1.02,-0.13 M 74.71,2.17 c -2.91,0.39 -5.72,1.37 -8.36,2.93 -2.67,1.57 -4.93,3.6 -6.72,6.02 -1.8,2.44 -3.1,5.12 -3.87,7.97 -0.77,2.84 -0.99,5.82 -0.64,8.84 0.34,3.01 1.28,5.93 2.79,8.68 0.64,1.1 1.48,2.02 2.47,2.7 1.02,0.7 2.14,1.19 3.32,1.45 1.19,0.27 2.43,0.31 3.68,0.14 1.23,-0.17 2.4,-0.59 3.5,-1.25 l 0.61,-0.37 c 0.14,-0.09 0.26,-0.17 0.35,-0.26 l 0.07,-0.06 c 1.07,-0.87 1.91,-1.89 2.49,-3.04 l 0.48,-0.94 1.03,0.18 c 2.33,0.4 4.51,0.01 6.66,-1.2 0.16,-0.1 0.34,-0.22 0.51,-0.34 0.22,-0.16 0.43,-0.3 0.62,-0.42 0.97,-0.77 1.76,-1.68 2.36,-2.7 0.62,-1.05 1.06,-2.19 1.3,-3.36 0.24,-1.17 0.27,-2.38 0.09,-3.6 -0.18,-1.21 -0.58,-2.39 -1.19,-3.51 -0.7,-1.2 -1.6,-2.25 -2.65,-3.07 -1.05,-0.82 -2.2,-1.4 -3.41,-1.73 -1.23,-0.33 -2.53,-0.43 -3.86,-0.27 -1.3,0.15 -2.57,0.59 -3.76,1.31 l -0.61,0.37 c -0.15,0.09 -0.3,0.2 -0.45,0.33 L 71.48,17 c -0.96,0.76 -1.77,1.67 -2.4,2.7 -0.63,1.03 -1.07,2.15 -1.31,3.32 -0.24,1.18 -0.27,2.4 -0.1,3.65 0.17,1.22 0.58,2.39 1.21,3.47 l 0.1,0.19 c 0.65,1.44 0.25,2.83 -1.05,3.62 -0.68,0.41 -1.42,0.51 -2.15,0.29 -0.68,-0.21 -1.24,-0.67 -1.62,-1.32 -1.04,-1.88 -1.68,-3.87 -1.91,-5.93 -0.23,-2.05 -0.08,-4.08 0.46,-6.01 0.53,-1.92 1.41,-3.73 2.62,-5.39 1.22,-1.67 2.77,-3.05 4.59,-4.11 3.68,-2.11 7.6,-2.64 11.65,-1.55 1.99,0.55 3.8,1.46 5.41,2.71 1.62,1.25 2.95,2.81 3.96,4.63 1.02,1.84 1.67,3.8 1.93,5.81 0.26,2.03 0.1,4.09 -0.48,6.14 -0.53,1.99 -1.49,3.77 -2.61,5.46 -2.52,3.79 -3.57,5.99 -12.31,13.34 0,0 2.47,-0.13 3.54,-0.32 1.48,-0.26 2.8,-0.57 3.9,-0.92 1.09,-0.35 1.98,-0.69 2.63,-1.02 0.9,-0.45 1.21,-0.62 1.32,-0.69 0.84,-0.51 1.66,-1.08 2.44,-1.69 4.05,-3.12 6.77,-7.23 8.1,-12.22 0.81,-2.99 1.02,-6.01 0.64,-8.97 C 99.66,19.22 98.71,16.34 97.22,13.62 95.74,10.92 93.8,8.63 91.45,6.82 89.09,5 86.41,3.64 83.5,2.8 81.52,2.25 79.52,1.97 77.54,1.97 c -0.94,0 -1.88,0.06 -2.82,0.19"
       id="path3"
       style="fill:url(#linear-gradient)" />
  </g>
</svg>
