<?xml version="1.0" encoding="UTF-8" standalone="no"?>
<svg
   width="25.114799"
   height="26"
   viewBox="0 0 25.114799 26"
   fill="none"
   version="1.1"
   id="svg1"
   sodipodi:docname="OmanBusinessForum.svg"
   inkscape:version="1.4 (86a8ad7, 2024-10-11)"
   xmlns:inkscape="http://www.inkscape.org/namespaces/inkscape"
   xmlns:sodipodi="http://sodipodi.sourceforge.net/DTD/sodipodi-0.dtd"
   xmlns="http://www.w3.org/2000/svg"
   xmlns:svg="http://www.w3.org/2000/svg">
  <defs
     id="defs1" />
  <sodipodi:namedview
     id="namedview1"
     pagecolor="#ffffff"
     bordercolor="#000000"
     borderopacity="0.25"
     inkscape:showpageshadow="2"
     inkscape:pageopacity="0.0"
     inkscape:pagecheckerboard="0"
     inkscape:deskcolor="#d1d1d1"
     showgrid="false"
     inkscape:zoom="12.972222"
     inkscape:cx="53.768737"
     inkscape:cy="12.989293"
     inkscape:window-width="1920"
     inkscape:window-height="1009"
     inkscape:window-x="-8"
     inkscape:window-y="-8"
     inkscape:window-maximized="1"
     inkscape:current-layer="svg1" />
  <g
     id="Layer_1">
    <g
       id="Group">
      <path
         id="Vector"
         d="M 21.479,9.23161 19.3155,6.99313 C 18.9981,6.68683 18.5742,6.49817 18.1063,6.49817 h -1.7774 l 3.6542,3.78383 2.6252,2.7175 -3.1402,3.2507 1.2532,1.2973 4.3935,-4.548 -3.6368,-3.76789 z"
         fill="#fcfcfc" />
      <path
         id="Vector_2"
         d="M 12.5579,0 7.96071,4.75888 7.95866,4.76524 6.75867,6.00742 C 6.46277,6.33598 6.28052,6.77477 6.28052,7.25914 V 9.0991 L 9.9368,5.31532 12.562,2.59671 l 3.1403,3.25067 1.2532,-1.2973 z"
         fill="#fcfcfc" />
      <path
         id="Vector_3"
         d="M 15.1862,20.6836 12.561,23.4022 9.42073,20.1516 8.16443,21.4521 12.5579,26 16.1998,22.23 v 0.0021 l 2.1635,-2.2395 c 0.2959,-0.3286 0.4782,-0.7674 0.4782,-1.2517 V 16.902 l -3.6553,3.7827 z"
         fill="#fcfcfc" />
      <path
         id="Vector_4"
         d="M 5.13783,15.717 2.5126,12.9995 5.65285,9.74884 4.39654,8.44836 0,12.9995 l 5.02418,5.2009 0.00512,0.0021 0.77713,0.8034 c 0.3174,0.3063 0.74129,0.4949 1.2092,0.4949 h 1.77644 z"
         fill="#fcfcfc" />
      <path
         id="Vector_5"
         d="m 12.5593,10.3964 -2.5116,2.5998 2.5116,2.5999 2.5115,-2.5999 z"
         fill="#fcfcfc" />
      <path
         id="Vector_6"
         d="m 1.25635,5.19763 v 1.8389 c 0,0.48437 0.18225,0.92422 0.47815,1.25172 L 6.28053,12.9963 1.7345,17.7043 C 1.4386,18.0328 1.25635,18.4716 1.25635,18.956 v 1.8389 l 7.53679,-7.7997 z"
         fill="#fcfcfc" />
      <path
         id="Vector_7"
         d="m 23.8626,20.798 v -1.8388 c 0,-0.4844 -0.1823,-0.9243 -0.4782,-1.2518 l -4.546,-4.708 4.546,-4.70797 C 23.6803,7.96286 23.8626,7.52407 23.8626,7.0397 V 5.20081 l -7.5368,7.79969 7.5368,7.7997 z"
         fill="#fcfcfc" />
      <path
         id="Vector_8"
         d="m 5.02422,24.7017 h 1.77643 c 0.46791,0 0.89283,-0.1887 1.2092,-0.495 l 4.54805,-4.7058 4.5481,4.7058 c 0.3174,0.3063 0.7413,0.495 1.2092,0.495 h 1.7775 l -7.5348,-7.8018 -7.53471,7.8018 z"
         fill="#fcfcfc" />
      <path
         id="Vector_9"
         d="m 20.0937,1.30054 h -1.7764 c -0.4679,0 -0.8928,0.18866 -1.2092,0.49496 L 12.56,6.50138 8.01193,1.7955 C 7.69453,1.4892 7.27064,1.30054 6.80273,1.30054 H 5.02527 L 12.56,9.10234 Z"
         fill="#fcfcfc" />
    </g>
  </g>
</svg>
