<svg width="26" height="27" viewBox="0 0 26 27" fill="none" xmlns="http://www.w3.org/2000/svg">
<path id="Vector" d="M5.82236 10.4251C3.9434 11.8771 2.52149 12.5775 2.52149 12.5775C2.63998 8.03351 2.45378 6.83774 2.13216 3.76289C2.0983 3.40415 2.43685 3.11375 2.79233 3.21625C4.16346 3.64331 4.77285 3.88246 5.75465 4.36077C5.907 6.99148 5.92393 8.17017 5.82236 10.4251ZM6.14398 15.8915C6.14398 15.8915 10.5451 14.5078 14.5062 11.7575C16.1651 10.613 17.7563 9.22929 18.9073 7.62353C18.9073 7.62353 17.0792 5.64196 15.3864 4.46327C15.3864 4.46327 14.7432 6.08611 11.7978 8.5289C10.4944 9.6051 8.75082 10.8521 6.3979 12.1675M5.89007 11.1425C5.61923 11.3475 5.33146 11.5354 5.02677 11.7404C4.16346 12.3212 3.31709 12.7995 2.50456 13.1924C2.53842 13.9953 2.16601 17.4972 1.94596 18.4538C3.09703 18.0439 4.2481 17.6168 5.39917 17.2068C5.53459 16.9164 5.907 11.4842 5.89007 11.1425ZM11.3069 8.05059C12.915 6.71816 14.3877 5.2149 14.6924 3.96788C14.6924 3.96788 11.6793 1.59341 6.51639 0.0218182C6.19477 -0.0806768 5.85622 0.192643 5.907 0.534293C6.07627 2.10588 6.22862 3.28458 6.33019 4.63409C6.43175 6.03486 6.49946 7.60645 6.46561 9.94675C6.46561 10.203 6.46561 10.4763 6.44868 10.7496C6.44868 10.9888 6.43175 11.2279 6.43175 11.4842C6.43175 11.4842 9.02166 9.94675 11.3069 8.05059ZM5.34839 17.9414C4.70514 18.1805 4.01111 18.4368 3.2663 18.6417C2.7754 18.7784 2.30143 18.9151 1.86132 19.0176C1.75975 19.7863 1.26885 22.1607 0.625608 23.9032C0.47326 24.3131 1.0488 24.6035 1.15036 24.5865C2.52149 24.3815 4.07882 24.1252 4.07882 24.1252C4.29888 23.5786 5.28068 18.898 5.34839 17.9414ZM17.13 17.0189C19.0766 16.0794 21.1079 14.9178 23.0715 13.517C21.9543 11.4842 21.1418 10.1859 19.4829 8.25558C19.4829 8.25558 17.3839 11.6038 11.2561 14.5419C9.7834 15.2423 8.07372 15.9256 6.0932 16.5406C6.07627 16.6943 6.04242 16.8822 6.02549 17.1043C5.99164 17.3264 5.97471 17.5655 5.92393 17.8218C5.78851 18.7784 5.61923 19.94 5.4161 20.8796C5.4161 20.8796 10.9006 20.0425 17.13 17.0189ZM25.5937 20.6404C25.1367 18.2147 24.5273 16.5577 23.4608 14.3028C23.4608 14.3028 21.4465 15.9769 17.3669 17.8389C14.4215 19.1884 10.3928 20.6233 5.26375 21.5799C5.00984 22.6903 4.80671 23.4761 4.62051 24.1423C4.40045 24.9452 4.18039 25.5602 3.89262 26.346C3.77413 26.6876 4.04497 27.0463 4.40045 26.9951C14.9294 25.7481 21.4126 23.1174 25.306 21.17C25.526 21.0675 25.6276 20.8454 25.5937 20.6404Z" fill="white"/>
</svg>
