<?xml version="1.0" encoding="UTF-8" standalone="no"?>
<svg
   version="1.1"
   width="186.7438"
   height="185.4959"
   id="svg521"
   sodipodi:docname="OmanExportsPlatform.svg"
   inkscape:version="1.4 (86a8ad7, 2024-10-11)"
   xmlns:inkscape="http://www.inkscape.org/namespaces/inkscape"
   xmlns:sodipodi="http://sodipodi.sourceforge.net/DTD/sodipodi-0.dtd"
   xmlns="http://www.w3.org/2000/svg"
   xmlns:svg="http://www.w3.org/2000/svg">
  <defs
     id="defs521" />
  <sodipodi:namedview
     id="namedview521"
     pagecolor="#ffffff"
     bordercolor="#000000"
     borderopacity="0.25"
     inkscape:showpageshadow="2"
     inkscape:pageopacity="0.0"
     inkscape:pagecheckerboard="0"
     inkscape:deskcolor="#d1d1d1"
     inkscape:zoom="3.4784483"
     inkscape:cx="94.726146"
     inkscape:cy="92.713755"
     inkscape:window-width="1920"
     inkscape:window-height="1009"
     inkscape:window-x="-8"
     inkscape:window-y="-8"
     inkscape:window-maximized="1"
     inkscape:current-layer="svg521" />
  <path
     d="m 76.743802,1.8434878 c 2.123274,1.0992319 4.218668,2.2533634 6.289062,3.4492188 0.58454,0.3357051 1.169079,0.6714102 1.771332,1.0172882 1.857837,1.0686093 3.711234,2.144662 5.564606,3.220993 1.219769,0.7029652 2.43982,1.4054422 3.660156,2.1074222 0.60028,0.346123 1.200561,0.692247 1.819031,1.048859 1.202994,0.693223 2.406807,1.385025 3.61145,2.075378 2.932901,1.688142 5.828991,3.411085 8.681821,5.23172 1.5783,0.986858 1.5783,0.986858 3.18848,1.993652 0.92603,0.597884 1.85206,1.195767 2.80615,1.811768 2.57397,1.332526 2.57397,1.332526 5.21802,0.342529 0.78866,-0.428613 1.57733,-0.857226 2.38989,-1.298828 0.61738,-0.309778 1.23476,-0.619556 1.87085,-0.938721 0.88184,-0.488595 0.88184,-0.488595 1.7815,-0.98706 0.6836,-0.378582 1.36721,-0.757163 2.07153,-1.147217 0.73049,-0.409036 1.46099,-0.818071 2.21362,-1.239502 1.15472,-0.639657 1.15472,-0.639657 2.33277,-1.292236 4.6011,-2.569685 9.13281,-5.23053 13.62817,-7.9812017 1.47545,-0.8965833 1.47545,-0.8965833 2.98071,-1.8112793 1.9315,-1.178832 3.85545,-2.3701342 5.771,-3.574707 0.88502,-0.5390699 1.77004,-1.0781396 2.68188,-1.6335449 0.78093,-0.4862183 1.56186,-0.9724365 2.36646,-1.47338866 2.93012,-1.1727337 4.31972,-0.8761897 7.30151,0.0788574 3.36834,1.57814596 6.54004,3.49810976 9.75,5.37499996 1.31291,0.7425 1.31291,0.7425 2.65234,1.5 1.24717,0.7231641 1.24717,0.7231641 2.51954,1.4609375 1.1384,0.658147 1.1384,0.658147 2.2998,1.3295897 1.77832,1.334473 1.77832,1.334473 2.77832,4.334473 -0.48018,0.259907 -0.96035,0.519814 -1.45508,0.787598 -10.18611,5.526662 -20.29037,11.175434 -30.29492,17.024902 -0.98976,0.576372 -1.97952,1.152744 -2.99927,1.746582 -5.34378,3.120755 -10.65389,6.288248 -15.93432,9.515137 -1.63341,0.985528 -1.63341,0.985528 -3.29981,1.990967 -2.09707,1.266329 -4.18542,2.547241 -6.26367,3.844238 -1.41491,0.84921 -1.41491,0.84921 -2.8584,1.715576 -0.82653,0.507891 -1.65306,1.015781 -2.50464,1.539062 -2.38989,0.835938 -2.38989,0.835938 -4.85644,0.168213 -0.83604,-0.43965 -1.67208,-0.879301 -2.53345,-1.332275 -1.29913,-0.677845 -1.29913,-0.677845 -2.62451,-1.369385 -0.92571,-0.518767 -1.85142,-1.037534 -2.80518,-1.572021 -1.03648,-0.579917 -2.07297,-1.159834 -3.14087,-1.757324 -1.63569,-0.922566 -1.63569,-0.922566 -3.30444,-1.86377 -1.11302,-0.625356 -2.226048,-1.250713 -3.372801,-1.89502 -8.340148,-4.703395 -16.595093,-9.528845 -24.752197,-14.54248 -1.521188,7.912125 -2.745992,16.255972 0,24 5.406388,6.156094 13.422725,9.208863 20.766602,12.48291 5.701236,2.674986 10.942896,6.128456 16.254146,9.496826 0.7189,0.4295 1.43779,0.858999 2.17847,1.301514 0.61706,0.382207 1.23412,0.764414 1.86987,1.158203 3.59646,1.044059 6.40271,-1.163855 9.55542,-2.808838 1.38857,-0.77815 1.38857,-0.77815 2.80518,-1.572021 1.03608,-0.579998 2.07217,-1.159995 3.13965,-1.757569 1.09087,-0.614963 2.18174,-1.229926 3.30566,-1.863525 1.11665,-0.624631 2.2333,-1.249263 3.38379,-1.892822 4.90118,-2.754521 9.77812,-5.524976 14.5459,-8.505616 1.02118,-0.636998 1.02118,-0.636998 2.06299,-1.286865 1.21798,-0.76981 2.428,-1.552438 3.62793,-2.350097 2.34294,-1.485516 4.05348,-2.395359 6.85595,-2.437256 4.02387,1.572749 7.59946,3.778105 11.27344,6.035156 1.51151,0.91916 3.02447,1.835931 4.53906,2.75 0.66468,0.407344 1.32935,0.814687 2.01416,1.234375 1.95234,1.162333 1.95234,1.162333 4.82178,2.015625 0,0.99 0,1.98 0,3 -0.67007,0.363516 -1.34014,0.727031 -2.03052,1.101562 -6.5829,3.579724 -13.13417,7.210427 -19.65698,10.898438 -0.97606,0.551799 -1.95212,1.103599 -2.95776,1.672119 -9.35582,5.304136 -18.65424,10.705303 -27.93677,16.136475 -0.90186,0.523198 -1.80372,1.046396 -2.73291,1.585449 -1.83531,1.097719 -3.64452,2.239959 -5.42871,3.418949 -0.87221,0.56831 -1.74442,1.13663 -2.64307,1.72217 -0.76916,0.52086 -1.53833,1.04172 -2.33081,1.57837 -2.28247,0.88647 -2.28247,0.88647 -4.75122,0.21337 -0.83531,-0.43787 -1.67062,-0.87575 -2.53125,-1.3269 -0.81896,-0.42571 -1.63791,-0.85143 -2.48169,-1.29004 -0.86842,-0.48694 -1.73685,-0.97389 -2.63159,-1.47558 -0.98799,-0.55293 -1.97597,-1.10586 -2.9939,-1.67554 -1.05775,-0.596921 -2.11551,-1.193837 -3.20532,-1.808842 -1.10867,-0.623342 -2.21735,-1.246685 -3.359617,-1.888916 C 89.622679,91.375068 80.246898,85.923717 70.888333,80.437238 63.222415,75.945266 55.522277,71.51306 47.822171,67.08006 40.781847,63.02535 33.757461,58.944153 26.743802,54.843488 c -3.665748,28.368083 -3.665748,28.368083 3.180176,54.646002 5.770369,5.33567 12.779426,7.70079 20.166992,10.05908 6.014699,2.1322 11.229778,5.47786 16.652832,8.79492 2.14225,1.24447 4.288111,2.48274 6.4375,3.71484 1.069922,0.6173 2.139844,1.2346 3.242187,1.87061 2.867623,1.65352 5.735935,3.30583 8.604737,4.95731 1.766031,1.01671 3.53185,2.0338 5.297607,3.05099 2.205311,1.27026 4.411011,2.53984 6.617188,3.80859 1.510136,0.87012 1.510136,0.87012 3.050781,1.75782 0.965508,0.55317 1.931018,1.10633 2.925778,1.67627 1.8954,1.11646 3.76824,2.27206 5.61719,3.46386 0.8727,0.55962 1.74539,1.11923 2.64453,1.6958 0.76184,0.50588 1.52367,1.01176 2.3086,1.53296 2.91654,1.25641 4.2581,0.94196 7.2539,-0.0291 2.42637,-1.11811 2.42637,-1.11811 4.85156,-2.55469 0.92507,-0.52779 1.85013,-1.05558 2.80323,-1.59936 0.98017,-0.56792 1.96034,-1.13583 2.97021,-1.72095 1.5186,-0.86444 1.5186,-0.86444 3.06787,-1.74634 4.99818,-2.85347 9.95793,-5.75764 14.86963,-8.75757 0.85642,-0.51643 1.71284,-1.03286 2.59522,-1.56494 1.61424,-0.97723 3.21927,-1.96989 4.81347,-2.97949 0.72365,-0.43651 1.4473,-0.87302 2.19287,-1.32275 0.62343,-0.38858 1.24685,-0.77715 1.88916,-1.17749 3.51486,-1.04071 6.17046,1.0189 9.25855,2.62866 2.50477,1.42396 5.00532,2.85461 7.50073,4.29492 0.88365,0.49887 1.7673,0.99773 2.67773,1.51172 0.83467,0.48082 1.66934,0.96164 2.5293,1.45703 0.76417,0.43764 1.52835,0.87527 2.31568,1.32617 0.54938,0.39768 1.09876,0.79535 1.66479,1.20508 0,0.66 0,1.32 0,2 -1.06807,0.6092 -1.06807,0.6092 -2.15771,1.23071 -12.14743,6.93042 -24.29333,13.8632 -36.4043,20.85718 -2.19284,1.26561 -4.38716,2.52867 -6.58301,3.78906 -4.49461,2.58271 -8.97452,5.17312 -13.37842,7.90821 -0.64598,0.3938 -1.29196,0.78761 -1.95752,1.19336 -1.60421,0.98298 -3.19526,1.98738 -4.78466,2.99414 -3.6755,1.38098 -5.1251,0.45538 -8.73438,-0.97261 -1.98226,-1.0176 -3.93734,-2.08931 -5.86719,-3.20313 -1.12035,-0.64332 -2.24071,-1.28664 -3.39502,-1.94946 -1.20435,-0.69899 -2.40861,-1.39813 -3.612788,-2.09741 -1.257412,-0.72494 -2.515065,-1.44946 -3.772949,-2.17358 -3.788839,-2.18386 -7.571412,-4.3784 -11.352051,-6.57642 -1.601983,-0.93127 -1.601983,-0.93127 -3.236328,-1.88135 -4.929969,-2.86946 -9.855464,-5.74649 -14.779297,-8.62646 -6.273354,-3.66601 -12.56452,-7.30076 -18.859375,-10.92969 -1.59884,-0.92208 -1.59884,-0.92208 -3.22998,-1.86279 -5.094818,-2.93705 -10.191475,-5.87085 -15.291657,-8.79857 -2.379335,-1.36621 -4.757786,-2.73394 -7.136139,-4.10185 -1.671628,-0.96059 -3.344555,-1.91891 -5.017517,-2.87717 -1.01981,-0.5866 -2.039619,-1.17321 -3.090332,-1.77759 -0.892354,-0.512 -1.784707,-1.024 -2.704102,-1.55151 -0.87624,-0.5257 -1.7524801,-1.05139 -2.6552731,-1.59302 -1.535273,-0.80158 -1.535273,-0.80158 -3.101562,-1.61935 -2.898438,-2.38065 -2.898438,-2.38065 -3.768006,-5.84926 -0.08409,-1.40342 -0.135433,-2.80903 -0.160705,-4.21474 -0.05432,-1.15461 -0.05432,-1.15461 -0.109742,-2.33255 -0.107969,-2.54562 -0.168373,-5.08908 -0.21936,-7.63644 -0.03293,-1.31062 -0.03293,-1.31062 -0.06654,-2.647713 -0.113383,-4.631492 -0.189036,-9.2619 -0.235222,-13.894529 -0.04415,-3.817526 -0.15502202,-7.623676 -0.32812502,-11.4375 -1.362816,-30.612295 -1.362816,-30.612295 4.15844702,-38.445374 5.4344581,-4.991165 12.4055311,-9.009592 19.8308151,-9.922546 3.37238,1.070066 6.345904,2.654536 9.425781,4.382812 0.795996,0.444727 1.591992,0.889454 2.41211,1.347657 0.816621,0.460195 1.633242,0.92039 2.474609,1.394531 0.835957,0.46793 1.671914,0.935859 2.533203,1.417969 2.052959,1.149657 4.104319,2.302069 6.154297,3.457031 -0.05237,-0.690374 -0.104736,-1.380747 -0.158691,-2.092041 -0.356217,-5.377963 -0.555303,-10.736756 -0.45459,-16.126709 0.01507,-0.99709 0.03013,-1.99418 0.04565,-3.021484 0.723533,-3.51777 2.110354,-4.949451 4.755127,-7.3222662 1.912188,-0.8704109 3.853318,-1.6787832 5.812504,-2.4375 2.254389,-1.3468465 4.504325,-2.7011725 6.75,-4.0625 5.074924,-2.95620576 6.858339,-3.09992216 12.25,-0.9375 z"
     fill="#fefefe"
     id="path1" />
  <path
     d="m 0.74380188,39.843488 c 0.33000002,0 0.66000002,0 1.00000002,0 0,26.4 0,52.8 0,80.000002 -0.33,0 -0.66,0 -1.00000002,0 0,-26.400002 0,-52.800002 0,-80.000002 z"
     fill="#fefefe"
     id="path2" />
  <path
     d="m 27.743802,55.843488 c 2,2 2,2 2.202545,4.062775 -0.02221,0.848273 -0.04441,1.696547 -0.06729,2.570526 -0.03026,1.441267 -0.03026,1.441267 -0.06113,2.911651 -0.0322,1.039619 -0.06439,2.079238 -0.09756,3.150361 -0.02503,1.06258 -0.05005,2.12516 -0.07584,3.21994 -0.08236,3.403566 -0.17889,6.806565 -0.275726,10.209747 -0.05822,2.303362 -0.115527,4.606748 -0.171875,6.910156 -0.140364,5.655264 -0.292369,11.310126 -0.453125,16.964846 -0.33,0 -0.66,0 -1,0 0,-16.500002 0,-33.000002 0,-50.000002 z"
     fill="#fefefe"
     id="path3" />
  <path
     d="m 116.7438,186.84349 c 2,1 2,1 2,1 z"
     fill="#ffffff"
     id="path4" />
  <path
     d="m 118.7438,185.84349 c 2,1 2,1 2,1 z"
     fill="#fefefe"
     id="path5" />
  <path
     d="m 112.7438,184.84349 c 2,1 2,1 2,1 z"
     fill="#fefefe"
     id="path6" />
  <path
     d="m 125.7438,181.84349 c 2,1 2,1 2,1 z"
     fill="#ffffff"
     id="path7" />
  <path
     d="m 93.743802,173.84349 c 2,1 2,1 2,1 z"
     fill="#fefefe"
     id="path8" />
  <path
     d="m 144.7438,170.84349 c 2,1 2,1 2,1 z"
     fill="#fefefe"
     id="path9" />
  <path
     d="m 86.743802,169.84349 c 2,1 2,1 2,1 z"
     fill="#ffffff"
     id="path10" />
  <path
     d="m 151.7438,166.84349 c 2,1 2,1 2,1 z"
     fill="#ffffff"
     id="path11" />
  <path
     d="m 163.7438,159.84349 c 2,1 2,1 2,1 z"
     fill="#fefefe"
     id="path12" />
  <path
     d="m 67.743802,158.84349 c 2,1 2,1 2,1 z"
     fill="#fefefe"
     id="path13" />
  <path
     d="m 170.7438,155.84349 c 2,1 2,1 2,1 z"
     fill="#fefefe"
     id="path14" />
  <path
     d="m 60.743802,154.84349 c 2,1 2,1 2,1 z"
     fill="#ffffff"
     id="path15" />
  <path
     d="m 122.7438,152.84349 c 2,1 2,1 2,1 z"
     fill="#fefefe"
     id="path16" />
  <path
     d="m 53.743802,150.84349 c 2,1 2,1 2,1 z"
     fill="#ffffff"
     id="path17" />
  <path
     d="m 48.743802,147.84349 c 2,1 2,1 2,1 z"
     fill="#fefefe"
     id="path18" />
  <path
     d="m 96.743802,144.84349 c 2,1 2,1 2,1 z"
     fill="#ffffff"
     id="path19" />
  <path
     d="m 41.743802,143.84349 c 2,1 2,1 2,1 z"
     fill="#ffffff"
     id="path20" />
  <path
     d="m 141.7438,141.84349 c 2,1 2,1 2,1 z"
     fill="#fefefe"
     id="path21" />
  <path
     d="m 89.743802,140.84349 c 2,1 2,1 2,1 z"
     fill="#ffffff"
     id="path22" />
  <path
     d="m 179.7438,139.84349 c 2,1 2,1 2,1 z"
     fill="#fefefe"
     id="path23" />
  <path
     d="m 148.7438,137.84349 c 2,1 2,1 2,1 z"
     fill="#ffffff"
     id="path24" />
  <path
     d="m 82.743802,136.84349 c 2,1 2,1 2,1 z"
     fill="#fefefe"
     id="path25" />
  <path
     d="m 172.7438,135.84349 c 2,1 2,1 2,1 z"
     fill="#ffffff"
     id="path26" />
  <path
     d="m 160.7438,130.84349 c 2,1 2,1 2,1 z"
     fill="#ffffff"
     id="path27" />
  <path
     d="m 15.743802,128.84349 c 2,1 2,1 2,1 z"
     fill="#fefefe"
     id="path28" />
  <path
     d="m 8.7438019,124.84349 c 2.0000001,1 2.0000001,1 2.0000001,1 z"
     fill="#ffffff"
     id="path29" />
  <path
     d="m 56.743802,121.84349 c 2,1 2,1 2,1 z"
     fill="#fefefe"
     id="path30" />
  <path
     d="m 3.7438019,121.84349 c 2,1 2,1 2,1 z"
     fill="#fefefe"
     id="path31" />
  <path
     d="m 51.743802,118.84349 c 2,1 2,1 2,1 z"
     fill="#ffffff"
     id="path32" />
  <path
     d="m 44.743802,114.84349 c 2,1 2,1 2,1 z"
     fill="#ffffff"
     id="path33" />
  <path
     d="m 37.743802,110.84349 c 2,1 2,1 2,1 z"
     fill="#fefefe"
     id="path34" />
  <path
     d="m 119.7438,105.84349 c 2,1 2,1 2,1 z"
     fill="#ffffff"
     id="path35" />
  <path
     d="m 111.7438,104.84349 c 2,1 2,1 2,1 z"
     fill="#fefefe"
     id="path36" />
  <path
     d="m 104.7438,100.84349 c 2,1 2,1 2,1 z"
     fill="#fefefe"
     id="path37" />
  <path
     d="m 140.7438,93.843488 c 2,1 2,1 2,1 z"
     fill="#fefefe"
     id="path38" />
  <path
     d="m 145.7438,90.843488 c 2,1 2,1 2,1 z"
     fill="#fefefe"
     id="path39" />
  <path
     d="m 85.743802,89.843488 c 2,1 2,1 2,1 z"
     fill="#fefefe"
     id="path40" />
  <path
     d="m 152.7438,86.843488 c 2,1 2,1 2,1 z"
     fill="#fefefe"
     id="path41" />
  <path
     d="m 71.743802,81.843488 c 2,1 2,1 2,1 z"
     fill="#fefefe"
     id="path42" />
  <path
     d="m 66.743802,78.843488 c 2,1 2,1 2,1 z"
     fill="#fefefe"
     id="path43" />
  <path
     d="m 116.7438,76.843488 c 2,1 2,1 2,1 z"
     fill="#fefefe"
     id="path44" />
  <path
     d="m 114.7438,75.843488 c 2,1 2,1 2,1 z"
     fill="#fefefe"
     id="path45" />
  <path
     d="m 59.743802,74.843488 c 2,1 2,1 2,1 z"
     fill="#ffffff"
     id="path46" />
  <path
     d="m 178.7438,71.843488 c 2,1 2,1 2,1 z"
     fill="#fefefe"
     id="path47" />
  <path
     d="m 107.7438,71.843488 c 2,1 2,1 2,1 z"
     fill="#ffffff"
     id="path48" />
  <path
     d="m 52.743802,70.843488 c 2,1 2,1 2,1 z"
     fill="#fefefe"
     id="path49" />
  <path
     d="m 130.7438,68.843488 c 2,1 2,1 2,1 z"
     fill="#fefefe"
     id="path50" />
  <path
     d="m 100.7438,67.843488 c 2,1 2,1 2,1 z"
     fill="#fefefe"
     id="path51" />
  <path
     d="m 137.7438,64.843488 c 2,1 2,1 2,1 z"
     fill="#ffffff"
     id="path52" />
  <path
     d="m 95.743802,64.843488 c 2,1 2,1 2,1 z"
     fill="#fefefe"
     id="path53" />
  <path
     d="m 88.743802,60.843488 c 2,1 2,1 2,1 z"
     fill="#fefefe"
     id="path54" />
  <path
     d="m 178.7438,59.843488 c 2,1 2,1 2,1 z"
     fill="#fefefe"
     id="path55" />
  <path
     d="m 33.743802,59.843488 c 2,1 2,1 2,1 z"
     fill="#fefefe"
     id="path56" />
  <path
     d="m 149.7438,57.843488 c 2,1 2,1 2,1 z"
     fill="#fefefe"
     id="path57" />
  <path
     d="m 171.7438,55.843488 c 2,1 2,1 2,1 z"
     fill="#fefefe"
     id="path58" />
  <path
     d="m 156.7438,53.843488 c 2,1 2,1 2,1 z"
     fill="#fefefe"
     id="path59" />
  <path
     d="m 74.743802,52.843488 c 2,1 2,1 2,1 z"
     fill="#ffffff"
     id="path60" />
  <path
     d="m 121.7438,51.843488 c 2,1 2,1 2,1 z"
     fill="#fefefe"
     id="path61" />
  <path
     d="m 162.7438,50.843488 c 2,1 2,1 2,1 z"
     fill="#fefefe"
     id="path62" />
  <path
     d="m 109.7438,50.843488 c 2,1 2,1 2,1 z"
     fill="#fefefe"
     id="path63" />
  <path
     d="m 104.7438,47.843488 c 2,1 2,1 2,1 z"
     fill="#fefefe"
     id="path64" />
  <path
     d="m 97.743802,43.843488 c 2,1 2,1 2,1 z"
     fill="#fefefe"
     id="path65" />
  <path
     d="m 140.7438,40.843488 c 2,1 2,1 2,1 z"
     fill="#fefefe"
     id="path66" />
  <path
     d="m 90.743802,39.843488 c 2,1 2,1 2,1 z"
     fill="#ffffff"
     id="path67" />
  <path
     d="m 147.7438,36.843488 c 2,1 2,1 2,1 z"
     fill="#fefefe"
     id="path68" />
  <path
     d="m 2.7438019,36.843488 c 2,1 2,1 2,1 z"
     fill="#fefefe"
     id="path69" />
  <path
     d="m 9.7438019,32.843488 c 2.0000001,1 2.0000001,1 2.0000001,1 z"
     fill="#fefefe"
     id="path70" />
  <path
     d="m 159.7438,29.843488 c 2,1 2,1 2,1 z"
     fill="#fefefe"
     id="path71" />
  <path
     d="m 29.743802,26.843488 c 2,1 2,1 2,1 z"
     fill="#ffffff"
     id="path72" />
  <path
     d="m 166.7438,25.843488 c 2,1 2,1 2,1 z"
     fill="#fefefe"
     id="path73" />
  <path
     d="m 116.7438,23.843488 c 2,1 2,1 2,1 z"
     fill="#fefefe"
     id="path74" />
  <path
     d="m 118.7438,22.843488 c 2,1 2,1 2,1 z"
     fill="#fefefe"
     id="path75" />
  <path
     d="m 123.7438,19.843488 c 2,1 2,1 2,1 z"
     fill="#ffffff"
     id="path76" />
  <path
     d="m 100.7438,14.843488 c 2,1 2,1 2,1 z"
     fill="#fefefe"
     id="path77" />
  <path
     d="m 93.743802,10.843488 c 2,1 2,1 2,1 z"
     fill="#fefefe"
     id="path78" />
  <path
     d="m 183.7438,9.8434878 c 2,1.0000002 2,1.0000002 2,1.0000002 z"
     fill="#ffffff"
     id="path79" />
  <path
     d="m 88.743802,7.8434878 c 2,1 2,1 2,1 z"
     fill="#fdfdfd"
     id="path80" />
  <path
     d="m 54.743802,6.8434878 c 2,1 2,1 2,1 z"
     fill="#fefefe"
     id="path81" />
  <path
     d="m 176.7438,5.8434878 c 2,1 2,1 2,1 z"
     fill="#fefefe"
     id="path82" />
  <path
     d="m 151.7438,3.8434878 c 2,1 2,1 2,1 z"
     fill="#fefefe"
     id="path83" />
  <path
     d="m 81.743802,3.8434878 c 2,1 2,1 2,1 z"
     fill="#ffffff"
     id="path84" />
  <path
     d="m 156.7438,0.84348784 c 2,0.99999996 2,0.99999996 2,0.99999996 z"
     fill="#fefefe"
     id="path85" />
  <path
     d="m 74.743802,-0.15651216 c 2,1 2,1 2,1 z"
     fill="#fefefe"
     id="path86" />
  <path
     d="m 164.7438,-1.1565122 c 2,1.00000004 2,1.00000004 2,1.00000004 z"
     fill="#fefefe"
     id="path87" />
  <path
     d="m 162.7438,-2.1565122 c 2,1 2,1 2,1 z"
     fill="#ffffff"
     id="path88" />
  <path
     d="m 70.743802,-2.1565122 c 2,1 2,1 2,1 z"
     fill="#fefefe"
     id="path89" />
  <path
     d=""
     fill="#fefefe"
     id="path90" />
  <path
     d=""
     fill="#fefefe"
     id="path91" />
  <path
     d=""
     fill="#fefefe"
     id="path92" />
  <path
     d=""
     fill="#ffffff"
     id="path93" />
  <path
     d=""
     fill="#ffffff"
     id="path94" />
  <path
     d=""
     fill="#ffffff"
     id="path95" />
  <path
     d=""
     fill="#fefefe"
     id="path96" />
  <path
     d=""
     fill="#ffffff"
     id="path97" />
  <path
     d=""
     fill="#ffffff"
     id="path98" />
  <path
     d=""
     fill="#ffffff"
     id="path99" />
  <path
     d=""
     fill="#ffffff"
     id="path100" />
  <path
     d=""
     fill="#fefefe"
     id="path101" />
  <path
     d=""
     fill="#ffffff"
     id="path102" />
  <path
     d=""
     fill="#fefefe"
     id="path103" />
  <path
     d=""
     fill="#fefefe"
     id="path104" />
  <path
     d=""
     fill="#fefefe"
     id="path105" />
  <path
     d=""
     fill="#ffffff"
     id="path106" />
  <path
     d=""
     fill="#fefefe"
     id="path107" />
  <path
     d=""
     fill="#fefefe"
     id="path108" />
  <path
     d=""
     fill="#fefefe"
     id="path109" />
  <path
     d=""
     fill="#ffffff"
     id="path110" />
  <path
     d=""
     fill="#ffffff"
     id="path111" />
  <path
     d=""
     fill="#fefefe"
     id="path112" />
  <path
     d=""
     fill="#ffffff"
     id="path113" />
  <path
     d=""
     fill="#ffffff"
     id="path114" />
  <path
     d=""
     fill="#ffffff"
     id="path115" />
  <path
     d=""
     fill="#ffffff"
     id="path116" />
  <path
     d=""
     fill="#fefefe"
     id="path117" />
  <path
     d=""
     fill="#ffffff"
     id="path118" />
  <path
     d=""
     fill="#fefefe"
     id="path119" />
  <path
     d=""
     fill="#fefefe"
     id="path120" />
  <path
     d=""
     fill="#fefefe"
     id="path121" />
  <path
     d=""
     fill="#ffffff"
     id="path122" />
  <path
     d=""
     fill="#ffffff"
     id="path123" />
  <path
     d=""
     fill="#fefefe"
     id="path124" />
  <path
     d=""
     fill="#ffffff"
     id="path125" />
  <path
     d=""
     fill="#ffffff"
     id="path126" />
  <path
     d=""
     fill="#ffffff"
     id="path127" />
  <path
     d=""
     fill="#fefefe"
     id="path128" />
  <path
     d=""
     fill="#ffffff"
     id="path129" />
  <path
     d=""
     fill="#fefefe"
     id="path130" />
  <path
     d=""
     fill="#fefefe"
     id="path131" />
  <path
     d=""
     fill="#fefefe"
     id="path132" />
  <path
     d=""
     fill="#fefefe"
     id="path133" />
  <path
     d=""
     fill="#fefefe"
     id="path134" />
  <path
     d=""
     fill="#fefefe"
     id="path135" />
  <path
     d=""
     fill="#fefefe"
     id="path136" />
  <path
     d=""
     fill="#fefefe"
     id="path137" />
  <path
     d=""
     fill="#ffffff"
     id="path138" />
  <path
     d=""
     fill="#ffffff"
     id="path139" />
  <path
     d=""
     fill="#fefefe"
     id="path140" />
  <path
     d=""
     fill="#fefefe"
     id="path141" />
  <path
     d=""
     fill="#fefefe"
     id="path142" />
  <path
     d=""
     fill="#fefefe"
     id="path143" />
  <path
     d=""
     fill="#ffffff"
     id="path144" />
  <path
     d=""
     fill="#ffffff"
     id="path145" />
  <path
     d=""
     fill="#fefefe"
     id="path146" />
  <path
     d=""
     fill="#fefefe"
     id="path147" />
  <path
     d=""
     fill="#fefefe"
     id="path148" />
  <path
     d=""
     fill="#ffffff"
     id="path149" />
  <path
     d=""
     fill="#ffffff"
     id="path150" />
  <path
     d=""
     fill="#fefefe"
     id="path151" />
  <path
     d=""
     fill="#fefefe"
     id="path152" />
  <path
     d=""
     fill="#ffffff"
     id="path153" />
  <path
     d=""
     fill="#fefefe"
     id="path154" />
  <path
     d=""
     fill="#ffffff"
     id="path155" />
  <path
     d=""
     fill="#fefefe"
     id="path156" />
  <path
     d=""
     fill="#ffffff"
     id="path157" />
  <path
     d=""
     fill="#ffffff"
     id="path158" />
  <path
     d=""
     fill="#fefefe"
     id="path159" />
  <path
     d=""
     fill="#fefefe"
     id="path160" />
  <path
     d=""
     fill="#fefefe"
     id="path161" />
  <path
     d=""
     fill="#ffffff"
     id="path162" />
  <path
     d=""
     fill="#ffffff"
     id="path163" />
  <path
     d=""
     fill="#fefefe"
     id="path164" />
  <path
     d=""
     fill="#fefefe"
     id="path165" />
  <path
     d=""
     fill="#fefefe"
     id="path166" />
  <path
     d=""
     fill="#fefefe"
     id="path167" />
  <path
     d=""
     fill="#ffffff"
     id="path168" />
  <path
     d=""
     fill="#ffffff"
     id="path169" />
  <path
     d=""
     fill="#fefefe"
     id="path170" />
  <path
     d=""
     fill="#fefefe"
     id="path171" />
  <path
     d=""
     fill="#ffffff"
     id="path172" />
  <path
     d=""
     fill="#ffffff"
     id="path173" />
  <path
     d=""
     fill="#ffffff"
     id="path174" />
  <path
     d=""
     fill="#fefefe"
     id="path175" />
  <path
     d=""
     fill="#ffffff"
     id="path176" />
  <path
     d=""
     fill="#ffffff"
     id="path177" />
  <path
     d=""
     fill="#fefefe"
     id="path178" />
  <path
     d=""
     fill="#fefefe"
     id="path179" />
  <path
     d=""
     fill="#fefefe"
     id="path180" />
  <path
     d=""
     fill="#fefefe"
     id="path181" />
  <path
     d=""
     fill="#fefefe"
     id="path182" />
  <path
     d=""
     fill="#ffffff"
     id="path183" />
  <path
     d=""
     fill="#fefefe"
     id="path184" />
  <path
     d=""
     fill="#fefefe"
     id="path185" />
  <path
     d=""
     fill="#ffffff"
     id="path186" />
  <path
     d=""
     fill="#ffffff"
     id="path187" />
  <path
     d=""
     fill="#fefefe"
     id="path188" />
  <path
     d=""
     fill="#fefefe"
     id="path189" />
  <path
     d=""
     fill="#fefefe"
     id="path190" />
  <path
     d=""
     fill="#ffffff"
     id="path191" />
  <path
     d=""
     fill="#fefefe"
     id="path192" />
  <path
     d=""
     fill="#fcfcfc"
     id="path193" />
  <path
     d=""
     fill="#fefefe"
     id="path194" />
  <path
     d=""
     fill="#fefefe"
     id="path195" />
  <path
     d=""
     fill="#fefefe"
     id="path196" />
  <path
     d=""
     fill="#ffffff"
     id="path197" />
  <path
     d=""
     fill="#fefefe"
     id="path198" />
  <path
     d=""
     fill="#fefefe"
     id="path199" />
  <path
     d=""
     fill="#fefefe"
     id="path200" />
  <path
     d=""
     fill="#ffffff"
     id="path201" />
  <path
     d=""
     fill="#fefefe"
     id="path202" />
  <path
     d=""
     fill="#fefefe"
     id="path203" />
  <path
     d=""
     fill="#ffffff"
     id="path204" />
  <path
     d=""
     fill="#ffffff"
     id="path205" />
  <path
     d=""
     fill="#fefefe"
     id="path206" />
  <path
     d=""
     fill="#fefefe"
     id="path207" />
  <path
     d=""
     fill="#fefefe"
     id="path208" />
  <path
     d=""
     fill="#fefefe"
     id="path209" />
  <path
     d=""
     fill="#ffffff"
     id="path210" />
  <path
     d=""
     fill="#ffffff"
     id="path211" />
  <path
     d=""
     fill="#fefefe"
     id="path212" />
  <path
     d=""
     fill="#fefefe"
     id="path213" />
  <path
     d=""
     fill="#ffffff"
     id="path214" />
  <path
     d=""
     fill="#fefefe"
     id="path215" />
  <path
     d=""
     fill="#ffffff"
     id="path216" />
  <path
     d=""
     fill="#fefefe"
     id="path217" />
  <path
     d=""
     fill="#ffffff"
     id="path218" />
  <path
     d=""
     fill="#fefefe"
     id="path219" />
  <path
     d=""
     fill="#fefefe"
     id="path220" />
  <path
     d=""
     fill="#ffffff"
     id="path221" />
  <path
     d=""
     fill="#ffffff"
     id="path222" />
  <path
     d=""
     fill="#fcfcfc"
     id="path223" />
  <path
     d=""
     fill="#fefefe"
     id="path224" />
  <path
     d=""
     fill="#fefefe"
     id="path225" />
  <path
     d=""
     fill="#fefefe"
     id="path226" />
  <path
     d=""
     fill="#fefefe"
     id="path227" />
  <path
     d=""
     fill="#fefefe"
     id="path228" />
  <path
     d=""
     fill="#ffffff"
     id="path229" />
  <path
     d=""
     fill="#fefefe"
     id="path230" />
  <path
     d=""
     fill="#ffffff"
     id="path231" />
  <path
     d=""
     fill="#fefefe"
     id="path232" />
  <path
     d=""
     fill="#ffffff"
     id="path233" />
  <path
     d=""
     fill="#fefefe"
     id="path234" />
  <path
     d=""
     fill="#ffffff"
     id="path235" />
  <path
     d=""
     fill="#fefefe"
     id="path236" />
  <path
     d=""
     fill="#fefefe"
     id="path237" />
  <path
     d=""
     fill="#ffffff"
     id="path238" />
  <path
     d=""
     fill="#ffffff"
     id="path239" />
  <path
     d=""
     fill="#ffffff"
     id="path240" />
  <path
     d=""
     fill="#fefefe"
     id="path241" />
  <path
     d=""
     fill="#ffffff"
     id="path242" />
  <path
     d=""
     fill="#fefefe"
     id="path243" />
  <path
     d=""
     fill="#fefefe"
     id="path244" />
  <path
     d=""
     fill="#fefefe"
     id="path245" />
  <path
     d=""
     fill="#ffffff"
     id="path246" />
  <path
     d=""
     fill="#fefefe"
     id="path247" />
  <path
     d=""
     fill="#ffffff"
     id="path248" />
  <path
     d=""
     fill="#ffffff"
     id="path249" />
  <path
     d=""
     fill="#fefefe"
     id="path250" />
  <path
     d=""
     fill="#fefefe"
     id="path251" />
  <path
     d=""
     fill="#fefefe"
     id="path252" />
  <path
     d=""
     fill="#fefefe"
     id="path253" />
  <path
     d=""
     fill="#ffffff"
     id="path254" />
  <path
     d=""
     fill="#fefefe"
     id="path255" />
  <path
     d=""
     fill="#fefefe"
     id="path256" />
  <path
     d=""
     fill="#fefefe"
     id="path257" />
  <path
     d=""
     fill="#ffffff"
     id="path258" />
  <path
     d=""
     fill="#ffffff"
     id="path259" />
  <path
     d=""
     fill="#ffffff"
     id="path260" />
  <path
     d=""
     fill="#fefefe"
     id="path261" />
  <path
     d=""
     fill="#ffffff"
     id="path262" />
  <path
     d=""
     fill="#fefefe"
     id="path263" />
  <path
     d=""
     fill="#fefefe"
     id="path264" />
  <path
     d=""
     fill="#fefefe"
     id="path265" />
  <path
     d=""
     fill="#fefefe"
     id="path266" />
  <path
     d=""
     fill="#fefefe"
     id="path267" />
  <path
     d=""
     fill="#ffffff"
     id="path268" />
  <path
     d=""
     fill="#ffffff"
     id="path269" />
  <path
     d=""
     fill="#fefefe"
     id="path270" />
  <path
     d=""
     fill="#fefefe"
     id="path271" />
  <path
     d=""
     fill="#ffffff"
     id="path272" />
  <path
     d=""
     fill="#ffffff"
     id="path273" />
  <path
     d=""
     fill="#ffffff"
     id="path274" />
  <path
     d=""
     fill="#ffffff"
     id="path275" />
  <path
     d=""
     fill="#fefefe"
     id="path276" />
  <path
     d=""
     fill="#ffffff"
     id="path277" />
  <path
     d=""
     fill="#fefefe"
     id="path278" />
  <path
     d=""
     fill="#fefefe"
     id="path279" />
  <path
     d=""
     fill="#fefefe"
     id="path280" />
  <path
     d=""
     fill="#fefefe"
     id="path281" />
  <path
     d=""
     fill="#fefefe"
     id="path282" />
  <path
     d=""
     fill="#fefefe"
     id="path283" />
  <path
     d=""
     fill="#ffffff"
     id="path284" />
  <path
     d=""
     fill="#ffffff"
     id="path285" />
  <path
     d=""
     fill="#ffffff"
     id="path286" />
  <path
     d=""
     fill="#fefefe"
     id="path287" />
  <path
     d=""
     fill="#fefefe"
     id="path288" />
  <path
     d=""
     fill="#fefefe"
     id="path289" />
  <path
     d=""
     fill="#fefefe"
     id="path290" />
  <path
     d=""
     fill="#fefefe"
     id="path291" />
  <path
     d=""
     fill="#ffffff"
     id="path292" />
  <path
     d=""
     fill="#fefefe"
     id="path293" />
  <path
     d=""
     fill="#ffffff"
     id="path294" />
  <path
     d=""
     fill="#ffffff"
     id="path295" />
  <path
     d=""
     fill="#fefefe"
     id="path296" />
  <path
     d=""
     fill="#fefefe"
     id="path297" />
  <path
     d=""
     fill="#ffffff"
     id="path298" />
  <path
     d=""
     fill="#fefefe"
     id="path299" />
  <path
     d=""
     fill="#fefefe"
     id="path300" />
  <path
     d=""
     fill="#fefefe"
     id="path301" />
  <path
     d=""
     fill="#fefefe"
     id="path302" />
  <path
     d=""
     fill="#fefefe"
     id="path303" />
  <path
     d=""
     fill="#fefefe"
     id="path304" />
  <path
     d=""
     fill="#ffffff"
     id="path305" />
  <path
     d=""
     fill="#fefefe"
     id="path306" />
  <path
     d=""
     fill="#fefefe"
     id="path307" />
  <path
     d=""
     fill="#fefefe"
     id="path308" />
  <path
     d=""
     fill="#ffffff"
     id="path309" />
  <path
     d=""
     fill="#fefefe"
     id="path310" />
  <path
     d=""
     fill="#ffffff"
     id="path311" />
  <path
     d=""
     fill="#ffffff"
     id="path312" />
  <path
     d=""
     fill="#ffffff"
     id="path313" />
  <path
     d=""
     fill="#fefefe"
     id="path314" />
  <path
     d=""
     fill="#ffffff"
     id="path315" />
  <path
     d=""
     fill="#fefefe"
     id="path316" />
  <path
     d=""
     fill="#ffffff"
     id="path317" />
  <path
     d=""
     fill="#fefefe"
     id="path318" />
  <path
     d=""
     fill="#fefefe"
     id="path319" />
  <path
     d=""
     fill="#ffffff"
     id="path320" />
  <path
     d=""
     fill="#fefefe"
     id="path321" />
  <path
     d=""
     fill="#ffffff"
     id="path322" />
  <path
     d=""
     fill="#ffffff"
     id="path323" />
  <path
     d=""
     fill="#ffffff"
     id="path324" />
  <path
     d=""
     fill="#fefefe"
     id="path325" />
  <path
     d=""
     fill="#ffffff"
     id="path326" />
  <path
     d=""
     fill="#fefefe"
     id="path327" />
  <path
     d=""
     fill="#ffffff"
     id="path328" />
  <path
     d=""
     fill="#ffffff"
     id="path329" />
  <path
     d=""
     fill="#fefefe"
     id="path330" />
  <path
     d=""
     fill="#ffffff"
     id="path331" />
  <path
     d=""
     fill="#ffffff"
     id="path332" />
  <path
     d=""
     fill="#fefefe"
     id="path333" />
  <path
     d=""
     fill="#ffffff"
     id="path334" />
  <path
     d=""
     fill="#fefefe"
     id="path335" />
  <path
     d=""
     fill="#ffffff"
     id="path336" />
  <path
     d=""
     fill="#ffffff"
     id="path337" />
  <path
     d=""
     fill="#fefefe"
     id="path338" />
  <path
     d=""
     fill="#ffffff"
     id="path339" />
  <path
     d=""
     fill="#ffffff"
     id="path340" />
  <path
     d=""
     fill="#fefefe"
     id="path341" />
  <path
     d=""
     fill="#fefefe"
     id="path342" />
  <path
     d=""
     fill="#fefefe"
     id="path343" />
  <path
     d=""
     fill="#fefefe"
     id="path344" />
  <path
     d=""
     fill="#fefefe"
     id="path345" />
  <path
     d=""
     fill="#fefefe"
     id="path346" />
  <path
     d=""
     fill="#fefefe"
     id="path347" />
  <path
     d=""
     fill="#ffffff"
     id="path348" />
  <path
     d=""
     fill="#ffffff"
     id="path349" />
  <path
     d=""
     fill="#fefefe"
     id="path350" />
  <path
     d=""
     fill="#ffffff"
     id="path351" />
  <path
     d=""
     fill="#ffffff"
     id="path352" />
  <path
     d=""
     fill="#ffffff"
     id="path353" />
  <path
     d=""
     fill="#fefefe"
     id="path354" />
  <path
     d=""
     fill="#fefefe"
     id="path355" />
  <path
     d=""
     fill="#fefefe"
     id="path356" />
  <path
     d=""
     fill="#ffffff"
     id="path357" />
  <path
     d=""
     fill="#ffffff"
     id="path358" />
  <path
     d=""
     fill="#ffffff"
     id="path359" />
  <path
     d=""
     fill="#fefefe"
     id="path360" />
  <path
     d=""
     fill="#fefefe"
     id="path361" />
  <path
     d=""
     fill="#ffffff"
     id="path362" />
  <path
     d=""
     fill="#fefefe"
     id="path363" />
  <path
     d=""
     fill="#fefefe"
     id="path364" />
  <path
     d=""
     fill="#ffffff"
     id="path365" />
  <path
     d=""
     fill="#fefefe"
     id="path366" />
  <path
     d=""
     fill="#ffffff"
     id="path367" />
  <path
     d=""
     fill="#ffffff"
     id="path368" />
  <path
     d=""
     fill="#fefefe"
     id="path369" />
  <path
     d=""
     fill="#fefefe"
     id="path370" />
  <path
     d=""
     fill="#fefefe"
     id="path371" />
  <path
     d=""
     fill="#ffffff"
     id="path372" />
  <path
     d=""
     fill="#ffffff"
     id="path373" />
  <path
     d=""
     fill="#fefefe"
     id="path374" />
  <path
     d=""
     fill="#fefefe"
     id="path375" />
  <path
     d=""
     fill="#ffffff"
     id="path376" />
  <path
     d=""
     fill="#fefefe"
     id="path377" />
  <path
     d=""
     fill="#fefefe"
     id="path378" />
  <path
     d=""
     fill="#fefefe"
     id="path379" />
  <path
     d=""
     fill="#fefefe"
     id="path380" />
  <path
     d=""
     fill="#fefefe"
     id="path381" />
  <path
     d=""
     fill="#fefefe"
     id="path382" />
  <path
     d=""
     fill="#fefefe"
     id="path383" />
  <path
     d=""
     fill="#fefefe"
     id="path384" />
  <path
     d=""
     fill="#fefefe"
     id="path385" />
  <path
     d=""
     fill="#ffffff"
     id="path386" />
  <path
     d=""
     fill="#ffffff"
     id="path387" />
  <path
     d=""
     fill="#fefefe"
     id="path388" />
  <path
     d=""
     fill="#fefefe"
     id="path389" />
  <path
     d=""
     fill="#fefefe"
     id="path390" />
  <path
     d=""
     fill="#fefefe"
     id="path391" />
  <path
     d=""
     fill="#fefefe"
     id="path392" />
  <path
     d=""
     fill="#fefefe"
     id="path393" />
  <path
     d=""
     fill="#ffffff"
     id="path394" />
  <path
     d=""
     fill="#fefefe"
     id="path395" />
  <path
     d=""
     fill="#fefefe"
     id="path396" />
  <path
     d=""
     fill="#ffffff"
     id="path397" />
  <path
     d=""
     fill="#fefefe"
     id="path398" />
  <path
     d=""
     fill="#fefefe"
     id="path399" />
  <path
     d=""
     fill="#fefefe"
     id="path400" />
  <path
     d=""
     fill="#fefefe"
     id="path401" />
  <path
     d=""
     fill="#fefefe"
     id="path402" />
  <path
     d=""
     fill="#ffffff"
     id="path403" />
  <path
     d=""
     fill="#fefefe"
     id="path404" />
  <path
     d=""
     fill="#ffffff"
     id="path405" />
  <path
     d=""
     fill="#fefefe"
     id="path406" />
  <path
     d=""
     fill="#ffffff"
     id="path407" />
  <path
     d=""
     fill="#fefefe"
     id="path408" />
  <path
     d=""
     fill="#fefefe"
     id="path409" />
  <path
     d=""
     fill="#ffffff"
     id="path410" />
  <path
     d=""
     fill="#ffffff"
     id="path411" />
  <path
     d=""
     fill="#ffffff"
     id="path412" />
  <path
     d=""
     fill="#fefefe"
     id="path413" />
  <path
     d=""
     fill="#fefefe"
     id="path414" />
  <path
     d=""
     fill="#fefefe"
     id="path415" />
  <path
     d=""
     fill="#ffffff"
     id="path416" />
  <path
     d=""
     fill="#ffffff"
     id="path417" />
  <path
     d=""
     fill="#fefefe"
     id="path418" />
  <path
     d=""
     fill="#fefefe"
     id="path419" />
  <path
     d=""
     fill="#fefefe"
     id="path420" />
  <path
     d=""
     fill="#ffffff"
     id="path421" />
  <path
     d=""
     fill="#fefefe"
     id="path422" />
  <path
     d=""
     fill="#ffffff"
     id="path423" />
  <path
     d=""
     fill="#fefefe"
     id="path424" />
  <path
     d=""
     fill="#fefefe"
     id="path425" />
  <path
     d=""
     fill="#fefefe"
     id="path426" />
  <path
     d=""
     fill="#fefefe"
     id="path427" />
  <path
     d=""
     fill="#ffffff"
     id="path428" />
  <path
     d=""
     fill="#fefefe"
     id="path429" />
  <path
     d=""
     fill="#fefefe"
     id="path430" />
  <path
     d=""
     fill="#fefefe"
     id="path431" />
  <path
     d=""
     fill="#fefefe"
     id="path432" />
  <path
     d=""
     fill="#fefefe"
     id="path433" />
  <path
     d=""
     fill="#ffffff"
     id="path434" />
  <path
     d=""
     fill="#fefefe"
     id="path435" />
  <path
     d=""
     fill="#ffffff"
     id="path436" />
  <path
     d=""
     fill="#fefefe"
     id="path437" />
  <path
     d=""
     fill="#fefefe"
     id="path438" />
  <path
     d=""
     fill="#ffffff"
     id="path439" />
  <path
     d=""
     fill="#fefefe"
     id="path440" />
  <path
     d=""
     fill="#ffffff"
     id="path441" />
  <path
     d=""
     fill="#ffffff"
     id="path442" />
  <path
     d=""
     fill="#ffffff"
     id="path443" />
  <path
     d=""
     fill="#ffffff"
     id="path444" />
  <path
     d=""
     fill="#fefefe"
     id="path445" />
  <path
     d=""
     fill="#fefefe"
     id="path446" />
  <path
     d=""
     fill="#fefefe"
     id="path447" />
  <path
     d=""
     fill="#fefefe"
     id="path448" />
  <path
     d=""
     fill="#fefefe"
     id="path449" />
  <path
     d=""
     fill="#fefefe"
     id="path450" />
  <path
     d=""
     fill="#fefefe"
     id="path451" />
  <path
     d=""
     fill="#ffffff"
     id="path452" />
  <path
     d=""
     fill="#fefefe"
     id="path453" />
  <path
     d=""
     fill="#ffffff"
     id="path454" />
  <path
     d=""
     fill="#fefefe"
     id="path455" />
  <path
     d=""
     fill="#fefefe"
     id="path456" />
  <path
     d=""
     fill="#ffffff"
     id="path457" />
  <path
     d=""
     fill="#fefefe"
     id="path458" />
  <path
     d=""
     fill="#fefefe"
     id="path459" />
  <path
     d=""
     fill="#fefefe"
     id="path460" />
  <path
     d=""
     fill="#fefefe"
     id="path461" />
  <path
     d=""
     fill="#fefefe"
     id="path462" />
  <path
     d=""
     fill="#ffffff"
     id="path463" />
  <path
     d=""
     fill="#ffffff"
     id="path464" />
  <path
     d=""
     fill="#ffffff"
     id="path465" />
  <path
     d=""
     fill="#fefefe"
     id="path466" />
  <path
     d=""
     fill="#fefefe"
     id="path467" />
  <path
     d=""
     fill="#fefefe"
     id="path468" />
  <path
     d=""
     fill="#ffffff"
     id="path469" />
  <path
     d=""
     fill="#fefefe"
     id="path470" />
  <path
     d=""
     fill="#ffffff"
     id="path471" />
  <path
     d=""
     fill="#ffffff"
     id="path472" />
  <path
     d=""
     fill="#ffffff"
     id="path473" />
  <path
     d=""
     fill="#fefefe"
     id="path474" />
  <path
     d=""
     fill="#fefefe"
     id="path475" />
  <path
     d=""
     fill="#ffffff"
     id="path476" />
  <path
     d=""
     fill="#ffffff"
     id="path477" />
  <path
     d=""
     fill="#fefefe"
     id="path478" />
  <path
     d=""
     fill="#fefefe"
     id="path479" />
  <path
     d=""
     fill="#ffffff"
     id="path480" />
  <path
     d=""
     fill="#fefefe"
     id="path481" />
  <path
     d=""
     fill="#ffffff"
     id="path482" />
  <path
     d=""
     fill="#fefefe"
     id="path483" />
  <path
     d=""
     fill="#fefefe"
     id="path484" />
  <path
     d=""
     fill="#fefefe"
     id="path485" />
  <path
     d=""
     fill="#fefefe"
     id="path486" />
  <path
     d=""
     fill="#fefefe"
     id="path487" />
  <path
     d=""
     fill="#fefefe"
     id="path488" />
  <path
     d=""
     fill="#fefefe"
     id="path489" />
  <path
     d=""
     fill="#ffffff"
     id="path490" />
  <path
     d=""
     fill="#ffffff"
     id="path491" />
  <path
     d=""
     fill="#ffffff"
     id="path492" />
  <path
     d=""
     fill="#fefefe"
     id="path493" />
  <path
     d=""
     fill="#fefefe"
     id="path494" />
  <path
     d=""
     fill="#fefefe"
     id="path495" />
  <path
     d=""
     fill="#ffffff"
     id="path496" />
  <path
     d=""
     fill="#fefefe"
     id="path497" />
  <path
     d=""
     fill="#fefefe"
     id="path498" />
  <path
     d=""
     fill="#fefefe"
     id="path499" />
  <path
     d=""
     fill="#fefefe"
     id="path500" />
  <path
     d=""
     fill="#ffffff"
     id="path501" />
  <path
     d=""
     fill="#fefefe"
     id="path502" />
  <path
     d=""
     fill="#fefefe"
     id="path503" />
  <path
     d=""
     fill="#fefefe"
     id="path504" />
  <path
     d=""
     fill="#ffffff"
     id="path505" />
  <path
     d=""
     fill="#fefefe"
     id="path506" />
  <path
     d=""
     fill="#fefefe"
     id="path507" />
  <path
     d=""
     fill="#fefefe"
     id="path508" />
  <path
     d=""
     fill="#fefefe"
     id="path509" />
  <path
     d=""
     fill="#fefefe"
     id="path510" />
  <path
     d=""
     fill="#fefefe"
     id="path511" />
  <path
     d=""
     fill="#fefefe"
     id="path512" />
  <path
     d=""
     fill="#ffffff"
     id="path513" />
  <path
     d=""
     fill="#ffffff"
     id="path514" />
  <path
     d=""
     fill="#ffffff"
     id="path515" />
  <path
     d=""
     fill="#ffffff"
     id="path516" />
  <path
     d=""
     fill="#fefefe"
     id="path517" />
  <path
     d=""
     fill="#fefefe"
     id="path518" />
  <path
     d=""
     fill="#ffffff"
     id="path519" />
  <path
     d=""
     fill="#ffffff"
     id="path520" />
  <path
     d=""
     fill="#fefefe"
     id="path521" />
</svg>
