<?xml version="1.0" encoding="UTF-8" standalone="no"?>
<!-- Uploaded to: SVG Repo, www.svgrepo.com, Generator: SVG Repo Mixer Tools -->

<svg
   width="666.66669"
   height="650.56714"
   viewBox="0 0 20.000001 19.517014"
   fill="none"
   version="1.1"
   id="svg1"
   sodipodi:docname="house-window-svgrepo-com.svg"
   inkscape:version="1.4 (86a8ad7, 2024-10-11)"
   xmlns:inkscape="http://www.inkscape.org/namespaces/inkscape"
   xmlns:sodipodi="http://sodipodi.sourceforge.net/DTD/sodipodi-0.dtd"
   xmlns="http://www.w3.org/2000/svg"
   xmlns:svg="http://www.w3.org/2000/svg">
  <defs
     id="defs1">
    <linearGradient
       id="swatch1"
       inkscape:swatch="solid">
      <stop
         style="stop-color:#000000;stop-opacity:1;"
         offset="0"
         id="stop1" />
    </linearGradient>
  </defs>
  <sodipodi:namedview
     id="namedview1"
     pagecolor="#ffffff"
     bordercolor="#000000"
     borderopacity="0.25"
     inkscape:showpageshadow="2"
     inkscape:pageopacity="0.0"
     inkscape:pagecheckerboard="0"
     inkscape:deskcolor="#d1d1d1"
     inkscape:zoom="1.00875"
     inkscape:cx="333.58116"
     inkscape:cy="316.72862"
     inkscape:window-width="1920"
     inkscape:window-height="1009"
     inkscape:window-x="-8"
     inkscape:window-y="-8"
     inkscape:window-maximized="1"
     inkscape:current-layer="svg1" />
  <path
     d="m 17,7.2935239 v 6.4219401 c 0,1.6801 0,2.5202 -0.327,3.1619 -0.2876,0.5645 -0.7465,1.0235 -1.311,1.3111 -0.6418,0.327 -1.4818,0.327 -3.162,0.327 H 7.8 c -1.68016,0 -2.52024,0 -3.16197,-0.327 -0.56449,-0.2876 -1.02343,-0.7466 -1.31105,-1.3111 C 3,16.235664 3,15.395564 3,13.715464 V 7.2928639 m 16,2.2226 -5.4332,-6.03607 c -1.2357,-1.37277 -1.8535,-2.05915 -2.5812,-2.31255 -0.639,-0.22256002 -1.3346,-0.22251002 -1.9737,1.5e-4 -0.7276,0.2535 -1.34529,0.93998 -2.58076,2.31293 L 1,9.5154639 m 11,0 c 0,1.1045001 -0.8954,2.0000001 -2,2.0000001 -1.1046,0 -2,-0.8955 -2,-2.0000001 0,-1.1046 0.8954,-2.00004 2,-2.00004 1.1046,0 2,0.89544 2,2.00004 z"
     stroke="#000000"
     stroke-width="2"
     stroke-linecap="round"
     stroke-linejoin="round"
     id="path1"
     style="fill:none;stroke:#ffffff;stroke-opacity:1" />
</svg>
