<svg width="32" height="32" viewBox="0 0 32 32" fill="none" xmlns="http://www.w3.org/2000/svg">
<path fill-rule="evenodd" clip-rule="evenodd" d="M5.01806 14.0308C5.34737 8.25149 10.1382 3.6665 16 3.6665C21.8618 3.6665 26.6526 8.25149 26.9819 14.0308C25.851 12.9775 24.3341 12.3332 22.6667 12.3332C20.6416 12.3332 19 13.9748 19 15.9998V21.3332C19 23.3582 20.6416 24.9998 22.6667 24.9998C24.3355 24.9998 25.8536 24.3544 26.9849 23.2995C26.9766 23.631 26.9638 23.9277 26.944 24.1978C26.8893 24.9427 26.7852 25.4074 26.6182 25.7783C26.1837 26.7438 25.4107 27.5169 24.4451 27.9514C24.0742 28.1183 23.6095 28.2224 22.8646 28.2771C22.1098 28.3325 21.1485 28.3332 19.7949 28.3332H16C15.4477 28.3332 15 28.7809 15 29.3332C15 29.8855 15.4477 30.3332 16 30.3332H19.8343C21.1398 30.3332 22.1745 30.3332 23.0111 30.2718C23.8661 30.209 24.5929 30.0781 25.2659 29.7752C26.6771 29.1401 27.8069 28.0103 28.442 26.5991C28.745 25.926 28.8758 25.1993 28.9386 24.3443C29 23.5076 29 22.473 29 21.1675V14.6665C29 7.4868 23.1797 1.6665 16 1.6665C8.8203 1.6665 3 7.4868 3 14.6665V18.6665C3 22.1643 5.83553 24.9998 9.33333 24.9998C11.3584 24.9998 13 23.3582 13 21.3332V15.9998C13 13.9748 11.3584 12.3332 9.33333 12.3332C7.66594 12.3332 6.14905 12.9775 5.01806 14.0308ZM5 18.6665C5 21.0597 6.9401 22.9998 9.33333 22.9998C10.2538 22.9998 11 22.2536 11 21.3332V15.9998C11 15.0794 10.2538 14.3332 9.33333 14.3332C6.9401 14.3332 5 16.2733 5 18.6665ZM27 18.6665C27 16.2733 25.0599 14.3332 22.6667 14.3332C21.7462 14.3332 21 15.0794 21 15.9998V21.3332C21 22.2536 21.7462 22.9998 22.6667 22.9998C25.0599 22.9998 27 21.0597 27 18.6665Z" fill="#340201"/>
</svg>
