<svg width="37" height="36" viewBox="0 0 37 36" fill="none" xmlns="http://www.w3.org/2000/svg">
<circle cx="18.7598" cy="18" r="18" transform="rotate(-180 18.7598 18)" fill="#FCFCFC"/>
<rect width="32" height="32" transform="translate(2.75977 2)" fill="white" style="mix-blend-mode:multiply"/>
<path d="M25.7598 16V14H11.7598V16H16.7598V18.734L12.8918 25.504L14.6278 26.496L18.3398 20H19.1798L22.8918 26.496L24.6278 25.504L20.7598 18.734V16H25.7598Z" fill="#E95A56"/>
<path d="M18.7598 13C19.8643 13 20.7598 12.1046 20.7598 11C20.7598 9.89544 19.8643 9.00001 18.7598 9.00001C17.6552 9.00001 16.7598 9.89544 16.7598 11C16.7598 12.1046 17.6552 13 18.7598 13Z" fill="#E95A56"/>
<path d="M18.7598 32C15.9908 32 13.2841 31.1789 10.9818 29.6406C8.6795 28.1022 6.88509 25.9157 5.82546 23.3576C4.76583 20.7994 4.48858 17.9845 5.02878 15.2687C5.56897 12.553 6.90234 10.0584 8.86028 8.10051C10.8182 6.14258 13.3128 4.80921 16.0285 4.26901C18.7442 3.72882 21.5592 4.00607 24.1173 5.06569C26.6755 6.12532 28.862 7.91973 30.4003 10.222C31.9387 12.5243 32.7598 15.2311 32.7598 18C32.7556 21.7118 31.2793 25.2703 28.6546 27.8949C26.03 30.5195 22.4715 31.9958 18.7598 32ZM18.7598 6.00001C16.3864 6.00001 14.0663 6.70379 12.0929 8.02237C10.1195 9.34095 8.58147 11.2151 7.67322 13.4078C6.76497 15.6005 6.52733 18.0133 6.99035 20.3411C7.45337 22.6689 8.59626 24.8071 10.2745 26.4853C11.9527 28.1635 14.0909 29.3064 16.4187 29.7694C18.7465 30.2325 21.1593 29.9948 23.352 29.0866C25.5447 28.1783 27.4188 26.6402 28.7374 24.6668C30.056 22.6935 30.7598 20.3734 30.7598 18C30.7561 14.8185 29.4907 11.7684 27.241 9.51873C24.9914 7.26908 21.9413 6.00363 18.7598 6.00001Z" fill="#E95A56"/>
</svg>
