<svg width="25" height="27" viewBox="0 0 25 27" fill="none" xmlns="http://www.w3.org/2000/svg">
<g clip-path="url(#clip0_2538_37879)">
<path d="M24.241 21.8661C16.2913 23.029 3.21649 21.9252 0 21.527L0.167979 22.0216C3.95106 22.4658 17.9293 26.6378 17.9293 26.6378C22.2528 24.7556 24.4663 22.3476 24.5685 22.2343L25.0004 21.7552L24.241 21.8665V21.8661Z" fill="white"/>
<path d="M23.0313 14.7482C16.5325 10.8267 10.6906 6.08404 5.64854 0.637817L5.63477 1.25276C10.7404 6.70104 16.6481 11.4391 23.2135 15.3476L23.0308 14.7478L23.0313 14.7482Z" fill="white"/>
<path d="M23.1785 15.2314C16.6251 11.6793 10.7223 7.29421 5.61445 2.18542L5.60156 2.77533C10.7703 7.88329 16.7353 12.2622 23.3518 15.8008L23.1785 15.2314Z" fill="white"/>
<path d="M23.3252 15.7141C15.2235 11.8151 9.28292 7.14845 5.57983 3.73999L5.56738 4.30444C9.36869 7.76011 15.3671 12.4001 23.4896 16.2539L23.3252 15.7137V15.7141Z" fill="white"/>
<path d="M5.53418 5.83693C9.38392 9.0467 15.4552 13.3213 23.6275 16.7064L23.4706 16.1912C15.317 12.7647 9.30082 8.46336 5.54618 5.29382L5.53418 5.83693Z" fill="white"/>
<path d="M5.5 7.37345C9.40396 10.341 15.5521 14.2507 23.7648 17.1583L23.6151 16.6653C15.4201 13.7203 9.32441 9.78396 5.51155 6.85046L5.5 7.37345Z" fill="white"/>
<path d="M5.46582 8.91373C9.42977 11.6416 15.6601 15.1871 23.9022 17.6095L23.7582 17.1366C15.5343 14.681 9.35422 11.1095 5.47693 8.41003L5.46582 8.91414V8.91373Z" fill="white"/>
<path d="M5.43164 10.4584C9.46269 12.9482 15.7797 16.1292 24.0395 18.0606L23.9009 17.605C15.6606 15.6436 9.39115 12.4383 5.44275 9.97156L5.43208 10.458L5.43164 10.4584Z" fill="white"/>
<path d="M5.39746 12.0072C9.50317 14.2593 15.913 17.075 24.1765 18.5117L24.0423 18.0713C15.8002 16.6078 9.43518 13.7704 5.40768 11.5364L5.39746 12.0072Z" fill="white"/>
<path d="M5.36328 13.5598C9.55076 15.5733 16.0593 18.0212 24.3143 18.9625L24.184 18.5344C15.954 17.5701 9.48766 15.1021 5.3735 13.1029L5.36328 13.5598Z" fill="white"/>
<path d="M5.32812 15.1168C9.60493 16.8898 16.2197 18.967 24.4506 19.4136L24.3235 18.9961C16.1201 18.5294 9.54715 16.435 5.3379 14.6722L5.32812 15.1168Z" fill="white"/>
<path d="M5.29395 16.6777C9.66807 18.2068 16.3948 19.9088 24.588 19.8645L24.4636 19.4556C16.3015 19.4823 9.61518 17.7655 5.30372 16.2438L5.29395 16.6777Z" fill="white"/>
<path d="M24.6041 19.9129C16.4971 20.426 9.69219 19.0927 5.27007 17.8173L5.26074 18.2425C9.48244 19.4499 15.8057 20.6937 23.3354 20.3895C23.7944 20.371 24.2584 20.346 24.7263 20.3156L24.6037 19.9129H24.6041Z" fill="white"/>
<path d="M24.7413 20.3681C18.2234 21.1731 11.6638 20.8443 5.23394 19.3915L5.22461 19.8094C10.1276 20.9087 15.1038 21.3619 20.081 21.1608C21.675 21.0963 23.2699 20.9645 24.8622 20.7663L24.7408 20.3685L24.7413 20.3681Z" fill="white"/>
</g>
<defs>
<clipPath id="clip0_2538_37879">
<rect width="25" height="26" fill="white" transform="translate(0 0.637817)"/>
</clipPath>
</defs>
</svg>
