<svg width="26" height="27" viewBox="0 0 26 27" fill="none" xmlns="http://www.w3.org/2000/svg">
<path d="M12.2077 15.7297C11.6375 15.5829 11.2027 15.2328 10.943 14.7247C10.6946 14.2843 10.6099 13.7874 10.7059 13.2906C10.8019 12.7881 11.0503 12.3646 11.4455 12.0315L11.5471 11.9581L11.7052 11.8621C12.1795 11.5742 12.7272 11.4951 13.2861 11.6419C13.8451 11.7887 14.2855 12.1219 14.5678 12.6074L14.596 12.6582C14.8331 13.1438 14.9009 13.635 14.7936 14.1262C14.6976 14.5779 14.4718 14.9675 14.1217 15.278C14.037 15.3796 13.9298 15.4643 13.8112 15.5434L13.7604 15.5716C13.4555 15.7297 13.128 15.8087 12.7893 15.8087C12.5973 15.8087 12.4053 15.7861 12.2134 15.7353M11.1519 0.750738C9.50893 0.970934 7.92239 1.52425 6.43183 2.40503C4.92434 3.29145 3.64834 4.4376 2.6377 5.80394C1.62141 7.18157 0.887426 8.69471 0.452681 10.3038C0.0179359 11.9073 -0.106277 13.5898 0.0913347 15.2949C0.2833 16.9944 0.814028 18.643 1.66658 20.1957C2.02793 20.8168 2.50219 21.3362 3.06115 21.7201C3.63705 22.1153 4.2694 22.392 4.93564 22.5388C5.60751 22.6912 6.30762 22.7138 7.01338 22.6178C7.70784 22.5219 8.36842 22.2847 8.98949 21.9121L9.3339 21.7032C9.41294 21.6524 9.48069 21.6072 9.53151 21.5564L9.57103 21.5225C10.1752 21.0313 10.6494 20.4554 10.9769 19.8061L11.2479 19.2754L11.8294 19.377C13.145 19.6029 14.3758 19.3827 15.5897 18.6995C15.68 18.643 15.7817 18.5753 15.8777 18.5075C16.0019 18.4172 16.1204 18.3381 16.2277 18.2704C16.7754 17.8356 17.2214 17.3219 17.5602 16.746C17.9102 16.1531 18.1587 15.5095 18.2942 14.8489C18.4297 14.1883 18.4466 13.5051 18.345 12.8163C18.2433 12.1331 18.0175 11.4669 17.6731 10.8346C17.2779 10.157 16.7697 9.5642 16.1769 9.10123C15.5841 8.63825 14.9348 8.31078 14.2516 8.12446C13.5571 7.93814 12.8231 7.88168 12.0722 7.97202C11.3382 8.05671 10.6212 8.30514 9.94932 8.71165L9.60491 8.92055C9.52022 8.97137 9.43553 9.03347 9.35083 9.10687L9.32825 9.12381C8.78623 9.55291 8.32891 10.0667 7.9732 10.6482C7.6175 11.2298 7.36908 11.8621 7.23357 12.5227C7.09807 13.189 7.08113 13.8778 7.17711 14.5835C7.27309 15.2723 7.50458 15.9329 7.86028 16.5427L7.91675 16.65C8.28374 17.463 8.05789 18.2478 7.32391 18.6938C6.93998 18.9253 6.52217 18.9818 6.11001 18.8576C5.72608 18.739 5.4099 18.4793 5.19536 18.1123C4.60817 17.0508 4.24682 15.9273 4.11696 14.7642C3.9871 13.6068 4.07179 12.4606 4.37668 11.3709C4.67592 10.2869 5.17277 9.26496 5.85594 8.32772C6.54476 7.38483 7.41989 6.60568 8.44747 6.0072C10.5252 4.81588 12.7385 4.51664 15.0251 5.13206C16.1487 5.4426 17.1706 5.95638 18.0796 6.66214C18.9943 7.36789 19.7452 8.24868 20.3154 9.27625C20.8913 10.3151 21.2583 11.4217 21.4051 12.5566C21.5519 13.7027 21.4616 14.8658 21.1341 16.0233C20.8349 17.1468 20.2929 18.1518 19.6605 19.106C18.2377 21.2459 17.6449 22.488 12.7102 26.6378C12.7102 26.6378 14.1048 26.5644 14.7089 26.4571C15.5445 26.3103 16.2898 26.1353 16.9109 25.9377C17.5263 25.7401 18.0288 25.5481 18.3958 25.3618C18.9039 25.1077 19.079 25.0118 19.1411 24.9722C19.6153 24.6843 20.0783 24.3625 20.5187 24.0181C22.8053 22.2565 24.3411 19.936 25.092 17.1186C25.5493 15.4304 25.6679 13.7253 25.4533 12.0541C25.2388 10.3772 24.7024 8.75117 23.8612 7.21545C23.0255 5.69102 21.9302 4.39808 20.6034 3.37615C19.2709 2.34857 17.7578 1.58071 16.1148 1.10644C14.9969 0.795906 13.8677 0.637817 12.7498 0.637817C12.219 0.637817 11.6883 0.671694 11.1576 0.745092" fill="white"/>
</svg>
