<svg width="26" height="27" viewBox="0 0 26 27" fill="none" xmlns="http://www.w3.org/2000/svg">
<path fill-rule="evenodd" clip-rule="evenodd" d="M8.15268 1.59213L6.56151 2.51364C6.56151 5.26175 6.5123 6.05162 6.43028 6.05162C6.36467 6.05162 5.69211 5.67314 4.92114 5.22883C4.15016 4.78453 3.4776 4.40605 3.39558 4.40605C3.32997 4.40605 2.5918 4.80099 1.7552 5.29466L0.246057 6.18327C0.0492114 8.56934 0 10.4782 0 11.9757C0 13.4731 0.0492114 15.2997 0.13123 16.0567L0.246057 17.4225C2.28013 18.6238 3.06751 19.0845 3.31356 19.2162C3.54322 19.3478 6.54511 21.0757 9.9571 23.0504L16.1577 26.6377L26 21.0592C24.0972 19.9896 23.3754 19.5617 23.1621 19.4466C22.9653 19.3149 22.7356 19.2162 22.6372 19.2162C22.5388 19.2162 21.0625 20.0225 19.3565 21.0263L16.2397 22.8364L3.52681 15.5136L3.44479 8.19086L16.2397 15.5959C18.9792 13.9668 21.0953 12.7491 22.7192 11.8111C24.3432 10.8896 25.7211 10.0833 25.7868 10.0339C25.8524 9.96808 25.1634 9.49086 24.2612 8.96428L22.6372 8.0263C17.8145 10.8238 16.3218 11.6466 16.2397 11.6466C16.1577 11.6466 15.1407 11.12 13.9924 10.4617C12.8278 9.80352 11.4498 8.99719 10.9085 8.66807L9.92429 8.07567C9.85868 5.36048 9.87508 4.57061 9.92429 4.57061C9.9735 4.57061 11.4006 5.39339 13.123 6.38073L16.2397 8.19086C23.6215 3.91238 25.7375 2.61238 25.7211 2.54656C25.6883 2.46428 24.983 2.00352 24.1464 1.50985L22.6208 0.637695C20.4063 1.9377 19.0284 2.74402 18.1262 3.27061C17.224 3.79719 16.371 4.22504 16.2397 4.22504C16.1085 4.22504 14.6322 3.45162 12.959 2.48073C11.2858 1.5263 9.87508 0.736429 9.82587 0.703518C9.77666 0.687062 9.02208 1.082 8.15268 1.59213Z" fill="white"/>
</svg>
